<?xml version="1.0" encoding="UTF-8" ?>
<!DOCTYPE svg PUBLIC "-//W3C//DTD SVG 1.1//EN" "http://www.w3.org/Graphics/SVG/1.1/DTD/svg11.dtd">
<svg width="512pt" height="512pt" viewBox="0 0 512 512" version="1.1" xmlns="http://www.w3.org/2000/svg">
<g id="#7404a3ff">
<path fill="#7404a3" opacity="1.00" d=" M 199.34 0.00 L 205.71 0.00 C 213.70 0.36 221.81 0.90 229.49 3.37 C 226.11 4.65 220.29 4.33 219.66 9.01 C 220.58 13.78 227.61 13.96 229.72 10.03 C 228.93 8.50 227.58 7.50 225.93 7.10 C 226.49 8.48 227.07 9.87 227.35 11.35 C 224.35 13.05 219.69 9.47 222.26 6.41 C 225.68 4.14 230.90 5.64 232.83 9.18 C 233.84 11.85 231.58 14.76 228.97 15.30 C 225.01 16.42 221.48 13.84 217.79 12.93 C 220.91 17.98 227.82 16.29 232.76 15.89 C 229.48 18.70 226.59 22.53 226.42 27.02 C 226.26 29.73 227.77 32.51 230.31 33.60 C 235.39 35.84 241.82 32.35 243.08 27.03 C 243.83 24.77 243.39 21.67 240.96 20.62 C 237.92 19.79 234.80 21.60 232.90 23.89 C 235.25 24.20 237.39 22.68 239.73 23.13 C 240.16 25.82 239.99 28.90 237.79 30.82 C 235.77 32.92 231.07 33.35 230.14 29.98 C 228.70 22.90 233.56 14.61 241.03 13.73 C 246.42 13.21 249.10 19.42 248.54 23.94 C 247.47 30.76 242.33 36.30 236.40 39.46 C 236.34 40.13 236.28 40.79 236.22 41.46 C 233.48 42.31 230.71 43.06 228.02 44.05 C 189.24 56.87 150.28 69.19 111.42 81.79 C 112.46 79.70 114.53 77.63 113.77 75.09 C 113.17 73.19 111.28 72.10 110.00 70.70 C 114.35 71.38 119.37 71.88 123.03 68.88 C 125.20 67.25 127.39 63.97 125.51 61.37 C 122.16 57.28 114.59 58.99 113.23 64.04 C 113.40 66.64 117.57 67.74 119.32 66.03 C 117.97 65.45 116.67 64.78 115.42 64.02 C 116.10 59.52 123.46 59.44 123.86 63.98 C 123.06 69.64 115.60 71.41 111.16 68.90 C 107.66 66.85 108.07 61.47 111.05 59.13 C 114.85 55.65 120.29 55.85 125.09 56.09 L 124.85 54.89 C 117.99 53.51 108.74 55.88 106.40 63.26 C 105.26 66.06 107.27 68.53 109.00 70.50 C 105.29 69.89 99.43 70.47 98.69 75.05 C 99.52 79.42 105.47 79.93 108.18 77.02 C 109.21 74.80 106.56 73.68 104.96 73.06 C 105.50 74.47 106.10 75.88 106.36 77.38 C 103.85 78.52 100.29 76.96 100.53 73.94 C 102.99 67.99 115.40 73.18 111.20 79.22 C 107.48 83.82 101.38 80.58 96.98 78.92 C 98.55 82.98 104.19 82.25 107.72 82.93 C 102.60 84.69 97.43 86.33 92.27 87.93 C 98.27 65.68 107.60 43.61 123.60 26.65 C 134.27 15.18 148.48 6.93 163.92 4.00 C 175.62 1.90 187.45 0.49 199.34 0.00 M 199.98 6.94 C 197.48 9.59 196.38 14.71 199.91 16.99 C 205.02 19.99 212.65 19.42 216.41 14.52 C 217.93 12.70 218.44 9.39 216.09 8.01 C 212.33 4.94 205.59 7.11 204.69 11.95 C 205.57 14.43 208.95 14.77 211.10 13.89 C 210.04 12.49 206.42 12.88 207.40 10.38 C 208.93 6.55 215.79 7.81 215.36 12.03 C 213.96 17.36 206.97 18.80 202.60 16.39 C 199.38 14.41 199.54 9.55 202.09 7.10 C 205.62 3.48 211.11 3.09 215.86 3.72 C 216.14 3.38 216.70 2.68 216.98 2.34 C 211.05 1.40 204.27 2.39 199.98 6.94 M 168.14 7.23 C 165.86 9.40 164.31 13.01 165.77 16.04 C 167.58 19.10 171.49 19.51 174.69 19.77 L 174.75 18.37 C 171.49 18.61 167.75 16.60 167.73 12.98 C 167.65 6.85 174.74 4.06 179.95 4.38 C 181.33 4.21 183.96 5.46 184.15 3.18 C 178.60 2.40 172.36 3.24 168.14 7.23 M 174.39 9.29 C 173.19 10.41 171.36 12.31 172.83 13.96 C 174.26 15.22 176.28 15.36 178.08 15.09 C 178.18 13.43 176.00 13.66 174.99 13.05 C 174.05 9.65 178.94 7.70 181.33 9.74 C 184.65 11.66 182.01 16.06 179.42 17.31 C 178.05 18.37 175.45 17.33 174.96 19.47 C 179.66 19.95 185.62 16.26 185.23 11.07 C 183.63 6.85 177.45 6.44 174.39 9.29 M 132.53 23.61 C 130.82 27.12 131.18 32.25 134.99 34.20 C 141.33 37.66 150.00 31.09 148.31 24.04 C 147.53 20.82 143.54 20.67 141.18 22.16 C 140.22 22.86 137.87 23.41 138.78 25.02 C 140.83 25.21 142.83 22.62 144.70 24.19 C 146.05 27.75 143.91 32.42 140.03 33.15 C 137.83 33.89 135.21 32.45 135.07 30.04 C 134.59 24.80 136.81 19.13 141.41 16.30 C 144.13 14.39 148.24 13.70 150.88 16.13 C 153.98 19.39 154.49 24.60 152.62 28.62 C 150.46 33.79 146.22 37.80 141.36 40.45 C 141.30 40.80 141.17 41.52 141.11 41.88 C 145.79 41.36 149.29 37.47 152.29 34.16 C 155.70 29.94 158.26 24.14 156.31 18.73 C 154.90 14.54 150.53 11.17 145.98 12.30 C 140.06 13.65 135.13 18.22 132.53 23.61 M 183.58 19.90 C 184.11 24.57 189.27 30.15 194.14 27.15 C 198.19 24.57 194.22 17.89 189.96 19.37 C 187.72 19.70 187.32 23.62 189.72 24.02 C 189.91 22.68 190.10 21.34 190.29 20.00 C 193.09 20.63 195.68 24.74 192.77 26.78 C 187.62 27.48 183.90 20.45 186.31 16.19 C 188.07 14.49 190.87 15.11 192.70 16.35 C 195.68 18.28 197.10 21.66 198.34 24.82 C 199.35 24.63 200.14 23.75 199.51 22.74 C 198.05 18.25 194.02 13.91 188.99 14.12 C 186.00 14.12 182.82 16.65 183.58 19.90 M 163.31 18.39 C 159.27 21.66 156.35 26.69 156.38 31.97 C 156.45 36.10 160.23 40.60 164.67 39.49 C 168.88 38.33 172.12 34.67 173.57 30.65 C 174.66 27.46 173.66 22.83 169.98 21.92 C 165.15 21.24 160.18 26.68 162.62 31.35 C 164.15 34.42 168.53 32.07 169.51 29.74 C 167.82 29.30 166.61 30.86 165.02 31.04 C 163.11 27.89 165.79 21.71 169.93 23.82 C 173.66 28.32 170.46 35.43 165.60 37.62 C 160.83 38.96 157.82 33.01 158.89 29.01 C 159.42 24.50 162.84 21.38 165.38 17.95 C 164.86 18.06 163.83 18.28 163.31 18.39 M 207.42 28.22 C 205.50 33.12 208.99 40.43 214.86 39.55 C 221.04 38.09 226.73 30.55 223.63 24.28 C 220.80 19.25 212.84 23.08 212.65 28.07 C 212.12 30.33 213.91 33.92 216.64 32.60 C 217.88 31.80 220.74 31.27 219.42 29.28 C 218.29 29.89 217.16 30.52 216.04 31.14 C 213.01 28.32 216.85 21.11 220.77 24.11 C 224.03 28.58 221.05 35.12 216.55 37.47 C 212.54 39.12 209.15 34.65 209.32 30.97 C 209.17 25.70 212.88 21.67 216.10 17.98 C 211.33 18.58 208.84 24.10 207.42 28.22 M 117.64 37.73 C 115.31 42.19 115.74 48.89 120.76 51.28 C 125.45 53.16 129.94 49.11 132.26 45.37 C 134.49 42.06 134.69 36.40 130.68 34.36 C 125.67 32.59 119.80 38.69 122.54 43.60 C 124.20 46.56 128.36 44.14 129.43 41.83 C 127.80 41.70 126.43 42.74 124.95 43.22 C 122.91 40.07 125.71 33.78 129.84 36.03 C 133.57 40.60 130.20 48.08 125.02 49.87 C 119.49 50.66 117.31 43.34 119.25 39.16 C 120.07 35.41 123.48 33.20 125.11 29.99 C 121.35 30.72 119.30 34.63 117.64 37.73 M 169.68 39.62 C 167.72 42.06 167.27 46.05 169.71 48.33 C 174.61 52.83 183.86 50.42 185.80 44.03 C 186.79 39.32 179.98 38.62 177.00 40.28 C 178.28 42.42 182.74 40.59 182.56 43.99 C 181.85 49.90 171.71 50.07 171.30 44.04 C 172.06 36.25 181.81 32.99 188.26 35.75 C 193.13 38.15 193.33 45.21 189.94 48.96 C 185.32 54.27 177.82 55.42 171.15 55.17 C 170.86 55.58 170.30 56.39 170.02 56.80 C 180.19 58.35 193.41 53.87 195.86 42.72 C 197.70 44.03 198.23 46.62 200.28 47.79 C 202.73 49.88 207.21 49.26 208.30 46.00 C 209.14 42.52 205.13 38.93 201.84 40.62 C 199.97 41.41 200.22 45.32 202.61 44.83 C 202.38 43.51 202.50 42.25 202.98 41.06 C 205.87 41.66 208.40 46.45 204.88 47.88 C 200.48 47.99 197.56 42.94 198.17 38.95 C 198.30 37.10 200.20 35.80 201.99 36.15 C 205.50 36.55 208.12 39.52 209.48 42.59 C 210.13 43.76 210.25 45.50 211.79 45.86 C 212.67 41.25 208.29 36.73 204.05 35.37 C 200.58 34.13 197.31 36.25 195.49 39.08 C 194.47 36.33 192.17 34.22 189.30 33.52 C 182.37 31.69 174.06 33.66 169.68 39.62 M 149.76 48.74 C 147.05 52.97 145.80 59.38 149.90 63.18 C 152.75 66.21 157.55 64.89 160.15 62.23 C 163.88 59.12 166.70 53.05 163.29 48.75 C 159.05 44.24 150.89 50.57 153.19 56.01 C 154.18 59.86 159.53 57.68 160.39 54.87 C 158.56 54.45 157.10 57.22 155.48 55.59 C 154.31 52.47 157.04 47.01 160.81 49.21 C 165.16 54.15 159.90 64.65 153.20 62.74 C 148.28 59.98 149.05 53.12 151.76 49.02 C 152.66 46.70 155.57 45.62 155.91 43.10 C 153.04 43.73 151.33 46.48 149.76 48.74 M 130.02 52.90 C 126.16 54.97 127.70 60.32 130.08 62.99 C 132.05 65.88 136.87 67.24 139.25 64.12 C 141.68 60.87 137.61 55.88 133.91 57.32 C 131.73 57.88 131.64 61.40 133.89 61.97 C 134.16 60.64 134.30 59.29 134.30 57.93 C 137.25 58.37 139.94 62.84 136.76 64.72 C 131.72 65.21 128.16 58.45 130.37 54.21 C 132.70 51.83 136.53 53.50 138.45 55.59 C 140.65 57.55 141.24 60.56 142.91 62.87 C 144.75 62.05 143.38 60.16 142.97 58.96 C 140.94 54.22 135.10 50.12 130.02 52.90 Z" />
<path fill="#7404a3" opacity="1.00" d=" M 229.58 5.04 C 229.91 4.71 230.56 4.04 230.89 3.70 C 245.71 7.76 257.84 18.56 265.40 31.71 C 264.77 32.04 263.49 32.69 262.86 33.01 C 255.33 35.79 247.49 37.63 239.84 40.05 C 244.43 36.56 248.92 32.47 250.90 26.90 C 252.61 22.71 252.09 17.52 248.92 14.16 C 245.20 9.61 237.19 10.86 234.16 15.47 C 233.59 14.95 233.04 14.41 232.50 13.85 C 237.37 11.96 234.04 4.88 229.58 5.04 Z" />
<path fill="#7404a3" opacity="1.00" d=" M 231.90 53.18 C 243.67 50.80 255.39 48.15 267.16 45.76 L 267.96 45.92 C 268.34 47.79 268.67 49.68 268.91 51.58 C 256.88 53.94 244.96 56.86 232.91 59.09 C 232.45 57.14 231.87 55.20 231.90 53.18 Z" />
<path fill="#7404a3" opacity="1.00" d=" M 234.16 70.78 C 247.07 65.31 260.02 59.89 273.06 54.72 C 274.07 56.41 274.76 58.26 275.26 60.16 C 263.54 65.22 251.67 69.91 239.92 74.89 C 238.75 75.42 237.54 75.85 236.26 76.01 C 235.57 74.26 234.86 72.52 234.16 70.78 Z" />
<path fill="#7404a3" opacity="1.00" d=" M 277.51 68.16 C 278.63 69.58 280.10 71.01 280.39 72.85 C 279.81 74.13 278.49 74.72 277.37 75.40 C 266.80 81.45 256.30 87.65 245.70 93.66 C 245.37 93.72 244.72 93.84 244.39 93.90 C 243.50 92.30 242.63 90.71 241.85 89.06 C 253.59 81.86 265.77 75.38 277.51 68.16 Z" />
<path fill="#7404a3" opacity="1.00" d=" M 145.07 109.30 C 161.35 101.03 177.34 92.18 193.73 84.14 C 179.69 95.71 165.89 107.59 151.93 119.26 C 149.36 116.15 147.33 112.63 145.07 109.30 Z" />
<path fill="#7404a3" opacity="1.00" d=" M 88.93 126.45 C 89.51 122.48 90.03 118.49 90.65 114.53 C 103.16 118.23 115.68 121.90 128.12 125.80 C 115.11 126.66 101.99 126.21 88.93 126.45 Z" />
</g>
<g id="#ca64d8ff">
<path fill="#ca64d8" opacity="1.00" d=" M 199.98 6.94 C 204.27 2.39 211.05 1.40 216.98 2.34 C 216.70 2.68 216.14 3.38 215.86 3.72 C 211.11 3.09 205.62 3.48 202.09 7.10 C 199.54 9.55 199.38 14.41 202.60 16.39 C 206.97 18.80 213.96 17.36 215.36 12.03 C 215.79 7.81 208.93 6.55 207.40 10.38 C 206.42 12.88 210.04 12.49 211.10 13.89 C 208.95 14.77 205.57 14.43 204.69 11.95 C 205.59 7.11 212.33 4.94 216.09 8.01 C 218.44 9.39 217.93 12.70 216.41 14.52 C 212.65 19.42 205.02 19.99 199.91 16.99 C 196.38 14.71 197.48 9.59 199.98 6.94 Z" />
<path fill="#ca64d8" opacity="1.00" d=" M 168.14 7.23 C 172.36 3.24 178.60 2.40 184.15 3.18 C 183.96 5.46 181.33 4.21 179.95 4.38 C 174.74 4.06 167.65 6.85 167.73 12.98 C 167.75 16.60 171.49 18.61 174.75 18.37 L 174.69 19.77 C 171.49 19.51 167.58 19.10 165.77 16.04 C 164.31 13.01 165.86 9.40 168.14 7.23 Z" />
<path fill="#ca64d8" opacity="1.00" d=" M 229.49 3.37 C 229.84 3.45 230.54 3.62 230.89 3.70 C 230.56 4.04 229.91 4.71 229.58 5.04 C 234.04 4.88 237.37 11.96 232.50 13.85 C 233.04 14.41 233.59 14.95 234.16 15.47 C 237.19 10.86 245.20 9.61 248.92 14.16 C 252.09 17.52 252.61 22.71 250.90 26.90 C 248.92 32.47 244.43 36.56 239.84 40.05 C 247.49 37.63 255.33 35.79 262.86 33.01 C 263.50 32.77 264.78 32.28 265.42 32.03 C 275.15 48.83 279.67 67.95 284.38 86.61 C 285.37 91.03 286.56 95.41 287.33 99.87 C 282.39 102.92 277.61 106.20 272.67 109.25 C 273.07 103.59 273.67 97.93 274.12 92.27 C 267.45 96.89 259.07 100.50 250.85 98.37 C 242.78 96.28 237.51 88.95 234.33 81.68 C 229.38 70.10 227.48 57.46 226.56 44.98 C 226.92 44.75 227.66 44.29 228.02 44.05 C 230.71 43.06 233.48 42.31 236.22 41.46 C 236.28 40.79 236.34 40.13 236.40 39.46 C 242.33 36.30 247.47 30.76 248.54 23.94 C 249.10 19.42 246.42 13.21 241.03 13.73 C 233.56 14.61 228.70 22.90 230.14 29.98 C 231.07 33.35 235.77 32.92 237.79 30.82 C 239.99 28.90 240.16 25.82 239.73 23.13 C 237.39 22.68 235.25 24.20 232.90 23.89 C 234.80 21.60 237.92 19.79 240.96 20.62 C 243.39 21.67 243.83 24.77 243.08 27.03 C 241.82 32.35 235.39 35.84 230.31 33.60 C 227.77 32.51 226.26 29.73 226.42 27.02 C 226.59 22.53 229.48 18.70 232.76 15.89 C 227.82 16.29 220.91 17.98 217.79 12.93 C 221.48 13.84 225.01 16.42 228.97 15.30 C 231.58 14.76 233.84 11.85 232.83 9.18 C 230.90 5.64 225.68 4.14 222.26 6.41 C 219.69 9.47 224.35 13.05 227.35 11.35 C 227.07 9.87 226.49 8.48 225.93 7.10 C 227.58 7.50 228.93 8.50 229.72 10.03 C 227.61 13.96 220.58 13.78 219.66 9.01 C 220.29 4.33 226.11 4.65 229.49 3.37 M 231.90 53.18 C 231.87 55.20 232.45 57.14 232.91 59.09 C 244.96 56.86 256.88 53.94 268.91 51.58 C 268.67 49.68 268.34 47.79 267.96 45.92 L 267.16 45.76 C 255.39 48.15 243.67 50.80 231.90 53.18 M 234.16 70.78 C 234.86 72.52 235.57 74.26 236.26 76.01 C 237.54 75.85 238.75 75.42 239.92 74.89 C 251.67 69.91 263.54 65.22 275.26 60.16 C 274.76 58.26 274.07 56.41 273.06 54.72 C 260.02 59.89 247.07 65.31 234.16 70.78 M 277.51 68.16 C 265.77 75.38 253.59 81.86 241.85 89.06 C 242.63 90.71 243.50 92.30 244.39 93.90 C 244.72 93.84 245.37 93.72 245.70 93.66 C 256.30 87.65 266.80 81.45 277.37 75.40 C 278.49 74.72 279.81 74.13 280.39 72.85 C 280.10 71.01 278.63 69.58 277.51 68.16 Z" />
<path fill="#ca64d8" opacity="1.00" d=" M 174.39 9.29 C 177.45 6.44 183.63 6.85 185.23 11.07 C 185.62 16.26 179.66 19.95 174.96 19.47 C 175.45 17.33 178.05 18.37 179.42 17.31 C 182.01 16.06 184.65 11.66 181.33 9.74 C 178.94 7.70 174.05 9.65 174.99 13.05 C 176.00 13.66 178.18 13.43 178.08 15.09 C 176.28 15.36 174.26 15.22 172.83 13.96 C 171.36 12.31 173.19 10.41 174.39 9.29 Z" />
<path fill="#ca64d8" opacity="1.00" d=" M 132.53 23.61 C 135.13 18.22 140.06 13.65 145.98 12.30 C 150.53 11.17 154.90 14.54 156.31 18.73 C 158.26 24.14 155.70 29.94 152.29 34.16 C 149.29 37.47 145.79 41.36 141.11 41.88 C 141.17 41.52 141.30 40.80 141.36 40.45 C 146.22 37.80 150.46 33.79 152.62 28.62 C 154.49 24.60 153.98 19.39 150.88 16.13 C 148.24 13.70 144.13 14.39 141.41 16.30 C 136.81 19.13 134.59 24.80 135.07 30.04 C 135.21 32.45 137.83 33.89 140.03 33.15 C 143.91 32.42 146.05 27.75 144.70 24.19 C 142.83 22.62 140.83 25.21 138.78 25.02 C 137.87 23.41 140.22 22.86 141.18 22.16 C 143.54 20.67 147.53 20.82 148.31 24.04 C 150.00 31.09 141.33 37.66 134.99 34.20 C 131.18 32.25 130.82 27.12 132.53 23.61 Z" />
<path fill="#ca64d8" opacity="1.00" d=" M 183.58 19.90 C 182.82 16.65 186.00 14.12 188.99 14.12 C 194.02 13.91 198.05 18.25 199.51 22.74 C 200.14 23.75 199.35 24.63 198.34 24.82 C 197.10 21.66 195.68 18.28 192.70 16.35 C 190.87 15.11 188.07 14.49 186.31 16.19 C 183.90 20.45 187.62 27.48 192.77 26.78 C 195.68 24.74 193.09 20.63 190.29 20.00 C 190.10 21.34 189.91 22.68 189.72 24.02 C 187.32 23.62 187.72 19.70 189.96 19.37 C 194.22 17.89 198.19 24.57 194.14 27.15 C 189.27 30.15 184.11 24.57 183.58 19.90 Z" />
<path fill="#ca64d8" opacity="1.00" d=" M 163.31 18.39 C 163.83 18.28 164.86 18.06 165.38 17.95 C 162.84 21.38 159.42 24.50 158.89 29.01 C 157.82 33.01 160.83 38.96 165.60 37.62 C 170.46 35.43 173.66 28.32 169.93 23.82 C 165.79 21.71 163.11 27.89 165.02 31.04 C 166.61 30.86 167.82 29.30 169.51 29.74 C 168.53 32.07 164.15 34.42 162.62 31.35 C 160.18 26.68 165.15 21.24 169.98 21.92 C 173.66 22.83 174.66 27.46 173.57 30.65 C 172.12 34.67 168.88 38.33 164.67 39.49 C 160.23 40.60 156.45 36.10 156.38 31.97 C 156.35 26.69 159.27 21.66 163.31 18.39 Z" />
<path fill="#ca64d8" opacity="1.00" d=" M 207.42 28.22 C 208.84 24.10 211.33 18.58 216.10 17.98 C 212.88 21.67 209.17 25.70 209.32 30.97 C 209.15 34.65 212.54 39.12 216.55 37.47 C 221.05 35.12 224.03 28.58 220.77 24.11 C 216.85 21.11 213.01 28.32 216.04 31.14 C 217.16 30.52 218.29 29.89 219.42 29.28 C 220.74 31.27 217.88 31.80 216.64 32.60 C 213.91 33.92 212.12 30.33 212.65 28.07 C 212.84 23.08 220.80 19.25 223.63 24.28 C 226.73 30.55 221.04 38.09 214.86 39.55 C 208.99 40.43 205.50 33.12 207.42 28.22 Z" />
<path fill="#ca64d8" opacity="1.00" d=" M 117.64 37.73 C 119.30 34.63 121.35 30.72 125.11 29.99 C 123.48 33.20 120.07 35.41 119.25 39.16 C 117.31 43.34 119.49 50.66 125.02 49.87 C 130.20 48.08 133.57 40.60 129.84 36.03 C 125.71 33.78 122.91 40.07 124.95 43.22 C 126.43 42.74 127.80 41.70 129.43 41.83 C 128.36 44.14 124.20 46.56 122.54 43.60 C 119.80 38.69 125.67 32.59 130.68 34.36 C 134.69 36.40 134.49 42.06 132.26 45.37 C 129.94 49.11 125.45 53.16 120.76 51.28 C 115.74 48.89 115.31 42.19 117.64 37.73 Z" />
<path fill="#ca64d8" opacity="1.00" d=" M 169.68 39.62 C 174.06 33.66 182.37 31.69 189.30 33.52 C 192.17 34.22 194.47 36.33 195.49 39.08 C 197.31 36.25 200.58 34.13 204.05 35.37 C 208.29 36.73 212.67 41.25 211.79 45.86 C 210.25 45.50 210.13 43.76 209.48 42.59 C 208.12 39.52 205.50 36.55 201.99 36.15 C 200.20 35.80 198.30 37.10 198.17 38.95 C 197.56 42.94 200.48 47.99 204.88 47.88 C 208.40 46.45 205.87 41.66 202.98 41.06 C 202.50 42.25 202.38 43.51 202.61 44.83 C 200.22 45.32 199.97 41.41 201.84 40.62 C 205.13 38.93 209.14 42.52 208.30 46.00 C 207.21 49.26 202.73 49.88 200.28 47.79 C 198.23 46.62 197.70 44.03 195.86 42.72 C 193.41 53.87 180.19 58.35 170.02 56.80 C 170.30 56.39 170.86 55.58 171.15 55.17 C 177.82 55.42 185.32 54.27 189.94 48.96 C 193.33 45.21 193.13 38.15 188.26 35.75 C 181.81 32.99 172.06 36.25 171.30 44.04 C 171.71 50.07 181.85 49.90 182.56 43.99 C 182.74 40.59 178.28 42.42 177.00 40.28 C 179.98 38.62 186.79 39.32 185.80 44.03 C 183.86 50.42 174.61 52.83 169.71 48.33 C 167.27 46.05 167.72 42.06 169.68 39.62 Z" />
<path fill="#ca64d8" opacity="1.00" d=" M 149.76 48.74 C 151.33 46.48 153.04 43.73 155.91 43.10 C 155.57 45.62 152.66 46.70 151.76 49.02 C 149.05 53.12 148.28 59.98 153.20 62.74 C 159.90 64.65 165.16 54.15 160.81 49.21 C 157.04 47.01 154.31 52.47 155.48 55.59 C 157.10 57.22 158.56 54.45 160.39 54.87 C 159.53 57.68 154.18 59.86 153.19 56.01 C 150.89 50.57 159.05 44.24 163.29 48.75 C 166.70 53.05 163.88 59.12 160.15 62.23 C 157.55 64.89 152.75 66.21 149.90 63.18 C 145.80 59.38 147.05 52.97 149.76 48.74 Z" />
<path fill="#ca64d8" opacity="1.00" d=" M 130.02 52.90 C 135.10 50.12 140.94 54.22 142.97 58.96 C 143.38 60.16 144.75 62.05 142.91 62.87 C 141.24 60.56 140.65 57.55 138.45 55.59 C 136.53 53.50 132.70 51.83 130.37 54.21 C 128.16 58.45 131.72 65.21 136.76 64.72 C 139.94 62.84 137.25 58.37 134.30 57.93 C 134.30 59.29 134.16 60.64 133.89 61.97 C 131.64 61.40 131.73 57.88 133.91 57.32 C 137.61 55.88 141.68 60.87 139.25 64.12 C 136.87 67.24 132.05 65.88 130.08 62.99 C 127.70 60.32 126.16 54.97 130.02 52.90 Z" />
<path fill="#ca64d8" opacity="1.00" d=" M 106.40 63.26 C 108.74 55.88 117.99 53.51 124.85 54.89 L 125.09 56.09 C 120.29 55.85 114.85 55.65 111.05 59.13 C 108.07 61.47 107.66 66.85 111.16 68.90 C 115.60 71.41 123.06 69.64 123.86 63.98 C 123.46 59.44 116.10 59.52 115.42 64.02 C 116.67 64.78 117.97 65.45 119.32 66.03 C 117.57 67.74 113.40 66.64 113.23 64.04 C 114.59 58.99 122.16 57.28 125.51 61.37 C 127.39 63.97 125.20 67.25 123.03 68.88 C 119.37 71.88 114.35 71.38 110.00 70.70 C 111.28 72.10 113.17 73.19 113.77 75.09 C 114.53 77.63 112.46 79.70 111.42 81.79 C 110.18 82.18 108.95 82.56 107.72 82.93 C 104.19 82.25 98.55 82.98 96.98 78.92 C 101.38 80.58 107.48 83.82 111.20 79.22 C 115.40 73.18 102.99 67.99 100.53 73.94 C 100.29 76.96 103.85 78.52 106.36 77.38 C 106.10 75.88 105.50 74.47 104.96 73.06 C 106.56 73.68 109.21 74.80 108.18 77.02 C 105.47 79.93 99.52 79.42 98.69 75.05 C 99.43 70.47 105.29 69.89 109.00 70.50 C 107.27 68.53 105.26 66.06 106.40 63.26 Z" />
</g>
<g id="#ff9100ff">
<path fill="#ff9100" opacity="1.00" d=" M 111.42 81.79 C 150.28 69.19 189.24 56.87 228.02 44.05 C 227.66 44.29 226.92 44.75 226.56 44.98 C 227.48 57.46 229.38 70.10 234.33 81.68 C 237.51 88.95 242.78 96.28 250.85 98.37 C 259.07 100.50 267.45 96.89 274.12 92.27 C 273.67 97.93 273.07 103.59 272.67 109.25 C 277.61 106.20 282.39 102.92 287.33 99.87 C 286.56 95.41 285.37 91.03 284.38 86.61 C 287.73 80.54 291.62 74.37 297.55 70.53 C 302.16 67.48 308.66 67.54 313.01 71.05 C 316.95 74.23 318.63 79.33 319.44 84.16 C 320.71 92.73 319.78 101.47 318.11 109.92 C 316.47 119.19 311.87 127.71 306.05 135.01 C 303.87 132.62 301.52 130.36 299.66 127.70 C 302.59 126.83 305.65 124.41 305.20 120.99 C 304.95 118.38 302.59 116.91 300.58 115.66 C 303.16 114.60 305.71 113.46 308.19 112.17 C 304.46 113.14 300.63 113.78 297.04 115.20 C 299.64 117.06 302.58 118.98 303.75 122.11 C 304.34 125.24 300.36 126.34 297.97 126.53 C 291.91 127.00 284.05 122.95 284.41 116.06 C 285.81 108.96 292.37 103.97 299.00 101.96 C 305.36 99.89 312.11 101.07 318.37 102.88 C 308.90 97.09 295.50 98.78 287.75 106.71 C 283.88 110.65 281.73 117.14 284.71 122.19 C 287.67 127.06 293.98 128.36 299.28 127.86 C 297.94 131.45 295.90 134.72 294.45 138.25 C 295.09 139.97 297.05 140.91 298.29 142.22 C 295.51 143.78 292.47 144.90 289.24 144.88 C 291.69 155.06 293.15 166.41 288.41 176.17 C 284.60 184.20 276.04 188.93 267.43 189.79 C 268.84 207.28 270.21 224.78 271.65 242.27 C 274.56 242.28 277.48 242.18 280.39 242.41 C 275.32 250.11 269.80 257.64 262.89 263.81 C 258.77 267.34 253.71 270.71 248.03 270.22 C 243.62 269.94 239.79 266.88 237.89 262.99 C 234.78 256.87 234.52 249.81 234.73 243.08 C 228.31 233.78 221.81 224.54 215.32 215.29 C 195.48 222.85 175.08 229.11 154.21 233.10 C 140.95 235.40 127.28 237.24 113.90 234.91 C 106.40 233.57 98.54 230.23 94.54 223.39 C 90.25 215.73 88.34 207.02 86.74 198.47 C 83.61 180.20 83.04 161.56 83.93 143.07 C 84.89 124.48 87.53 105.95 92.27 87.93 C 97.43 86.33 102.60 84.69 107.72 82.93 C 108.95 82.56 110.18 82.18 111.42 81.79 M 145.07 109.30 C 147.33 112.63 149.36 116.15 151.93 119.26 C 165.89 107.59 179.69 95.71 193.73 84.14 C 177.34 92.18 161.35 101.03 145.07 109.30 M 182.45 109.65 C 173.58 111.01 164.83 115.04 158.92 121.93 C 156.39 124.95 154.41 129.16 155.83 133.12 C 157.18 136.95 161.29 138.88 165.05 139.53 C 174.35 140.91 183.90 137.90 191.58 132.70 C 195.58 129.80 199.49 126.09 200.79 121.15 C 201.73 117.89 200.46 114.19 197.68 112.24 C 193.31 109.11 187.58 109.06 182.45 109.65 M 88.93 126.45 C 101.99 126.21 115.11 126.66 128.12 125.80 C 115.68 121.90 103.16 118.23 90.65 114.53 C 90.03 118.49 89.51 122.48 88.93 126.45 M 140.09 120.37 C 139.54 136.23 141.60 152.70 149.43 166.75 C 145.87 167.87 141.26 169.67 140.84 173.96 C 140.43 178.36 145.17 180.82 149.00 180.65 C 160.36 180.50 170.67 174.85 180.14 169.08 C 181.47 172.60 182.68 176.18 183.94 179.72 C 194.19 178.38 205.19 175.83 212.68 168.19 L 212.07 168.90 C 213.71 170.85 215.36 172.80 217.01 174.75 C 217.33 175.14 217.98 175.92 218.30 176.31 C 222.55 181.34 226.79 186.38 231.04 191.43 C 227.42 192.70 223.63 193.33 219.84 193.81 L 219.74 195.69 C 228.07 195.18 236.61 192.60 243.06 187.13 C 248.34 182.72 251.22 175.85 251.12 169.02 C 251.03 159.11 247.34 148.78 239.51 142.38 C 231.75 135.99 221.18 133.35 211.28 134.38 C 216.47 143.17 219.31 155.19 213.24 164.26 C 206.97 173.00 195.76 175.92 185.68 177.48 C 183.81 174.76 183.30 171.03 181.88 167.95 C 185.57 165.02 189.51 162.37 192.93 159.11 C 189.97 154.18 186.25 148.18 179.99 147.51 C 174.24 147.62 171.83 153.80 170.23 158.38 C 171.53 158.79 172.84 159.19 174.14 159.58 C 175.39 156.64 176.26 152.21 179.94 151.55 C 183.57 152.14 185.63 155.65 187.77 158.28 C 177.43 166.81 165.50 174.44 152.01 176.46 C 149.61 176.55 145.20 177.34 144.80 174.00 C 147.40 170.55 152.27 170.34 156.18 169.63 C 146.01 155.54 143.56 137.51 144.18 120.55 C 142.82 120.44 141.46 120.38 140.09 120.37 M 108.31 129.47 C 100.76 131.46 93.38 137.00 91.80 145.00 C 90.62 150.65 93.79 156.50 98.68 159.31 C 107.40 164.48 119.07 162.97 127.01 156.98 C 131.32 153.72 134.68 148.64 134.49 143.06 C 134.40 138.33 131.42 134.03 127.44 131.65 C 121.76 128.19 114.63 127.78 108.31 129.47 Z" />
<path fill="#ff9100" opacity="1.00" d=" M 198.90 304.84 C 208.44 298.82 221.82 298.03 231.19 304.81 C 240.06 311.05 245.27 320.91 249.84 330.46 C 251.21 328.46 252.55 326.44 253.95 324.47 C 261.65 333.56 265.87 345.91 263.95 357.80 C 262.54 358.47 261.14 359.16 259.75 359.85 C 257.46 349.68 254.97 339.37 250.35 329.99 L 249.06 331.18 C 252.99 341.40 256.43 351.88 258.12 362.73 C 269.17 357.65 279.90 351.85 290.75 346.34 L 289.89 344.62 C 287.75 345.64 285.64 346.70 283.56 347.83 C 285.50 334.35 277.87 321.73 268.53 312.69 C 273.41 312.10 277.66 315.17 280.36 318.96 C 285.06 325.74 287.58 333.74 289.45 341.69 C 294.26 343.94 299.13 346.08 303.97 348.25 C 296.40 360.19 285.23 370.26 271.58 374.56 C 261.98 377.53 250.98 379.01 241.71 374.25 C 232.69 369.65 227.04 360.56 223.45 351.41 C 218.82 339.23 216.78 326.17 216.30 313.19 C 205.28 317.84 194.41 322.87 183.31 327.32 C 186.18 318.56 190.93 309.90 198.90 304.84 Z" />
<path fill="#ff9100" opacity="1.00" d=" M 260.76 316.91 C 262.58 315.46 264.59 314.29 266.65 313.24 C 270.15 317.79 274.41 321.79 277.09 326.96 C 280.51 333.04 282.52 340.14 281.60 347.15 C 281.49 350.29 277.32 350.39 275.35 352.00 C 277.40 338.63 269.93 325.99 260.76 316.91 Z" />
<path fill="#ff9100" opacity="1.00" d=" M 187.74 327.76 C 196.63 323.95 205.49 320.05 214.37 316.21 C 214.81 322.42 215.42 328.62 216.67 334.73 C 202.66 348.68 187.73 362.27 169.99 371.29 C 162.42 375.00 153.36 377.25 145.29 373.73 C 136.31 370.16 131.75 360.47 130.50 351.41 C 147.17 344.48 163.51 336.81 180.14 329.81 C 180.92 329.53 181.73 329.33 182.55 329.21 C 184.42 329.49 186.08 328.43 187.74 327.76 Z" />
<path fill="#ff9100" opacity="1.00" d=" M 255.23 322.83 C 256.55 321.26 257.89 319.71 259.33 318.24 C 268.07 327.33 275.93 339.84 273.00 352.97 C 270.93 354.52 268.43 355.37 266.21 356.67 C 267.59 344.47 263.25 332.01 255.23 322.83 Z" />
</g>
<g id="#081133ff">
<path fill="#081133" opacity="1.00" d=" M 287.75 106.71 C 295.50 98.78 308.90 97.09 318.37 102.88 C 312.11 101.07 305.36 99.89 299.00 101.96 C 292.37 103.97 285.81 108.96 284.41 116.06 C 284.05 122.95 291.91 127.00 297.97 126.53 C 300.36 126.34 304.34 125.24 303.75 122.11 C 302.58 118.98 299.64 117.06 297.04 115.20 C 300.63 113.78 304.46 113.14 308.19 112.17 C 305.71 113.46 303.16 114.60 300.58 115.66 C 302.59 116.91 304.95 118.38 305.20 120.99 C 305.65 124.41 302.59 126.83 299.66 127.70 L 299.28 127.86 C 293.98 128.36 287.67 127.06 284.71 122.19 C 281.73 117.14 283.88 110.65 287.75 106.71 Z" />
<path fill="#081133" opacity="1.00" d=" M 183.36 117.34 C 185.43 115.52 189.13 116.39 190.07 119.01 C 191.47 122.02 188.16 125.43 185.09 124.50 C 181.85 123.93 180.70 119.29 183.36 117.34 Z" />
<path fill="#081133" opacity="1.00" d=" M 140.09 120.37 C 141.46 120.38 142.82 120.44 144.18 120.55 C 143.56 137.51 146.01 155.54 156.18 169.63 C 152.27 170.34 147.40 170.55 144.80 174.00 C 145.20 177.34 149.61 176.55 152.01 176.46 C 165.50 174.44 177.43 166.81 187.77 158.28 C 185.63 155.65 183.57 152.14 179.94 151.55 C 176.26 152.21 175.39 156.64 174.14 159.58 C 172.84 159.19 171.53 158.79 170.23 158.38 C 171.83 153.80 174.24 147.62 179.99 147.51 C 186.25 148.18 189.97 154.18 192.93 159.11 C 189.51 162.37 185.57 165.02 181.88 167.95 C 183.30 171.03 183.81 174.76 185.68 177.48 C 195.76 175.92 206.97 173.00 213.24 164.26 C 219.31 155.19 216.47 143.17 211.28 134.38 C 221.18 133.35 231.75 135.99 239.51 142.38 C 247.34 148.78 251.03 159.11 251.12 169.02 C 251.22 175.85 248.34 182.72 243.06 187.13 C 236.61 192.60 228.07 195.18 219.74 195.69 L 219.84 193.81 C 223.63 193.33 227.42 192.70 231.04 191.43 C 234.51 190.35 237.69 188.57 240.73 186.60 C 234.70 181.24 228.63 175.94 222.51 170.68 C 221.22 172.64 219.81 174.52 218.30 176.31 C 217.98 175.92 217.33 175.14 217.01 174.75 C 218.43 172.99 219.74 171.14 220.96 169.24 C 219.14 167.68 217.33 166.11 215.53 164.53 C 214.61 165.78 213.69 167.02 212.68 168.19 C 205.19 175.83 194.19 178.38 183.94 179.72 C 182.68 176.18 181.47 172.60 180.14 169.08 C 170.67 174.85 160.36 180.50 149.00 180.65 C 145.17 180.82 140.43 178.36 140.84 173.96 C 141.26 169.67 145.87 167.87 149.43 166.75 C 141.60 152.70 139.54 136.23 140.09 120.37 M 214.59 136.08 C 215.62 138.30 216.55 140.57 217.24 142.92 C 220.82 144.35 224.57 145.30 228.25 146.45 C 227.79 143.41 227.41 140.07 225.49 137.55 C 221.96 136.49 218.25 136.23 214.59 136.08 M 228.29 138.22 C 229.52 141.02 230.07 144.04 230.35 147.07 C 235.11 148.67 239.95 150.02 244.73 151.59 C 240.99 145.37 235.05 140.75 228.29 138.22 M 218.84 153.72 C 221.50 154.99 224.01 156.57 226.78 157.60 C 227.47 154.67 228.08 151.72 228.31 148.72 C 224.99 147.42 221.51 146.63 218.17 145.39 C 218.24 148.18 218.78 150.93 218.84 153.72 M 228.62 158.83 C 235.53 162.20 242.29 165.89 249.15 169.36 C 249.12 164.12 247.93 158.94 245.92 154.11 C 240.78 152.36 235.53 150.96 230.42 149.15 C 230.11 152.43 229.38 155.64 228.62 158.83 M 218.50 155.96 C 218.14 158.36 217.27 160.62 216.65 162.96 C 218.52 164.40 220.26 166.00 222.06 167.53 C 223.54 164.96 225.00 162.35 225.87 159.51 C 223.37 158.41 221.05 156.93 218.50 155.96 M 223.68 168.95 C 230.02 174.25 235.92 180.18 242.57 185.06 C 246.03 181.34 248.83 176.59 248.82 171.38 C 241.76 167.95 234.86 164.21 227.89 160.63 C 226.59 163.46 225.26 166.27 223.68 168.95 Z" />
<path fill="#081133" opacity="1.00" d=" M 120.32 136.39 C 124.16 133.86 130.02 137.25 129.37 141.92 C 129.05 146.57 122.74 148.83 119.43 145.66 C 116.43 143.30 116.97 138.16 120.32 136.39 Z" />
<path fill="#081133" opacity="1.00" d=" M 127.37 317.41 C 144.57 290.89 169.83 270.10 198.30 256.64 C 192.28 281.03 186.33 305.45 180.14 329.81 C 163.51 336.81 147.17 344.48 130.50 351.41 C 123.05 354.71 115.57 357.93 108.08 361.14 C 111.71 345.52 118.76 330.87 127.37 317.41 Z" />
<path fill="#081133" opacity="1.00" d=" M 328.77 258.77 C 341.05 268.24 348.69 282.83 351.07 298.02 C 354.81 320.88 349.83 344.04 343.36 365.93 C 335.50 362.64 327.80 358.99 319.99 355.59 C 315.22 353.43 310.43 351.30 305.65 349.17 C 297.50 362.61 284.51 373.46 269.12 377.39 C 258.82 380.19 246.89 380.68 237.81 374.20 C 225.06 365.18 219.66 349.41 216.67 334.73 C 215.42 328.62 214.81 322.42 214.37 316.21 C 205.49 320.05 196.63 323.95 187.74 327.76 C 186.08 328.43 184.42 329.49 182.55 329.21 C 182.74 328.74 183.12 327.79 183.31 327.32 C 194.41 322.87 205.28 317.84 216.30 313.19 C 216.78 326.17 218.82 339.23 223.45 351.41 C 227.04 360.56 232.69 369.65 241.71 374.25 C 250.98 379.01 261.98 377.53 271.58 374.56 C 285.23 370.26 296.40 360.19 303.97 348.25 C 299.13 346.08 294.26 343.94 289.45 341.69 C 287.58 333.74 285.06 325.74 280.36 318.96 C 296.42 298.84 312.75 278.93 328.77 258.77 Z" />
<path fill="#081133" opacity="1.00" d=" M 266.65 313.24 C 267.12 313.11 268.06 312.83 268.53 312.69 C 277.87 321.73 285.50 334.35 283.56 347.83 C 285.64 346.70 287.75 345.64 289.89 344.62 L 290.75 346.34 C 279.90 351.85 269.17 357.65 258.12 362.73 C 256.43 351.88 252.99 341.40 249.06 331.18 L 250.35 329.99 C 254.97 339.37 257.46 349.68 259.75 359.85 C 261.14 359.16 262.54 358.47 263.95 357.80 C 265.87 345.91 261.65 333.56 253.95 324.47 C 254.36 323.90 254.79 323.36 255.23 322.83 C 263.25 332.01 267.59 344.47 266.21 356.67 C 268.43 355.37 270.93 354.52 273.00 352.97 C 275.93 339.84 268.07 327.33 259.33 318.24 C 259.68 317.91 260.40 317.24 260.76 316.91 C 269.93 325.99 277.40 338.63 275.35 352.00 C 277.32 350.39 281.49 350.29 281.60 347.15 C 282.52 340.14 280.51 333.04 277.09 326.96 C 274.41 321.79 270.15 317.79 266.65 313.24 Z" />
<path fill="#081133" opacity="1.00" d=" M 149.50 389.68 C 159.67 387.41 171.03 388.24 179.87 394.15 C 187.57 399.19 192.37 407.87 193.68 416.87 C 195.61 429.62 191.95 442.63 185.78 453.76 C 177.90 467.72 165.87 479.46 151.36 486.40 C 141.94 490.87 131.24 493.31 120.83 491.60 C 112.38 490.23 104.33 485.63 99.57 478.41 C 93.23 469.30 92.28 457.46 94.38 446.82 C 97.51 431.10 106.57 416.97 118.37 406.31 C 127.18 398.36 137.85 392.26 149.50 389.68 Z" />
<path fill="#081133" opacity="1.00" d=" M 339.33 389.52 C 351.79 386.71 364.84 390.14 375.83 396.18 C 390.91 404.62 403.15 418.13 409.98 434.02 C 414.71 445.24 416.76 458.18 412.92 469.97 C 410.27 478.30 404.12 485.54 396.04 489.01 C 386.17 493.46 374.73 492.78 364.63 489.48 C 348.95 484.28 335.58 473.24 326.25 459.74 C 318.71 448.69 313.69 435.48 314.13 421.96 C 314.39 413.12 317.58 404.18 323.91 397.87 C 328.09 393.64 333.58 390.88 339.33 389.52 Z" />
<path fill="#081133" opacity="1.00" d=" M 259.44 469.62 C 259.50 445.28 259.31 420.92 259.54 396.58 C 261.51 396.61 263.50 396.62 265.48 396.63 C 265.54 420.93 265.42 445.23 265.54 469.53 C 263.51 469.66 261.47 469.66 259.44 469.62 Z" />
<path fill="#081133" opacity="1.00" d=" M 212.26 403.48 C 214.32 403.55 216.32 404.10 218.32 404.58 C 213.82 426.86 209.21 449.13 204.87 471.44 C 202.82 471.17 200.73 470.98 198.82 470.15 C 203.37 447.94 207.92 425.73 212.26 403.48 Z" />
<path fill="#081133" opacity="1.00" d=" M 240.14 403.66 C 242.11 403.78 244.07 404.01 246.03 404.26 C 243.64 426.65 240.49 448.98 237.82 471.35 C 235.89 471.12 233.95 470.89 232.02 470.70 C 234.26 448.33 237.57 426.02 240.14 403.66 Z" />
<path fill="#081133" opacity="1.00" d=" M 279.53 404.51 C 281.51 404.01 283.54 403.75 285.57 403.52 C 288.83 425.81 291.99 448.12 295.34 470.40 C 293.42 470.86 291.47 471.14 289.53 471.47 C 285.78 449.23 283.04 426.80 279.53 404.51 Z" />
<path fill="#081133" opacity="1.00" d=" M 50.44 494.23 C 51.60 494.20 52.76 494.19 53.92 494.19 C 188.66 494.71 323.41 495.28 458.15 495.79 C 459.29 495.79 460.43 495.80 461.57 495.81 C 461.67 501.21 461.58 506.60 461.53 512.00 L 363.13 512.00 C 360.82 511.31 358.41 511.52 356.04 511.53 C 254.21 511.21 152.38 510.61 50.55 510.40 C 50.15 505.02 50.47 499.62 50.44 494.23 Z" />
</g>
<g id="#f7e7c6ff">
<path fill="#f7e7c6" opacity="1.00" d=" M 182.45 109.65 C 187.58 109.06 193.31 109.11 197.68 112.24 C 200.46 114.19 201.73 117.89 200.79 121.15 C 199.49 126.09 195.58 129.80 191.58 132.70 C 183.90 137.90 174.35 140.91 165.05 139.53 C 161.29 138.88 157.18 136.95 155.83 133.12 C 154.41 129.16 156.39 124.95 158.92 121.93 C 164.83 115.04 173.58 111.01 182.45 109.65 M 183.36 117.34 C 180.70 119.29 181.85 123.93 185.09 124.50 C 188.16 125.43 191.47 122.02 190.07 119.01 C 189.13 116.39 185.43 115.52 183.36 117.34 Z" />
<path fill="#f7e7c6" opacity="1.00" d=" M 108.31 129.47 C 114.63 127.78 121.76 128.19 127.44 131.65 C 131.42 134.03 134.40 138.33 134.49 143.06 C 134.68 148.64 131.32 153.72 127.01 156.98 C 119.07 162.97 107.40 164.48 98.68 159.31 C 93.79 156.50 90.62 150.65 91.80 145.00 C 93.38 137.00 100.76 131.46 108.31 129.47 M 120.32 136.39 C 116.97 138.16 116.43 143.30 119.43 145.66 C 122.74 148.83 129.05 146.57 129.37 141.92 C 130.02 137.25 124.16 133.86 120.32 136.39 Z" />
<path fill="#f7e7c6" opacity="1.00" d=" M 214.59 136.08 C 218.25 136.23 221.96 136.49 225.49 137.55 C 227.41 140.07 227.79 143.41 228.25 146.45 C 224.57 145.30 220.82 144.35 217.24 142.92 C 216.55 140.57 215.62 138.30 214.59 136.08 Z" />
<path fill="#f7e7c6" opacity="1.00" d=" M 228.29 138.22 C 235.05 140.75 240.99 145.37 244.73 151.59 C 239.95 150.02 235.11 148.67 230.35 147.07 C 230.07 144.04 229.52 141.02 228.29 138.22 Z" />
<path fill="#f7e7c6" opacity="1.00" d=" M 218.84 153.72 C 218.78 150.93 218.24 148.18 218.17 145.39 C 221.51 146.63 224.99 147.42 228.31 148.72 C 228.08 151.72 227.47 154.67 226.78 157.60 C 224.01 156.57 221.50 154.99 218.84 153.72 Z" />
<path fill="#f7e7c6" opacity="1.00" d=" M 228.62 158.83 C 229.38 155.64 230.11 152.43 230.42 149.15 C 235.53 150.96 240.78 152.36 245.92 154.11 C 247.93 158.94 249.12 164.12 249.15 169.36 C 242.29 165.89 235.53 162.20 228.62 158.83 Z" />
<path fill="#f7e7c6" opacity="1.00" d=" M 218.50 155.96 C 221.05 156.93 223.37 158.41 225.87 159.51 C 225.00 162.35 223.54 164.96 222.06 167.53 C 220.26 166.00 218.52 164.40 216.65 162.96 C 217.27 160.62 218.14 158.36 218.50 155.96 Z" />
<path fill="#f7e7c6" opacity="1.00" d=" M 223.68 168.95 C 225.26 166.27 226.59 163.46 227.89 160.63 C 234.86 164.21 241.76 167.95 248.82 171.38 C 248.83 176.59 246.03 181.34 242.57 185.06 C 235.92 180.18 230.02 174.25 223.68 168.95 Z" />
<path fill="#f7e7c6" opacity="1.00" d=" M 215.53 164.53 C 217.33 166.11 219.14 167.68 220.96 169.24 C 219.74 171.14 218.43 172.99 217.01 174.75 C 215.36 172.80 213.71 170.85 212.07 168.90 L 212.68 168.19 C 213.69 167.02 214.61 165.78 215.53 164.53 Z" />
<path fill="#f7e7c6" opacity="1.00" d=" M 222.51 170.68 C 228.63 175.94 234.70 181.24 240.73 186.60 C 237.69 188.57 234.51 190.35 231.04 191.43 C 226.79 186.38 222.55 181.34 218.30 176.31 C 219.81 174.52 221.22 172.64 222.51 170.68 Z" />
<path fill="#f7e7c6" opacity="1.00" d=" M 218.53 248.64 C 223.60 245.96 229.34 244.95 234.73 243.08 C 234.52 249.81 234.78 256.87 237.89 262.99 C 239.79 266.88 243.62 269.94 248.03 270.22 C 253.71 270.71 258.77 267.34 262.89 263.81 C 269.80 257.64 275.32 250.11 280.39 242.41 C 297.49 243.65 315.06 248.00 328.77 258.77 C 312.75 278.93 296.42 298.84 280.36 318.96 C 277.66 315.17 273.41 312.10 268.53 312.69 C 268.06 312.83 267.12 313.11 266.65 313.24 C 264.59 314.29 262.58 315.46 260.76 316.91 C 260.40 317.24 259.68 317.91 259.33 318.24 C 257.89 319.71 256.55 321.26 255.23 322.83 C 254.79 323.36 254.36 323.90 253.95 324.47 C 252.55 326.44 251.21 328.46 249.84 330.46 C 245.27 320.91 240.06 311.05 231.19 304.81 C 221.82 298.03 208.44 298.82 198.90 304.84 C 190.93 309.90 186.18 318.56 183.31 327.32 C 183.12 327.79 182.74 328.74 182.55 329.21 C 181.73 329.33 180.92 329.53 180.14 329.81 C 186.33 305.45 192.28 281.03 198.30 256.64 C 204.55 253.52 211.15 251.20 217.53 248.38 C 217.48 249.69 217.46 251.00 217.45 252.31 C 219.33 252.47 221.20 252.71 223.07 253.01 C 223.27 252.08 223.49 251.17 223.72 250.26 C 221.99 249.79 219.98 249.82 218.53 248.64 M 303.19 248.05 C 302.76 248.90 302.34 249.76 301.92 250.62 C 303.53 251.64 305.12 252.69 306.71 253.76 C 307.14 253.25 308.00 252.23 308.43 251.72 C 307.31 249.80 304.98 249.15 303.19 248.05 M 299.38 253.90 C 298.23 255.48 297.10 257.07 296.01 258.69 C 297.59 259.90 299.19 261.09 300.84 262.21 C 302.05 260.56 303.42 259.00 304.32 257.14 C 302.69 256.03 301.16 254.76 299.38 253.90 M 216.43 262.62 C 218.44 262.71 220.47 262.73 222.50 262.69 C 222.58 260.77 222.68 258.86 222.77 256.95 C 220.77 256.65 218.75 256.48 216.73 256.46 C 216.62 258.51 216.52 260.56 216.43 262.62 M 293.31 261.92 C 292.17 263.48 290.62 264.79 289.90 266.62 C 291.29 267.75 292.65 268.92 293.98 270.13 C 295.76 268.97 297.06 267.17 298.07 265.32 C 296.50 264.16 295.05 262.83 293.31 261.92 M 216.49 266.89 C 216.58 269.00 216.76 271.11 217.01 273.22 C 218.95 272.97 220.90 272.73 222.85 272.53 C 222.96 270.56 222.73 268.61 222.51 266.66 C 220.50 266.72 218.49 266.79 216.49 266.89 M 282.96 273.75 C 284.36 275.11 285.73 276.49 287.11 277.87 C 288.49 276.30 290.40 275.10 291.28 273.15 C 289.83 271.91 288.43 270.62 287.02 269.34 C 285.62 270.76 284.13 272.12 282.96 273.75 M 218.07 277.36 C 218.01 279.61 218.94 281.69 219.70 283.77 C 221.47 283.07 223.25 282.38 225.03 281.71 C 224.73 279.97 224.31 278.26 223.90 276.55 C 221.94 276.17 220.00 277.11 218.07 277.36 M 275.66 280.12 C 276.74 281.86 278.10 283.39 279.50 284.88 C 281.01 283.53 282.52 282.18 284.04 280.84 C 282.83 279.23 281.40 277.81 280.00 276.37 C 278.55 277.62 277.11 278.88 275.66 280.12 M 267.87 285.97 C 268.63 287.81 269.74 289.48 270.98 291.04 C 272.64 289.90 274.33 288.79 276.01 287.67 C 275.04 285.98 273.82 284.46 272.68 282.90 C 270.83 283.50 269.38 284.81 267.87 285.97 M 221.75 287.89 C 222.71 289.77 224.05 291.41 225.36 293.07 C 227.30 292.33 228.49 290.48 229.91 289.06 C 228.86 287.70 227.87 286.31 226.85 284.93 C 225.09 285.81 223.34 286.72 221.75 287.89 M 259.16 290.76 C 259.96 292.48 260.71 294.24 261.40 296.01 C 263.42 295.29 265.55 294.56 267.13 293.06 C 266.20 291.43 265.33 289.78 264.45 288.14 C 262.63 288.89 260.77 289.59 259.16 290.76 M 229.44 296.22 C 231.38 297.49 233.55 298.37 235.76 299.08 C 236.35 297.15 236.87 295.20 237.28 293.23 C 235.74 292.67 234.24 292.00 232.79 291.26 C 231.48 292.77 230.50 294.53 229.44 296.22 M 250.12 293.39 C 250.46 295.36 250.82 297.32 251.20 299.29 C 253.28 298.89 255.35 298.38 257.40 297.80 C 256.91 295.86 256.31 293.95 255.67 292.07 C 253.81 292.46 251.96 292.91 250.12 293.39 M 240.88 293.93 C 240.61 295.94 240.41 297.97 240.36 300.00 C 242.53 300.07 244.71 300.06 246.89 299.94 C 246.72 298.03 246.58 296.12 246.50 294.20 C 244.63 293.96 242.75 293.90 240.88 293.93 Z" />
<path fill="#f7e7c6" opacity="1.00" d=" M 216.67 334.73 C 219.66 349.41 225.06 365.18 237.81 374.20 C 246.89 380.68 258.82 380.19 269.12 377.39 C 284.51 373.46 297.50 362.61 305.65 349.17 C 310.43 351.30 315.22 353.43 319.99 355.59 C 320.58 365.26 321.22 374.93 321.82 384.60 C 270.22 384.11 218.63 383.60 167.03 383.08 C 168.02 379.15 168.94 375.20 169.99 371.29 C 187.73 362.27 202.66 348.68 216.67 334.73 Z" />
</g>
<g id="#ffc000ff">
<path fill="#ffc000" opacity="1.00" d=" M 299.28 127.86 L 299.66 127.70 C 301.52 130.36 303.87 132.62 306.05 135.01 C 306.57 135.59 307.09 136.18 307.61 136.77 C 305.70 139.66 303.81 142.57 301.90 145.46 C 300.70 144.36 299.51 143.27 298.29 142.22 C 297.05 140.91 295.09 139.97 294.45 138.25 C 295.90 134.72 297.94 131.45 299.28 127.86 Z" />
<path fill="#ffc000" opacity="1.00" d=" M 217.48 248.40 L 217.82 248.39 L 218.53 248.64 C 219.98 249.82 221.99 249.79 223.72 250.26 C 223.49 251.17 223.27 252.08 223.07 253.01 C 221.20 252.71 219.33 252.47 217.45 252.31 C 217.46 251.00 217.48 249.69 217.53 248.38 L 217.48 248.40 Z" />
<path fill="#ffc000" opacity="1.00" d=" M 303.19 248.05 C 304.98 249.15 307.31 249.80 308.43 251.72 C 308.00 252.23 307.14 253.25 306.71 253.76 C 305.12 252.69 303.53 251.64 301.92 250.62 C 302.34 249.76 302.76 248.90 303.19 248.05 Z" />
<path fill="#ffc000" opacity="1.00" d=" M 299.38 253.90 C 301.16 254.76 302.69 256.03 304.32 257.14 C 303.42 259.00 302.05 260.56 300.84 262.21 C 299.19 261.09 297.59 259.90 296.01 258.69 C 297.10 257.07 298.23 255.48 299.38 253.90 Z" />
<path fill="#ffc000" opacity="1.00" d=" M 216.43 262.62 C 216.52 260.56 216.62 258.51 216.73 256.46 C 218.75 256.48 220.77 256.65 222.77 256.95 C 222.68 258.86 222.58 260.77 222.50 262.69 C 220.47 262.73 218.44 262.71 216.43 262.62 Z" />
<path fill="#ffc000" opacity="1.00" d=" M 293.31 261.92 C 295.05 262.83 296.50 264.16 298.07 265.32 C 297.06 267.17 295.76 268.97 293.98 270.13 C 292.65 268.92 291.29 267.75 289.90 266.62 C 290.62 264.79 292.17 263.48 293.31 261.92 Z" />
<path fill="#ffc000" opacity="1.00" d=" M 216.49 266.89 C 218.49 266.79 220.50 266.72 222.51 266.66 C 222.73 268.61 222.96 270.56 222.85 272.53 C 220.90 272.73 218.95 272.97 217.01 273.22 C 216.76 271.11 216.58 269.00 216.49 266.89 Z" />
<path fill="#ffc000" opacity="1.00" d=" M 282.96 273.75 C 284.13 272.12 285.62 270.76 287.02 269.34 C 288.43 270.62 289.83 271.91 291.28 273.15 C 290.40 275.10 288.49 276.30 287.11 277.87 C 285.73 276.49 284.36 275.11 282.96 273.75 Z" />
<path fill="#ffc000" opacity="1.00" d=" M 218.07 277.36 C 220.00 277.11 221.94 276.17 223.90 276.55 C 224.31 278.26 224.73 279.97 225.03 281.71 C 223.25 282.38 221.47 283.07 219.70 283.77 C 218.94 281.69 218.01 279.61 218.07 277.36 Z" />
<path fill="#ffc000" opacity="1.00" d=" M 275.66 280.12 C 277.11 278.88 278.55 277.62 280.00 276.37 C 281.40 277.81 282.83 279.23 284.04 280.84 C 282.52 282.18 281.01 283.53 279.50 284.88 C 278.10 283.39 276.74 281.86 275.66 280.12 Z" />
<path fill="#ffc000" opacity="1.00" d=" M 267.87 285.97 C 269.38 284.81 270.83 283.50 272.68 282.90 C 273.82 284.46 275.04 285.98 276.01 287.67 C 274.33 288.79 272.64 289.90 270.98 291.04 C 269.74 289.48 268.63 287.81 267.87 285.97 Z" />
<path fill="#ffc000" opacity="1.00" d=" M 221.75 287.89 C 223.34 286.72 225.09 285.81 226.85 284.93 C 227.87 286.31 228.86 287.70 229.91 289.06 C 228.49 290.48 227.30 292.33 225.36 293.07 C 224.05 291.41 222.71 289.77 221.75 287.89 Z" />
<path fill="#ffc000" opacity="1.00" d=" M 259.16 290.76 C 260.77 289.59 262.63 288.89 264.45 288.14 C 265.33 289.78 266.20 291.43 267.13 293.06 C 265.55 294.56 263.42 295.29 261.40 296.01 C 260.71 294.24 259.96 292.48 259.16 290.76 Z" />
<path fill="#ffc000" opacity="1.00" d=" M 229.44 296.22 C 230.50 294.53 231.48 292.77 232.79 291.26 C 234.24 292.00 235.74 292.67 237.28 293.23 C 236.87 295.20 236.35 297.15 235.76 299.08 C 233.55 298.37 231.38 297.49 229.44 296.22 Z" />
<path fill="#ffc000" opacity="1.00" d=" M 250.12 293.39 C 251.96 292.91 253.81 292.46 255.67 292.07 C 256.31 293.95 256.91 295.86 257.40 297.80 C 255.35 298.38 253.28 298.89 251.20 299.29 C 250.82 297.32 250.46 295.36 250.12 293.39 Z" />
<path fill="#ffc000" opacity="1.00" d=" M 240.88 293.93 C 242.75 293.90 244.63 293.96 246.50 294.20 C 246.58 296.12 246.72 298.03 246.89 299.94 C 244.71 300.06 242.53 300.07 240.36 300.00 C 240.41 297.97 240.61 295.94 240.88 293.93 Z" />
<path fill="#ffc000" opacity="1.00" d=" M 191.32 480.52 C 195.47 479.72 200.19 479.80 203.82 482.21 C 205.29 483.05 205.66 485.20 204.24 486.30 C 200.84 488.98 196.09 489.10 191.99 488.48 C 189.74 487.98 187.00 487.26 186.02 484.92 C 185.84 482.11 189.13 481.08 191.32 480.52 Z" />
<path fill="#ffc000" opacity="1.00" d=" M 231.46 480.58 C 235.61 479.70 240.30 479.78 244.00 482.08 C 245.22 482.78 246.26 484.67 244.99 485.84 C 242.49 488.55 238.38 488.81 234.93 488.77 C 231.88 488.50 228.00 488.02 226.43 485.01 C 226.05 482.24 229.35 481.15 231.46 480.58 Z" />
<path fill="#ffc000" opacity="1.00" d=" M 271.46 480.67 C 275.60 479.69 280.26 479.75 284.05 481.86 C 285.64 482.57 286.63 484.79 285.16 486.12 C 281.90 488.94 277.14 489.06 273.07 488.54 C 270.75 488.06 267.89 487.39 266.81 485.02 C 266.39 482.39 269.46 481.27 271.46 480.67 Z" />
<path fill="#ffc000" opacity="1.00" d=" M 312.33 480.55 C 316.46 479.72 321.14 479.79 324.81 482.11 C 326.33 482.93 326.84 485.13 325.37 486.28 C 321.62 489.18 316.35 489.21 311.91 488.20 C 309.93 487.61 307.05 486.62 307.14 484.10 C 307.77 481.85 310.33 481.09 312.33 480.55 Z" />
</g>
<g id="#ff618eff">
<path fill="#ff618e" opacity="1.00" d=" M 53.92 494.19 C 70.16 456.96 86.32 419.70 102.59 382.49 C 124.07 382.71 145.55 382.93 167.03 383.08 C 218.63 383.60 270.22 384.11 321.82 384.60 C 351.59 384.96 381.36 385.14 411.13 385.60 C 426.77 422.34 442.43 459.08 458.15 495.79 C 323.41 495.28 188.66 494.71 53.92 494.19 M 149.50 389.68 C 137.85 392.26 127.18 398.36 118.37 406.31 C 106.57 416.97 97.51 431.10 94.38 446.82 C 92.28 457.46 93.23 469.30 99.57 478.41 C 104.33 485.63 112.38 490.23 120.83 491.60 C 131.24 493.31 141.94 490.87 151.36 486.40 C 165.87 479.46 177.90 467.72 185.78 453.76 C 191.95 442.63 195.61 429.62 193.68 416.87 C 192.37 407.87 187.57 399.19 179.87 394.15 C 171.03 388.24 159.67 387.41 149.50 389.68 M 339.33 389.52 C 333.58 390.88 328.09 393.64 323.91 397.87 C 317.58 404.18 314.39 413.12 314.13 421.96 C 313.69 435.48 318.71 448.69 326.25 459.74 C 335.58 473.24 348.95 484.28 364.63 489.48 C 374.73 492.78 386.17 493.46 396.04 489.01 C 404.12 485.54 410.27 478.30 412.92 469.97 C 416.76 458.18 414.71 445.24 409.98 434.02 C 403.15 418.13 390.91 404.62 375.83 396.18 C 364.84 390.14 351.79 386.71 339.33 389.52 M 259.44 469.62 C 261.47 469.66 263.51 469.66 265.54 469.53 C 265.42 445.23 265.54 420.93 265.48 396.63 C 263.50 396.62 261.51 396.61 259.54 396.58 C 259.31 420.92 259.50 445.28 259.44 469.62 M 212.26 403.48 C 207.92 425.73 203.37 447.94 198.82 470.15 C 200.73 470.98 202.82 471.17 204.87 471.44 C 209.21 449.13 213.82 426.86 218.32 404.58 C 216.32 404.10 214.32 403.55 212.26 403.48 M 240.14 403.66 C 237.57 426.02 234.26 448.33 232.02 470.70 C 233.95 470.89 235.89 471.12 237.82 471.35 C 240.49 448.98 243.64 426.65 246.03 404.26 C 244.07 404.01 242.11 403.78 240.14 403.66 M 279.53 404.51 C 283.04 426.80 285.78 449.23 289.53 471.47 C 291.47 471.14 293.42 470.86 295.34 470.40 C 291.99 448.12 288.83 425.81 285.57 403.52 C 283.54 403.75 281.51 404.01 279.53 404.51 M 191.32 480.52 C 189.13 481.08 185.84 482.11 186.02 484.92 C 187.00 487.26 189.74 487.98 191.99 488.48 C 196.09 489.10 200.84 488.98 204.24 486.30 C 205.66 485.20 205.29 483.05 203.82 482.21 C 200.19 479.80 195.47 479.72 191.32 480.52 M 231.46 480.58 C 229.35 481.15 226.05 482.24 226.43 485.01 C 228.00 488.02 231.88 488.50 234.93 488.77 C 238.38 488.81 242.49 488.55 244.99 485.84 C 246.26 484.67 245.22 482.78 244.00 482.08 C 240.30 479.78 235.61 479.70 231.46 480.58 M 271.46 480.67 C 269.46 481.27 266.39 482.39 266.81 485.02 C 267.89 487.39 270.75 488.06 273.07 488.54 C 277.14 489.06 281.90 488.94 285.16 486.12 C 286.63 484.79 285.64 482.57 284.05 481.86 C 280.26 479.75 275.60 479.69 271.46 480.67 M 312.33 480.55 C 310.33 481.09 307.77 481.85 307.14 484.10 C 307.05 486.62 309.93 487.61 311.91 488.20 C 316.35 489.21 321.62 489.18 325.37 486.28 C 326.84 485.13 326.33 482.93 324.81 482.11 C 321.14 479.79 316.46 479.72 312.33 480.55 Z" />
</g>
</svg>
