<?xml version="1.0" encoding="UTF-8" ?>
<!DOCTYPE svg PUBLIC "-//W3C//DTD SVG 1.1//EN" "http://www.w3.org/Graphics/SVG/1.1/DTD/svg11.dtd">
<svg width="512pt" height="512pt" viewBox="0 0 512 512" version="1.1" xmlns="http://www.w3.org/2000/svg">
<g id="#ff9100ff">
<path fill="#ff9100" opacity="1.00" d=" M 220.40 0.00 L 223.64 0.00 C 224.36 0.25 225.79 0.75 226.51 1.00 C 222.30 4.18 216.36 5.20 211.44 3.17 C 214.09 1.33 217.22 0.40 220.40 0.00 Z" />
<path fill="#ff9100" opacity="1.00" d=" M 197.35 10.53 C 214.54 4.57 233.17 3.00 251.17 5.34 C 267.48 7.45 283.63 14.89 293.84 28.12 C 306.85 44.77 310.40 66.94 308.84 87.55 C 306.69 87.26 304.54 86.97 302.39 86.72 C 269.21 83.31 235.74 84.48 202.54 86.88 C 182.80 88.22 163.14 90.48 143.53 93.00 C 145.54 74.39 148.66 55.64 156.01 38.31 C 167.13 25.73 181.49 16.03 197.35 10.53 M 214.11 8.21 C 213.74 9.61 214.24 10.17 215.62 9.87 C 215.98 8.47 215.48 7.91 214.11 8.21 M 211.12 9.14 C 209.17 9.56 210.06 12.70 211.92 12.16 C 213.69 11.65 212.98 8.57 211.12 9.14 M 207.45 11.53 C 205.67 12.13 206.34 13.72 207.49 14.53 C 209.37 14.37 209.11 11.77 207.45 11.53 M 203.42 14.27 C 201.55 14.62 202.38 17.56 204.13 17.17 C 206.22 16.87 205.44 13.50 203.42 14.27 M 200.17 17.25 C 198.44 17.64 199.18 20.48 200.87 20.07 C 202.63 19.67 201.91 16.76 200.17 17.25 M 197.42 23.58 C 199.26 22.93 198.58 21.24 197.65 20.09 C 196.86 21.28 195.15 22.88 197.42 23.58 M 194.20 24.26 C 192.55 24.75 193.36 27.44 195.03 26.92 C 197.05 26.61 195.93 23.63 194.20 24.26 M 191.26 28.49 C 189.78 29.83 192.30 32.07 193.51 30.53 C 194.91 29.13 192.53 27.05 191.26 28.49 M 189.30 32.45 C 187.74 33.72 190.20 36.24 191.47 34.60 C 192.84 33.24 190.64 31.19 189.30 32.45 M 188.13 36.28 C 186.42 36.80 187.14 39.82 188.98 39.22 C 191.07 38.80 190.01 35.65 188.13 36.28 M 186.18 41.22 C 184.82 42.59 187.24 44.65 188.46 43.30 C 189.84 41.88 187.50 39.64 186.18 41.22 M 185.18 45.38 C 185.19 45.98 185.21 47.18 185.22 47.78 C 185.78 47.74 186.88 47.68 187.44 47.65 C 187.45 47.12 187.47 46.05 187.48 45.52 C 186.91 45.48 185.76 45.41 185.18 45.38 M 184.38 50.27 C 183.20 51.74 185.77 53.36 186.73 51.84 C 187.92 50.35 185.35 48.75 184.38 50.27 M 184.13 54.26 C 184.14 54.91 184.16 56.22 184.17 56.87 C 184.69 56.80 185.75 56.66 186.28 56.59 C 186.28 56.09 186.30 55.09 186.30 54.59 C 185.76 54.51 184.68 54.34 184.13 54.26 M 183.50 59.36 C 183.60 59.80 183.79 60.66 183.89 61.10 C 184.33 61.21 185.20 61.44 185.64 61.55 C 185.77 60.89 186.03 59.55 186.16 58.89 C 185.50 59.01 184.17 59.24 183.50 59.36 M 184.18 63.42 C 182.64 64.37 184.23 67.02 185.74 65.83 C 187.18 64.86 185.66 62.31 184.18 63.42 M 278.59 63.89 C 275.37 65.39 271.77 64.89 268.38 65.59 C 268.06 65.26 267.42 64.62 267.09 64.29 C 264.82 64.57 262.54 64.77 260.25 64.69 C 260.05 65.18 259.64 66.17 259.44 66.66 C 261.94 66.31 264.46 65.99 266.97 65.70 C 266.41 67.63 266.26 69.63 266.23 71.62 C 264.04 71.44 264.30 69.09 264.12 67.57 C 262.28 67.91 260.43 68.23 258.60 68.56 C 259.18 70.87 259.76 73.19 260.27 75.52 C 262.06 74.78 263.95 74.37 265.90 74.39 C 265.91 74.15 265.92 73.69 265.93 73.45 C 265.01 73.58 263.16 73.82 262.24 73.95 C 263.06 71.55 265.73 72.21 267.60 71.65 C 268.34 70.01 268.36 67.69 270.07 66.71 C 271.71 66.49 273.37 66.50 275.02 66.37 C 275.39 66.73 276.13 67.45 276.50 67.80 C 277.14 66.50 277.99 64.87 279.74 65.20 C 281.48 65.60 284.44 64.25 284.36 67.05 C 284.20 69.92 283.92 73.55 281.12 75.15 C 281.23 72.38 283.16 69.36 281.71 66.70 C 280.66 68.89 281.01 72.15 278.49 73.33 C 278.57 71.44 278.82 69.53 278.49 67.65 C 277.09 70.42 278.73 74.56 275.74 76.36 C 275.75 75.78 275.79 74.64 275.81 74.07 C 274.82 74.82 273.84 75.59 272.88 76.36 C 273.45 73.49 274.49 70.59 273.85 67.62 C 272.63 69.92 272.85 73.23 270.36 74.64 C 270.42 72.67 270.58 70.69 270.49 68.72 C 269.53 71.43 269.36 74.32 269.16 77.16 C 267.07 77.06 265.05 76.55 263.01 76.18 C 261.34 76.60 260.39 78.33 258.93 79.18 C 257.92 75.47 257.22 71.67 256.28 67.94 C 257.13 67.71 258.82 67.24 259.67 67.00 C 258.95 66.45 258.24 65.89 257.52 65.34 C 256.39 66.15 254.04 67.18 255.08 69.05 C 255.97 72.52 256.56 76.06 257.54 79.50 C 259.48 81.80 261.76 79.01 263.03 77.50 C 265.74 79.00 269.55 79.30 271.28 76.22 C 271.66 76.51 272.41 77.09 272.78 77.38 C 275.43 77.39 278.42 77.34 279.51 74.44 C 280.32 77.30 284.06 75.97 284.52 73.66 C 285.37 71.23 286.04 68.59 285.64 66.01 C 284.77 62.94 280.99 63.57 278.59 63.89 M 184.11 70.54 C 184.65 70.45 185.72 70.28 186.25 70.20 C 186.30 69.70 186.41 68.70 186.46 68.21 C 184.40 67.52 183.66 68.56 184.11 70.54 M 184.50 72.63 C 184.47 73.16 184.41 74.23 184.38 74.77 C 184.99 74.79 186.20 74.83 186.80 74.85 C 186.77 74.27 186.69 73.11 186.66 72.52 C 186.12 72.55 185.04 72.60 184.50 72.63 M 185.24 79.60 C 185.83 79.49 187.01 79.28 187.60 79.18 C 187.64 78.34 187.44 77.70 186.98 77.27 C 184.91 76.11 185.07 78.16 185.24 79.60 M 185.80 83.91 C 186.51 83.82 187.93 83.64 188.64 83.54 C 188.27 82.66 187.89 81.79 187.52 80.91 C 186.50 81.56 185.89 82.71 185.80 83.91 Z" />
<path fill="#ff9100" opacity="1.00" d=" M 130.39 85.49 C 132.89 76.45 136.45 67.70 141.12 59.56 C 139.62 71.07 136.88 82.40 136.26 94.03 C 134.31 94.31 132.37 94.59 130.43 94.85 C 89.28 100.67 48.50 108.80 7.95 117.84 C 8.61 110.55 12.47 103.82 18.03 99.14 C 28.11 90.54 41.30 86.83 54.12 84.66 C 79.39 80.70 105.12 82.54 130.39 85.49 Z" />
<path fill="#ff9100" opacity="1.00" d=" M 156.90 229.95 C 159.95 235.94 164.04 241.42 169.10 245.86 C 176.87 252.87 186.79 256.72 196.78 259.31 C 199.64 261.87 203.41 262.23 207.07 261.71 C 212.33 265.62 218.67 262.79 224.13 261.01 C 231.44 262.37 239.68 262.80 245.89 257.91 C 249.77 255.25 250.13 249.90 248.34 245.88 C 264.48 243.44 280.50 239.63 295.64 233.48 C 296.53 239.70 297.62 245.89 298.88 252.05 C 307.57 294.74 324.94 336.94 355.58 368.62 C 336.36 368.21 317.13 368.45 297.91 368.18 C 291.14 351.93 283.45 336.08 275.39 320.44 C 239.95 331.59 204.50 342.75 169.00 353.70 C 166.89 349.47 164.71 345.27 162.60 341.04 C 168.71 339.98 174.82 338.90 180.93 337.85 C 180.64 335.62 180.37 333.40 180.06 331.19 C 177.54 313.99 172.10 296.67 161.19 282.88 C 154.12 273.90 144.16 267.10 132.99 264.47 C 126.60 262.72 119.93 262.82 113.37 263.01 C 123.09 247.05 138.75 234.73 156.90 229.95 M 253.17 273.10 C 250.57 275.33 249.92 278.82 249.74 282.07 C 250.37 287.56 254.73 291.51 259.90 292.85 C 258.92 297.14 259.42 301.53 260.73 305.70 C 266.17 304.80 271.52 303.46 276.96 302.57 C 276.72 298.38 275.12 294.33 272.12 291.37 C 276.30 288.51 279.99 283.78 278.44 278.41 C 281.31 278.03 284.19 277.69 287.07 277.34 C 285.58 273.40 280.88 274.93 278.40 276.97 C 276.64 273.00 273.45 269.35 268.99 268.55 C 263.44 267.68 257.39 269.36 253.17 273.10 M 191.46 283.41 C 188.64 285.63 187.80 289.27 187.65 292.69 C 188.29 298.14 192.60 302.12 197.75 303.46 C 197.01 307.76 197.14 312.18 198.67 316.30 C 204.17 315.39 209.63 314.27 215.04 312.93 C 214.53 308.85 212.87 305.05 210.16 301.95 C 214.17 299.09 217.88 294.49 216.38 289.24 C 215.77 289.28 214.54 289.36 213.92 289.40 C 217.77 288.89 221.63 288.43 225.46 287.80 C 224.34 286.99 223.42 285.69 221.97 285.47 C 219.80 285.04 218.08 286.68 216.41 287.77 C 214.69 283.96 211.80 280.35 207.55 279.34 C 201.98 278.15 195.85 279.82 191.46 283.41 M 225.34 291.40 C 221.99 293.57 219.94 297.62 220.61 301.61 L 220.29 301.65 C 220.82 307.24 225.36 311.25 230.61 312.52 C 229.53 316.60 229.35 321.69 231.73 325.22 C 237.05 324.44 242.25 323.00 247.56 322.11 C 247.11 317.91 245.55 313.85 242.55 310.82 C 247.05 308.28 250.23 303.34 249.08 298.05 C 252.10 297.71 255.10 297.23 258.08 296.60 C 256.79 295.76 255.63 294.48 254.02 294.33 C 252.24 294.64 250.64 295.56 248.99 296.26 C 246.93 292.99 244.47 289.59 240.59 288.41 C 235.40 287.09 229.77 288.54 225.34 291.40 Z" />
<path fill="#ff9100" opacity="1.00" d=" M 203.47 366.78 C 209.78 362.65 215.32 357.51 220.67 352.23 C 220.14 357.22 219.95 362.28 220.48 367.28 C 214.80 367.41 209.11 367.45 203.47 366.78 Z" />
</g>
<g id="#ffc000ff">
<path fill="#ffc000" opacity="1.00" d=" M 169.03 11.09 C 179.01 3.59 192.24 0.38 204.51 2.63 C 205.85 4.49 202.64 6.20 201.02 6.22 C 194.07 6.02 186.88 6.44 180.55 9.61 C 168.69 15.17 161.13 26.69 156.01 38.31 C 148.66 55.64 145.54 74.39 143.53 93.00 C 143.10 96.98 142.74 100.96 142.45 104.95 C 141.72 116.46 141.43 128.02 142.06 139.55 C 145.99 139.52 150.62 139.23 153.51 142.44 C 157.38 146.60 156.68 152.95 154.85 157.88 C 151.11 167.55 143.24 175.60 133.70 179.65 C 128.85 181.62 122.50 182.49 118.29 178.71 C 114.56 175.28 114.59 169.60 115.89 165.06 C 118.76 155.03 126.50 147.11 135.38 142.00 C 135.04 131.13 134.80 120.26 135.24 109.39 C 135.46 104.26 135.81 99.14 136.26 94.03 C 136.88 82.40 139.62 71.07 141.12 59.56 C 143.13 55.17 144.20 50.43 145.84 45.90 C 150.58 32.70 157.64 19.69 169.03 11.09 Z" />
<path fill="#ffc000" opacity="1.00" d=" M 225.34 291.40 C 229.77 288.54 235.40 287.09 240.59 288.41 C 244.47 289.59 246.93 292.99 248.99 296.26 C 250.64 295.56 252.24 294.64 254.02 294.33 C 255.63 294.48 256.79 295.76 258.08 296.60 C 255.10 297.23 252.10 297.71 249.08 298.05 C 239.59 299.21 230.11 300.48 220.61 301.61 C 219.94 297.62 221.99 293.57 225.34 291.40 Z" />
<path fill="#ffc000" opacity="1.00" d=" M 187.65 292.69 C 196.42 291.64 205.16 290.45 213.92 289.40 C 214.54 289.36 215.77 289.28 216.38 289.24 C 217.88 294.49 214.17 299.09 210.16 301.95 C 212.87 305.05 214.53 308.85 215.04 312.93 C 209.63 314.27 204.17 315.39 198.67 316.30 C 197.14 312.18 197.01 307.76 197.75 303.46 C 192.60 302.12 188.29 298.14 187.65 292.69 Z" />
<path fill="#ffc000" opacity="1.00" d=" M 253.55 384.44 C 264.54 381.64 275.94 375.45 280.30 364.36 C 285.87 375.91 291.34 387.84 299.94 397.50 C 303.24 420.45 306.61 443.39 309.95 466.33 C 312.19 466.01 314.43 465.69 316.67 465.37 C 313.22 441.18 309.57 417.02 306.19 392.83 L 306.13 392.09 C 306.43 390.81 306.08 389.75 305.07 388.90 C 303.51 381.74 300.63 374.96 297.91 368.18 C 317.13 368.45 336.36 368.21 355.58 368.62 C 374.42 369.04 393.26 369.08 412.10 369.33 C 411.27 373.76 410.15 378.13 408.78 382.43 C 397.05 375.82 383.41 371.61 369.86 373.49 C 360.07 374.68 350.77 379.95 345.06 388.05 C 339.10 396.35 337.22 406.97 338.02 417.01 C 339.23 432.05 345.84 446.28 355.09 458.05 C 366.06 471.91 381.02 483.03 398.22 487.69 C 409.54 490.71 422.30 490.64 432.75 484.81 C 446.08 477.63 452.81 461.47 450.92 446.79 C 453.19 445.54 455.56 444.47 457.94 443.43 C 454.90 439.63 451.79 435.87 448.80 432.03 C 443.60 416.64 434.40 402.67 422.09 392.03 C 427.66 385.01 432.48 377.43 436.78 369.58 C 440.18 369.59 443.58 369.61 446.98 369.67 C 464.66 411.04 482.25 452.45 499.97 493.79 C 348.33 493.17 196.69 492.49 45.05 491.95 C 63.26 450.04 81.54 408.16 99.76 366.26 C 107.48 366.34 115.20 366.37 122.92 366.52 C 126.17 372.02 130.45 376.99 135.88 380.44 C 119.97 388.51 106.85 401.75 98.32 417.36 C 91.39 430.25 87.51 445.41 90.43 459.99 C 92.26 469.59 97.92 478.52 106.24 483.76 C 114.66 489.19 125.15 490.50 134.93 489.20 C 148.42 487.38 161.01 481.02 171.50 472.51 C 185.91 460.68 197.05 444.44 201.34 426.18 C 203.88 415.07 203.63 402.87 198.42 392.54 C 195.17 386.00 189.73 380.72 183.33 377.27 C 190.37 374.44 197.11 370.91 203.47 366.78 C 209.11 367.45 214.80 367.41 220.48 367.28 C 221.36 373.77 224.18 380.64 230.22 383.90 C 237.41 387.78 245.97 386.20 253.55 384.44 M 276.32 382.16 C 276.39 409.56 276.20 436.96 276.41 464.36 C 278.65 464.33 280.89 464.31 283.14 464.30 C 283.14 436.91 283.15 409.53 283.14 382.14 C 280.86 382.15 278.59 382.15 276.32 382.16 M 223.34 389.72 C 218.29 414.86 213.22 439.99 208.13 465.12 C 210.36 465.59 212.60 466.04 214.85 466.49 C 219.86 441.32 224.99 416.17 230.04 391.01 C 227.81 390.56 225.57 390.13 223.34 389.72 M 245.21 465.45 C 247.46 465.71 249.70 465.98 251.95 466.26 C 255.02 441.09 258.38 415.96 261.30 390.78 C 259.09 390.51 256.89 390.23 254.69 389.95 C 251.43 415.10 248.32 440.28 245.21 465.45 M 200.31 476.43 C 197.75 477.05 194.19 477.90 193.67 480.98 C 194.08 483.85 197.41 484.77 199.79 485.42 C 204.54 486.23 210.07 486.18 214.09 483.17 C 215.85 481.99 215.34 479.32 213.62 478.39 C 209.73 475.86 204.76 475.74 200.31 476.43 M 245.40 476.50 C 242.83 477.09 238.73 478.40 239.22 481.74 C 240.90 484.78 244.71 485.45 247.88 485.79 C 251.99 486.02 256.76 485.78 259.90 482.76 C 261.67 480.99 259.95 478.59 258.12 477.77 C 254.18 475.92 249.63 475.73 245.40 476.50 M 291.24 476.43 C 288.62 477.03 285.16 477.90 284.48 480.95 C 285.06 483.85 288.26 484.80 290.74 485.42 C 295.37 486.27 300.56 486.11 304.63 483.49 C 306.46 482.45 306.50 479.55 304.66 478.52 C 300.77 475.87 295.74 475.73 291.24 476.43 M 335.54 476.64 C 333.13 477.28 329.36 478.76 330.19 481.93 C 332.51 485.39 337.23 485.79 341.04 485.87 C 344.69 485.73 349.16 485.24 351.38 481.94 C 352.08 479.83 350.12 478.28 348.43 477.54 C 344.39 475.79 339.79 475.73 335.54 476.64 Z" />
</g>
<g id="#955a16ff">
<path fill="#955a16" opacity="1.00" d=" M 214.11 8.21 C 215.48 7.91 215.98 8.47 215.62 9.87 C 214.24 10.17 213.74 9.61 214.11 8.21 Z" />
</g>
<g id="#081133ff">
<path fill="#081133" opacity="1.00" d=" M 211.12 9.14 C 212.98 8.57 213.69 11.65 211.92 12.16 C 210.06 12.70 209.17 9.56 211.12 9.14 Z" />
<path fill="#081133" opacity="1.00" d=" M 207.45 11.53 C 209.11 11.77 209.37 14.37 207.49 14.53 C 206.34 13.72 205.67 12.13 207.45 11.53 Z" />
<path fill="#081133" opacity="1.00" d=" M 203.42 14.27 C 205.44 13.50 206.22 16.87 204.13 17.17 C 202.38 17.56 201.55 14.62 203.42 14.27 Z" />
<path fill="#081133" opacity="1.00" d=" M 200.17 17.25 C 201.91 16.76 202.63 19.67 200.87 20.07 C 199.18 20.48 198.44 17.64 200.17 17.25 Z" />
<path fill="#081133" opacity="1.00" d=" M 197.42 23.58 C 195.15 22.88 196.86 21.28 197.65 20.09 C 198.58 21.24 199.26 22.93 197.42 23.58 Z" />
<path fill="#081133" opacity="1.00" d=" M 194.20 24.26 C 195.93 23.63 197.05 26.61 195.03 26.92 C 193.36 27.44 192.55 24.75 194.20 24.26 Z" />
<path fill="#081133" opacity="1.00" d=" M 191.26 28.49 C 192.53 27.05 194.91 29.13 193.51 30.53 C 192.30 32.07 189.78 29.83 191.26 28.49 Z" />
<path fill="#081133" opacity="1.00" d=" M 189.30 32.45 C 190.64 31.19 192.84 33.24 191.47 34.60 C 190.20 36.24 187.74 33.72 189.30 32.45 Z" />
<path fill="#081133" opacity="1.00" d=" M 188.13 36.28 C 190.01 35.65 191.07 38.80 188.98 39.22 C 187.14 39.82 186.42 36.80 188.13 36.28 Z" />
<path fill="#081133" opacity="1.00" d=" M 186.18 41.22 C 187.50 39.64 189.84 41.88 188.46 43.30 C 187.24 44.65 184.82 42.59 186.18 41.22 Z" />
<path fill="#081133" opacity="1.00" d=" M 185.18 45.38 C 185.76 45.41 186.91 45.48 187.48 45.52 C 187.47 46.05 187.45 47.12 187.44 47.65 C 186.88 47.68 185.78 47.74 185.22 47.78 C 185.21 47.18 185.19 45.98 185.18 45.38 Z" />
<path fill="#081133" opacity="1.00" d=" M 184.38 50.27 C 185.35 48.75 187.92 50.35 186.73 51.84 C 185.77 53.36 183.20 51.74 184.38 50.27 Z" />
<path fill="#081133" opacity="1.00" d=" M 184.13 54.26 C 184.68 54.34 185.76 54.51 186.30 54.59 C 186.30 55.09 186.28 56.09 186.28 56.59 C 185.75 56.66 184.69 56.80 184.17 56.87 C 184.16 56.22 184.14 54.91 184.13 54.26 Z" />
<path fill="#081133" opacity="1.00" d=" M 183.50 59.36 C 184.17 59.24 185.50 59.01 186.16 58.89 C 186.03 59.55 185.77 60.89 185.64 61.55 C 185.20 61.44 184.33 61.21 183.89 61.10 C 183.79 60.66 183.60 59.80 183.50 59.36 Z" />
<path fill="#081133" opacity="1.00" d=" M 184.18 63.42 C 185.66 62.31 187.18 64.86 185.74 65.83 C 184.23 67.02 182.64 64.37 184.18 63.42 Z" />
<path fill="#081133" opacity="1.00" d=" M 278.59 63.89 C 280.99 63.57 284.77 62.94 285.64 66.01 C 286.04 68.59 285.37 71.23 284.52 73.66 C 284.06 75.97 280.32 77.30 279.51 74.44 C 278.42 77.34 275.43 77.39 272.78 77.38 C 272.41 77.09 271.66 76.51 271.28 76.22 C 269.55 79.30 265.74 79.00 263.03 77.50 C 261.76 79.01 259.48 81.80 257.54 79.50 C 256.56 76.06 255.97 72.52 255.08 69.05 C 254.04 67.18 256.39 66.15 257.52 65.34 C 258.24 65.89 258.95 66.45 259.67 67.00 C 258.82 67.24 257.13 67.71 256.28 67.94 C 257.22 71.67 257.92 75.47 258.93 79.18 C 260.39 78.33 261.34 76.60 263.01 76.18 C 265.05 76.55 267.07 77.06 269.16 77.16 C 269.36 74.32 269.53 71.43 270.49 68.72 C 270.58 70.69 270.42 72.67 270.36 74.64 C 272.85 73.23 272.63 69.92 273.85 67.62 C 274.49 70.59 273.45 73.49 272.88 76.36 C 273.84 75.59 274.82 74.82 275.81 74.07 C 275.79 74.64 275.75 75.78 275.74 76.36 C 278.73 74.56 277.09 70.42 278.49 67.65 C 278.82 69.53 278.57 71.44 278.49 73.33 C 281.01 72.15 280.66 68.89 281.71 66.70 C 283.16 69.36 281.23 72.38 281.12 75.15 C 283.92 73.55 284.20 69.92 284.36 67.05 C 284.44 64.25 281.48 65.60 279.74 65.20 C 277.99 64.87 277.14 66.50 276.50 67.80 C 276.13 67.45 275.39 66.73 275.02 66.37 C 273.37 66.50 271.71 66.49 270.07 66.71 C 268.36 67.69 268.34 70.01 267.60 71.65 C 265.73 72.21 263.06 71.55 262.24 73.95 C 263.16 73.82 265.01 73.58 265.93 73.45 C 265.92 73.69 265.91 74.15 265.90 74.39 C 263.95 74.37 262.06 74.78 260.27 75.52 C 259.76 73.19 259.18 70.87 258.60 68.56 C 260.43 68.23 262.28 67.91 264.12 67.57 C 264.30 69.09 264.04 71.44 266.23 71.62 C 266.26 69.63 266.41 67.63 266.97 65.70 C 264.46 65.99 261.94 66.31 259.44 66.66 C 259.64 66.17 260.05 65.18 260.25 64.69 C 262.54 64.77 264.82 64.57 267.09 64.29 C 267.42 64.62 268.06 65.26 268.38 65.59 C 271.77 64.89 275.37 65.39 278.59 63.89 M 261.14 69.48 C 261.00 69.88 260.73 70.68 260.60 71.08 C 262.20 74.30 264.47 67.80 261.14 69.48 Z" />
<path fill="#081133" opacity="1.00" d=" M 184.11 70.54 C 183.66 68.56 184.40 67.52 186.46 68.21 C 186.41 68.70 186.30 69.70 186.25 70.20 C 185.72 70.28 184.65 70.45 184.11 70.54 Z" />
<path fill="#081133" opacity="1.00" d=" M 184.50 72.63 C 185.04 72.60 186.12 72.55 186.66 72.52 C 186.69 73.11 186.77 74.27 186.80 74.85 C 186.20 74.83 184.99 74.79 184.38 74.77 C 184.41 74.23 184.47 73.16 184.50 72.63 Z" />
<path fill="#081133" opacity="1.00" d=" M 185.24 79.60 C 185.07 78.16 184.91 76.11 186.98 77.27 C 187.44 77.70 187.64 78.34 187.60 79.18 C 187.01 79.28 185.83 79.49 185.24 79.60 Z" />
<path fill="#081133" opacity="1.00" d=" M 185.80 83.91 C 185.89 82.71 186.50 81.56 187.52 80.91 C 187.89 81.79 188.27 82.66 188.64 83.54 C 187.93 83.64 186.51 83.82 185.80 83.91 Z" />
<path fill="#081133" opacity="1.00" d=" M 143.53 93.00 C 163.14 90.48 182.80 88.22 202.54 86.88 C 196.57 96.97 190.81 107.21 184.61 117.17 C 184.93 119.02 185.29 120.86 185.71 122.69 C 180.62 122.61 175.53 122.31 170.44 122.17 C 171.87 126.64 172.83 131.25 173.39 135.92 C 178.10 136.40 182.88 136.43 187.52 137.48 C 187.32 137.80 186.94 138.45 186.75 138.77 C 182.48 139.84 177.96 138.24 173.59 138.20 C 173.70 142.53 173.60 146.86 173.31 151.19 C 177.43 151.20 181.56 151.07 185.68 151.22 C 186.09 151.26 186.93 151.33 187.35 151.37 C 187.37 151.88 187.41 152.90 187.43 153.42 C 186.84 153.42 185.67 153.43 185.08 153.44 C 181.07 153.45 177.06 153.44 173.05 153.46 C 172.31 158.02 171.38 162.55 170.21 167.03 C 173.59 167.17 176.97 167.30 180.35 167.48 C 180.04 168.23 179.72 168.97 179.39 169.71 C 176.14 169.55 172.90 169.42 169.65 169.26 C 168.06 173.47 166.44 177.68 164.49 181.74 C 167.49 181.26 170.50 180.82 173.53 180.56 C 173.17 181.14 172.45 182.29 172.09 182.86 C 169.15 183.41 166.19 183.79 163.24 184.25 C 161.34 187.52 159.33 190.74 157.02 193.74 C 159.09 193.83 161.17 193.92 163.22 194.21 C 162.68 194.87 162.09 195.49 161.47 196.07 C 159.39 196.17 157.32 196.20 155.25 196.24 C 149.63 202.26 143.14 208.08 134.95 210.13 C 131.20 211.24 127.25 210.89 123.44 210.41 C 123.76 208.98 124.09 207.56 124.42 206.13 C 133.36 207.64 142.06 203.44 148.19 197.14 C 160.30 184.92 166.70 167.96 168.68 151.09 C 169.84 139.32 168.86 126.69 162.64 116.35 C 159.99 111.79 155.64 108.53 150.76 106.68 C 151.12 105.24 151.49 103.80 151.86 102.36 C 160.27 104.82 166.25 111.90 169.54 119.74 C 174.63 120.05 179.74 120.38 184.85 120.28 C 182.56 112.02 176.54 104.53 168.24 101.81 C 159.65 98.92 150.37 101.13 142.45 104.95 C 142.74 100.96 143.10 96.98 143.53 93.00 Z" />
<path fill="#081133" opacity="1.00" d=" M 130.43 94.85 C 132.37 94.59 134.31 94.31 136.26 94.03 C 135.81 99.14 135.46 104.26 135.24 109.39 C 133.60 110.60 131.96 111.81 130.40 113.11 C 130.46 107.02 130.44 100.94 130.43 94.85 Z" />
<path fill="#081133" opacity="1.00" d=" M 272.04 109.71 C 273.25 106.94 274.46 104.17 275.69 101.41 C 286.61 106.13 297.47 110.96 308.40 115.66 C 310.55 116.61 312.69 117.59 314.83 118.57 C 313.63 121.25 312.38 123.94 311.66 126.80 C 298.29 121.50 285.27 115.35 272.04 109.71 Z" />
<path fill="#081133" opacity="1.00" d=" M 261.67 113.08 C 264.49 114.12 267.28 115.25 270.05 116.41 C 266.51 125.38 259.18 132.53 250.46 136.47 C 243.38 139.78 235.55 141.17 227.79 141.50 C 227.83 138.46 227.90 135.42 228.05 132.38 C 241.40 132.05 256.23 126.20 261.67 113.08 Z" />
<path fill="#081133" opacity="1.00" d=" M 304.85 151.98 C 306.87 146.14 307.52 139.97 308.63 133.93 C 309.00 141.25 309.11 148.80 306.70 155.82 C 305.42 159.43 303.15 163.09 299.39 164.49 C 294.76 166.18 289.36 164.63 286.02 161.10 C 281.18 156.15 279.02 149.31 277.47 142.72 C 278.79 142.23 280.10 141.73 281.42 141.24 C 283.60 147.36 285.99 153.65 290.40 158.55 C 292.46 160.79 295.88 162.69 298.88 161.14 C 302.17 159.20 303.65 155.41 304.85 151.98 Z" />
<path fill="#081133" opacity="1.00" d=" M 261.58 140.02 C 261.77 149.09 262.36 159.08 257.17 167.01 C 253.57 172.64 245.10 172.87 240.27 168.75 C 234.92 164.33 232.46 157.46 230.78 150.94 C 229.42 148.52 232.97 148.47 234.24 147.61 C 236.50 153.67 238.78 159.97 243.18 164.86 C 245.12 166.99 248.07 168.80 251.05 167.89 C 254.00 166.70 255.62 163.70 256.80 160.93 C 259.56 154.27 260.29 147.05 261.58 140.02 Z" />
<path fill="#081133" opacity="1.00" d=" M 273.54 149.42 C 274.05 149.23 275.08 148.83 275.60 148.64 C 274.63 157.19 272.28 165.52 270.76 173.98 C 277.45 173.15 284.51 171.94 291.05 174.17 C 293.91 174.96 295.54 178.94 293.21 181.15 C 290.23 183.84 286.12 184.71 282.32 185.59 C 270.44 187.83 258.31 188.26 246.25 188.25 C 247.68 185.04 249.53 181.58 252.96 180.17 C 256.47 178.64 260.40 180.30 262.96 182.84 C 260.64 184.84 258.46 181.76 256.02 181.86 C 253.22 181.69 251.39 184.05 249.73 185.92 C 260.90 185.90 272.13 185.25 283.10 183.11 C 286.23 182.23 290.09 181.87 292.09 178.97 C 292.28 176.47 289.47 175.88 287.59 175.53 C 281.00 174.58 274.39 175.84 267.87 176.70 C 269.81 167.62 271.50 158.48 273.54 149.42 Z" />
<path fill="#081133" opacity="1.00" d=" M 214.06 170.17 C 219.22 168.54 224.80 168.05 230.12 169.14 C 231.48 169.28 232.65 170.01 233.35 171.20 C 231.19 171.37 229.03 171.32 226.87 171.21 C 224.88 177.24 223.42 183.76 224.71 190.10 C 225.51 194.25 228.72 197.80 232.91 198.68 C 240.50 200.37 248.18 197.91 255.36 195.56 C 255.54 196.11 255.90 197.21 256.08 197.75 C 248.58 200.17 240.60 202.56 232.67 201.00 C 228.96 200.05 225.48 197.80 223.80 194.27 C 220.75 187.86 222.02 180.51 223.51 173.87 C 213.96 179.54 205.01 186.69 198.93 196.11 C 203.15 202.13 207.56 208.01 211.82 214.01 C 206.75 209.35 202.02 204.36 197.06 199.59 C 193.90 207.14 192.60 216.12 196.17 223.75 C 198.63 228.96 204.25 231.82 209.78 232.43 C 216.31 233.28 222.69 231.33 228.93 229.70 C 228.96 230.21 229.01 231.23 229.03 231.74 C 220.39 234.95 210.17 236.55 201.59 232.34 C 194.85 229.00 191.63 221.22 191.79 214.00 C 191.40 202.12 198.03 191.26 206.53 183.46 C 211.61 178.50 217.70 174.82 223.64 171.00 C 220.46 170.59 217.26 170.39 214.06 170.17 Z" />
<path fill="#081133" opacity="1.00" d=" M 395.40 236.10 C 395.74 236.01 396.42 235.83 396.75 235.75 C 398.39 236.92 399.94 238.22 401.51 239.50 C 399.97 241.49 398.41 243.47 396.81 245.43 C 388.31 255.79 379.85 266.19 371.38 276.57 C 365.64 283.58 359.93 290.61 354.19 297.61 C 352.40 296.22 350.60 294.84 348.89 293.36 C 364.35 274.24 380.15 255.38 395.40 236.10 Z" />
<path fill="#081133" opacity="1.00" d=" M 197.15 248.21 C 198.78 244.49 202.97 241.52 207.06 243.42 C 205.62 244.83 203.49 245.86 202.99 247.99 C 202.08 251.25 201.35 255.59 204.69 257.73 C 205.21 254.12 205.53 250.03 208.47 247.45 C 210.24 245.66 214.16 244.62 215.53 247.37 C 217.18 251.62 214.38 255.77 212.24 259.26 C 215.25 260.70 218.81 260.54 221.52 258.51 C 222.31 255.53 221.68 251.49 224.92 249.79 C 226.88 248.78 230.66 247.46 231.56 250.40 C 232.82 253.02 230.80 255.47 229.65 257.68 C 232.92 260.52 237.74 259.22 240.87 256.82 C 243.77 254.26 244.20 249.63 242.69 246.22 C 240.66 245.60 238.48 245.88 236.39 245.73 C 238.04 244.44 239.67 242.58 241.99 242.79 C 244.52 242.64 246.61 244.23 248.34 245.88 C 250.13 249.90 249.77 255.25 245.89 257.91 C 239.68 262.80 231.44 262.37 224.13 261.01 C 218.67 262.79 212.33 265.62 207.07 261.71 C 203.41 262.23 199.64 261.87 196.78 259.31 C 195.50 255.72 195.30 251.64 197.15 248.21 Z" />
<path fill="#081133" opacity="1.00" d=" M 191.46 283.41 C 195.85 279.82 201.98 278.15 207.55 279.34 C 211.80 280.35 214.69 283.96 216.41 287.77 C 218.08 286.68 219.80 285.04 221.97 285.47 C 223.42 285.69 224.34 286.99 225.46 287.80 C 221.63 288.43 217.77 288.89 213.92 289.40 C 205.16 290.45 196.42 291.64 187.65 292.69 C 187.80 289.27 188.64 285.63 191.46 283.41 Z" />
<path fill="#081133" opacity="1.00" d=" M 93.38 346.22 C 122.27 341.21 151.13 335.98 180.06 331.19 C 180.37 333.40 180.64 335.62 180.93 337.85 C 174.82 338.90 168.71 339.98 162.60 341.04 C 146.98 343.78 131.34 346.46 115.72 349.22 C 108.49 350.42 101.30 351.87 94.02 352.83 C 93.75 350.63 93.40 348.44 93.38 346.22 Z" />
<path fill="#081133" opacity="1.00" d=" M 263.56 335.96 C 265.16 334.09 266.40 336.62 267.61 337.40 C 274.54 344.63 279.81 354.23 280.30 364.36 C 275.94 375.45 264.54 381.64 253.55 384.44 C 245.97 386.20 237.41 387.78 230.22 383.90 C 224.18 380.64 221.36 373.77 220.48 367.28 C 219.95 362.28 220.14 357.22 220.67 352.23 C 221.13 350.52 221.44 348.76 221.93 347.06 C 226.49 353.21 230.68 359.61 235.10 365.86 C 235.74 366.86 237.62 369.52 234.93 369.34 C 230.64 364.00 227.17 358.05 223.06 352.58 C 222.06 360.93 221.71 370.23 226.52 377.56 C 229.61 382.00 235.48 384.62 240.80 383.71 C 248.55 379.26 250.50 369.21 249.02 361.01 C 248.37 354.70 245.27 349.08 243.61 343.05 L 245.19 342.63 C 249.36 350.35 251.86 359.20 251.64 368.02 C 251.60 374.00 248.93 379.61 244.85 383.90 C 248.36 383.13 252.07 382.89 255.35 381.34 C 260.45 374.72 261.89 365.69 260.22 357.61 C 259.14 351.48 255.85 346.14 252.70 340.89 C 253.04 340.55 253.71 339.86 254.05 339.51 C 263.19 350.78 266.14 367.35 259.04 380.41 C 267.04 377.13 275.62 371.89 278.04 363.02 C 277.31 356.30 274.21 350.01 270.51 344.43 C 268.53 341.32 265.44 339.12 263.56 335.96 Z" />
<path fill="#081133" opacity="1.00" d=" M 345.06 388.05 C 350.77 379.95 360.07 374.68 369.86 373.49 C 383.41 371.61 397.05 375.82 408.78 382.43 C 407.66 385.93 406.31 389.36 404.91 392.76 C 393.34 391.14 381.62 389.49 369.92 390.34 C 367.39 390.77 363.33 390.91 362.91 394.13 C 363.31 396.42 365.88 397.33 367.77 398.13 C 376.70 400.96 386.51 400.88 395.46 398.17 C 395.55 407.27 396.74 416.41 399.63 425.07 C 402.62 434.62 408.75 443.49 417.89 448.02 C 412.37 434.50 406.25 421.24 400.79 407.70 C 401.34 407.76 402.46 407.86 403.01 407.92 C 409.14 421.46 415.16 435.12 420.55 448.98 C 425.26 450.24 430.15 450.68 435.02 450.39 C 427.29 436.83 419.25 423.47 411.41 409.98 C 411.95 409.75 413.04 409.29 413.58 409.07 C 421.38 422.81 429.69 436.25 437.40 450.04 C 440.98 449.34 444.53 448.51 448.05 447.52 C 438.82 434.37 429.25 421.46 420.00 408.32 C 420.46 408.03 421.38 407.44 421.84 407.15 C 429.03 417.00 436.09 426.94 443.24 436.83 C 445.72 440.21 447.91 443.83 450.92 446.79 C 452.81 461.47 446.08 477.63 432.75 484.81 C 422.30 490.64 409.54 490.71 398.22 487.69 C 381.02 483.03 366.06 471.91 355.09 458.05 C 345.84 446.28 339.23 432.05 338.02 417.01 C 337.22 406.97 339.10 396.35 345.06 388.05 Z" />
<path fill="#081133" opacity="1.00" d=" M 160.15 384.22 C 168.06 382.57 175.83 380.27 183.33 377.27 C 189.73 380.72 195.17 386.00 198.42 392.54 C 203.63 402.87 203.88 415.07 201.34 426.18 C 197.05 444.44 185.91 460.68 171.50 472.51 C 161.01 481.02 148.42 487.38 134.93 489.20 C 125.15 490.50 114.66 489.19 106.24 483.76 C 97.92 478.52 92.26 469.59 90.43 459.99 C 87.51 445.41 91.39 430.25 98.32 417.36 C 106.85 401.75 119.97 388.51 135.88 380.44 C 143.06 384.92 151.96 385.87 160.15 384.22 Z" />
<path fill="#081133" opacity="1.00" d=" M 276.32 382.16 C 278.59 382.15 280.86 382.15 283.14 382.14 C 283.15 409.53 283.14 436.91 283.14 464.30 C 280.89 464.31 278.65 464.33 276.41 464.36 C 276.20 436.96 276.39 409.56 276.32 382.16 Z" />
<path fill="#081133" opacity="1.00" d=" M 223.34 389.72 C 225.57 390.13 227.81 390.56 230.04 391.01 C 224.99 416.17 219.86 441.32 214.85 466.49 C 212.60 466.04 210.36 465.59 208.13 465.12 C 213.22 439.99 218.29 414.86 223.34 389.72 Z" />
<path fill="#081133" opacity="1.00" d=" M 245.21 465.45 C 248.32 440.28 251.43 415.10 254.69 389.95 C 256.89 390.23 259.09 390.51 261.30 390.78 C 258.38 415.96 255.02 441.09 251.95 466.26 C 249.70 465.98 247.46 465.71 245.21 465.45 Z" />
<path fill="#081133" opacity="1.00" d=" M 306.19 392.83 C 309.57 417.02 313.22 441.18 316.67 465.37 C 314.43 465.69 312.19 466.01 309.95 466.33 C 306.61 443.39 303.24 420.45 299.94 397.50 C 301.45 398.28 303.13 399.83 304.94 398.91 C 306.51 397.32 305.98 394.84 306.19 392.83 Z" />
<path fill="#081133" opacity="1.00" d=" M 419.36 395.34 C 420.27 394.24 421.18 393.13 422.09 392.03 C 434.40 402.67 443.60 416.64 448.80 432.03 C 438.97 419.81 429.09 407.63 419.36 395.34 Z" />
<path fill="#081133" opacity="1.00" d=" M 41.11 491.93 C 42.42 491.93 43.74 491.93 45.05 491.95 C 196.69 492.49 348.33 493.17 499.97 493.79 C 501.25 493.79 502.55 493.81 503.85 493.82 C 503.86 499.88 503.83 505.94 503.76 512.00 L 488.29 512.00 C 448.19 511.61 408.09 511.66 367.99 511.41 C 259.01 511.01 150.02 510.52 41.04 510.13 C 41.05 504.06 41.06 497.99 41.11 491.93 Z" />
</g>
<g id="#ca750bff">
<path fill="#ca750b" opacity="1.00" d=" M 261.14 69.48 C 264.47 67.80 262.20 74.30 260.60 71.08 C 260.73 70.68 261.00 69.88 261.14 69.48 Z" />
</g>
<g id="#ca64d8ff">
<path fill="#ca64d8" opacity="1.00" d=" M 202.54 86.88 C 235.74 84.48 269.21 83.31 302.39 86.72 C 303.69 96.50 305.91 106.12 308.40 115.66 C 297.47 110.96 286.61 106.13 275.69 101.41 C 274.46 104.17 273.25 106.94 272.04 109.71 C 285.27 115.35 298.29 121.50 311.66 126.80 C 316.56 142.30 322.58 157.42 327.36 172.96 C 330.48 183.82 333.72 195.72 329.70 206.79 C 328.33 210.14 326.37 213.24 323.82 215.82 C 316.03 223.90 305.90 229.22 295.64 233.48 C 280.50 239.63 264.48 243.44 248.34 245.88 C 246.61 244.23 244.52 242.64 241.99 242.79 C 239.67 242.58 238.04 244.44 236.39 245.73 C 238.48 245.88 240.66 245.60 242.69 246.22 C 244.20 249.63 243.77 254.26 240.87 256.82 C 237.74 259.22 232.92 260.52 229.65 257.68 C 230.80 255.47 232.82 253.02 231.56 250.40 C 230.66 247.46 226.88 248.78 224.92 249.79 C 221.68 251.49 222.31 255.53 221.52 258.51 C 218.81 260.54 215.25 260.70 212.24 259.26 C 214.38 255.77 217.18 251.62 215.53 247.37 C 214.16 244.62 210.24 245.66 208.47 247.45 C 205.53 250.03 205.21 254.12 204.69 257.73 C 201.35 255.59 202.08 251.25 202.99 247.99 C 203.49 245.86 205.62 244.83 207.06 243.42 C 202.97 241.52 198.78 244.49 197.15 248.21 C 195.30 251.64 195.50 255.72 196.78 259.31 C 186.79 256.72 176.87 252.87 169.10 245.86 C 164.04 241.42 159.95 235.94 156.90 229.95 C 153.07 222.33 150.95 213.98 149.86 205.55 C 154.03 202.79 157.79 199.46 161.47 196.07 C 162.09 195.49 162.68 194.87 163.22 194.21 C 166.30 190.52 169.34 186.80 172.09 182.86 C 172.45 182.29 173.17 181.14 173.53 180.56 C 175.56 176.99 177.61 173.42 179.39 169.71 C 179.72 168.97 180.04 168.23 180.35 167.48 C 182.22 162.90 183.79 158.21 185.08 153.44 C 185.67 153.43 186.84 153.42 187.43 153.42 C 187.41 152.90 187.37 151.88 187.35 151.37 C 186.93 151.33 186.09 151.26 185.68 151.22 C 186.12 147.10 187.12 143.07 187.62 138.97 C 187.30 133.51 187.03 128.02 185.71 122.69 C 185.29 120.86 184.93 119.02 184.61 117.17 C 190.81 107.21 196.57 96.97 202.54 86.88 M 261.67 113.08 C 256.23 126.20 241.40 132.05 228.05 132.38 C 227.90 135.42 227.83 138.46 227.79 141.50 C 235.55 141.17 243.38 139.78 250.46 136.47 C 259.18 132.53 266.51 125.38 270.05 116.41 C 267.28 115.25 264.49 114.12 261.67 113.08 M 304.85 151.98 C 303.65 155.41 302.17 159.20 298.88 161.14 C 295.88 162.69 292.46 160.79 290.40 158.55 C 285.99 153.65 283.60 147.36 281.42 141.24 C 280.10 141.73 278.79 142.23 277.47 142.72 C 279.02 149.31 281.18 156.15 286.02 161.10 C 289.36 164.63 294.76 166.18 299.39 164.49 C 303.15 163.09 305.42 159.43 306.70 155.82 C 309.11 148.80 309.00 141.25 308.63 133.93 C 307.52 139.97 306.87 146.14 304.85 151.98 M 261.58 140.02 C 260.29 147.05 259.56 154.27 256.80 160.93 C 255.62 163.70 254.00 166.70 251.05 167.89 C 248.07 168.80 245.12 166.99 243.18 164.86 C 238.78 159.97 236.50 153.67 234.24 147.61 C 232.97 148.47 229.42 148.52 230.78 150.94 C 232.46 157.46 234.92 164.33 240.27 168.75 C 245.10 172.87 253.57 172.64 257.17 167.01 C 262.36 159.08 261.77 149.09 261.58 140.02 M 273.54 149.42 C 271.50 158.48 269.81 167.62 267.87 176.70 C 274.39 175.84 281.00 174.58 287.59 175.53 C 289.47 175.88 292.28 176.47 292.09 178.97 C 290.09 181.87 286.23 182.23 283.10 183.11 C 272.13 185.25 260.90 185.90 249.73 185.92 C 251.39 184.05 253.22 181.69 256.02 181.86 C 258.46 181.76 260.64 184.84 262.96 182.84 C 260.40 180.30 256.47 178.64 252.96 180.17 C 249.53 181.58 247.68 185.04 246.25 188.25 C 258.31 188.26 270.44 187.83 282.32 185.59 C 286.12 184.71 290.23 183.84 293.21 181.15 C 295.54 178.94 293.91 174.96 291.05 174.17 C 284.51 171.94 277.45 173.15 270.76 173.98 C 272.28 165.52 274.63 157.19 275.60 148.64 C 275.08 148.83 274.05 149.23 273.54 149.42 M 214.06 170.17 C 217.26 170.39 220.46 170.59 223.64 171.00 C 217.70 174.82 211.61 178.50 206.53 183.46 C 198.03 191.26 191.40 202.12 191.79 214.00 C 191.63 221.22 194.85 229.00 201.59 232.34 C 210.17 236.55 220.39 234.95 229.03 231.74 C 229.01 231.23 228.96 230.21 228.93 229.70 C 222.69 231.33 216.31 233.28 209.78 232.43 C 217.30 221.87 225.17 211.57 232.67 201.00 C 240.60 202.56 248.58 200.17 256.08 197.75 C 255.90 197.21 255.54 196.11 255.36 195.56 C 248.18 197.91 240.50 200.37 232.91 198.68 C 228.72 197.80 225.51 194.25 224.71 190.10 C 223.42 183.76 224.88 177.24 226.87 171.21 C 229.03 171.32 231.19 171.37 233.35 171.20 C 232.65 170.01 231.48 169.28 230.12 169.14 C 224.80 168.05 219.22 168.54 214.06 170.17 Z" />
<path fill="#ca64d8" opacity="1.00" d=" M 371.38 276.57 C 379.85 266.19 388.31 255.79 396.81 245.43 C 411.73 253.29 425.84 263.40 436.10 276.94 C 444.46 287.89 449.71 301.27 450.49 315.07 C 451.74 334.14 445.69 352.94 436.78 369.58 C 432.48 377.43 427.66 385.01 422.09 392.03 C 421.18 393.13 420.27 394.24 419.36 395.34 C 429.09 407.63 438.97 419.81 448.80 432.03 C 451.79 435.87 454.90 439.63 457.94 443.43 C 455.56 444.47 453.19 445.54 450.92 446.79 C 447.91 443.83 445.72 440.21 443.24 436.83 C 436.09 426.94 429.03 417.00 421.84 407.15 C 421.38 407.44 420.46 408.03 420.00 408.32 C 429.25 421.46 438.82 434.37 448.05 447.52 C 444.53 448.51 440.98 449.34 437.40 450.04 C 429.69 436.25 421.38 422.81 413.58 409.07 C 413.04 409.29 411.95 409.75 411.41 409.98 C 419.25 423.47 427.29 436.83 435.02 450.39 C 430.15 450.68 425.26 450.24 420.55 448.98 C 415.16 435.12 409.14 421.46 403.01 407.92 C 402.46 407.86 401.34 407.76 400.79 407.70 C 406.25 421.24 412.37 434.50 417.89 448.02 C 408.75 443.49 402.62 434.62 399.63 425.07 C 396.74 416.41 395.55 407.27 395.46 398.17 C 386.51 400.88 376.70 400.96 367.77 398.13 C 365.88 397.33 363.31 396.42 362.91 394.13 C 363.33 390.91 367.39 390.77 369.92 390.34 C 381.62 389.49 393.34 391.14 404.91 392.76 C 406.31 389.36 407.66 385.93 408.78 382.43 C 410.15 378.13 411.27 373.76 412.10 369.33 C 415.47 351.65 413.14 332.93 405.21 316.75 C 397.51 300.79 385.27 287.40 371.38 276.57 Z" />
<path fill="#ca64d8" opacity="1.00" d=" M 220.61 301.61 C 230.11 300.48 239.59 299.21 249.08 298.05 C 250.23 303.34 247.05 308.28 242.55 310.82 C 245.55 313.85 247.11 317.91 247.56 322.11 C 242.25 323.00 237.05 324.44 231.73 325.22 C 229.35 321.69 229.53 316.60 230.61 312.52 C 225.36 311.25 220.82 307.24 220.29 301.65 L 220.61 301.61 Z" />
<path fill="#ca64d8" opacity="1.00" d=" M 169.00 353.70 C 204.50 342.75 239.95 331.59 275.39 320.44 C 283.45 336.08 291.14 351.93 297.91 368.18 C 300.63 374.96 303.51 381.74 305.07 388.90 C 304.41 390.33 304.77 391.39 306.13 392.09 L 306.19 392.83 C 305.98 394.84 306.51 397.32 304.94 398.91 C 303.13 399.83 301.45 398.28 299.94 397.50 C 291.34 387.84 285.87 375.91 280.30 364.36 C 279.81 354.23 274.54 344.63 267.61 337.40 C 266.40 336.62 265.16 334.09 263.56 335.96 C 265.44 339.12 268.53 341.32 270.51 344.43 C 274.21 350.01 277.31 356.30 278.04 363.02 C 275.62 371.89 267.04 377.13 259.04 380.41 C 266.14 367.35 263.19 350.78 254.05 339.51 C 253.71 339.86 253.04 340.55 252.70 340.89 C 255.85 346.14 259.14 351.48 260.22 357.61 C 261.89 365.69 260.45 374.72 255.35 381.34 C 252.07 382.89 248.36 383.13 244.85 383.90 C 248.93 379.61 251.60 374.00 251.64 368.02 C 251.86 359.20 249.36 350.35 245.19 342.63 L 243.61 343.05 C 245.27 349.08 248.37 354.70 249.02 361.01 C 250.50 369.21 248.55 379.26 240.80 383.71 C 235.48 384.62 229.61 382.00 226.52 377.56 C 221.71 370.23 222.06 360.93 223.06 352.58 C 227.17 358.05 230.64 364.00 234.93 369.34 C 237.62 369.52 235.74 366.86 235.10 365.86 C 230.68 359.61 226.49 353.21 221.93 347.06 C 221.44 348.76 221.13 350.52 220.67 352.23 C 215.32 357.51 209.78 362.65 203.47 366.78 C 197.11 370.91 190.37 374.44 183.33 377.27 C 175.83 380.27 168.06 382.57 160.15 384.22 C 151.96 385.87 143.06 384.92 135.88 380.44 C 130.45 376.99 126.17 372.02 122.92 366.52 C 119.75 361.11 117.50 355.22 115.72 349.22 C 131.34 346.46 146.98 343.78 162.60 341.04 C 164.71 345.27 166.89 349.47 169.00 353.70 Z" />
</g>
<g id="#ff6b3eff">
<path fill="#ff6b3e" opacity="1.00" d=" M 142.45 104.95 C 150.37 101.13 159.65 98.92 168.24 101.81 C 176.54 104.53 182.56 112.02 184.85 120.28 C 179.74 120.38 174.63 120.05 169.54 119.74 C 166.25 111.90 160.27 104.82 151.86 102.36 C 151.49 103.80 151.12 105.24 150.76 106.68 C 155.64 108.53 159.99 111.79 162.64 116.35 C 168.86 126.69 169.84 139.32 168.68 151.09 C 166.70 167.96 160.30 184.92 148.19 197.14 C 142.06 203.44 133.36 207.64 124.42 206.13 C 124.09 207.56 123.76 208.98 123.44 210.41 C 127.25 210.89 131.20 211.24 134.95 210.13 C 143.14 208.08 149.63 202.26 155.25 196.24 C 157.32 196.20 159.39 196.17 161.47 196.07 C 157.79 199.46 154.03 202.79 149.86 205.55 C 141.21 211.24 130.46 215.15 120.07 212.56 C 111.49 210.47 105.01 203.24 102.13 195.12 C 97.89 183.26 98.91 170.16 102.17 158.19 C 107.06 140.93 116.74 124.84 130.40 113.11 C 131.96 111.81 133.60 110.60 135.24 109.39 C 134.80 120.26 135.04 131.13 135.38 142.00 C 126.50 147.11 118.76 155.03 115.89 165.06 C 114.59 169.60 114.56 175.28 118.29 178.71 C 122.50 182.49 128.85 181.62 133.70 179.65 C 143.24 175.60 151.11 167.55 154.85 157.88 C 156.68 152.95 157.38 146.60 153.51 142.44 C 150.62 139.23 145.99 139.52 142.06 139.55 C 141.43 128.02 141.72 116.46 142.45 104.95 Z" />
<path fill="#ff6b3e" opacity="1.00" d=" M 170.44 122.17 C 175.53 122.31 180.62 122.61 185.71 122.69 C 187.03 128.02 187.30 133.51 187.62 138.97 C 187.12 143.07 186.12 147.10 185.68 151.22 C 181.56 151.07 177.43 151.20 173.31 151.19 C 173.60 146.86 173.70 142.53 173.59 138.20 C 177.96 138.24 182.48 139.84 186.75 138.77 C 186.94 138.45 187.32 137.80 187.52 137.48 C 182.88 136.43 178.10 136.40 173.39 135.92 C 172.83 131.25 171.87 126.64 170.44 122.17 Z" />
<path fill="#ff6b3e" opacity="1.00" d=" M 173.05 153.46 C 177.06 153.44 181.07 153.45 185.08 153.44 C 183.79 158.21 182.22 162.90 180.35 167.48 C 176.97 167.30 173.59 167.17 170.21 167.03 C 171.38 162.55 172.31 158.02 173.05 153.46 Z" />
<path fill="#ff6b3e" opacity="1.00" d=" M 164.49 181.74 C 166.44 177.68 168.06 173.47 169.65 169.26 C 172.90 169.42 176.14 169.55 179.39 169.71 C 177.61 173.42 175.56 176.99 173.53 180.56 C 170.50 180.82 167.49 181.26 164.49 181.74 Z" />
<path fill="#ff6b3e" opacity="1.00" d=" M 163.24 184.25 C 166.19 183.79 169.15 183.41 172.09 182.86 C 169.34 186.80 166.30 190.52 163.22 194.21 C 161.17 193.92 159.09 193.83 157.02 193.74 C 159.33 190.74 161.34 187.52 163.24 184.25 Z" />
<path fill="#ff6b3e" opacity="1.00" d=" M 200.31 476.43 C 204.76 475.74 209.73 475.86 213.62 478.39 C 215.34 479.32 215.85 481.99 214.09 483.17 C 210.07 486.18 204.54 486.23 199.79 485.42 C 197.41 484.77 194.08 483.85 193.67 480.98 C 194.19 477.90 197.75 477.05 200.31 476.43 Z" />
<path fill="#ff6b3e" opacity="1.00" d=" M 245.40 476.50 C 249.63 475.73 254.18 475.92 258.12 477.77 C 259.95 478.59 261.67 480.99 259.90 482.76 C 256.76 485.78 251.99 486.02 247.88 485.79 C 244.71 485.45 240.90 484.78 239.22 481.74 C 238.73 478.40 242.83 477.09 245.40 476.50 Z" />
<path fill="#ff6b3e" opacity="1.00" d=" M 291.24 476.43 C 295.74 475.73 300.77 475.87 304.66 478.52 C 306.50 479.55 306.46 482.45 304.63 483.49 C 300.56 486.11 295.37 486.27 290.74 485.42 C 288.26 484.80 285.06 483.85 284.48 480.95 C 285.16 477.90 288.62 477.03 291.24 476.43 Z" />
<path fill="#ff6b3e" opacity="1.00" d=" M 335.54 476.64 C 339.79 475.73 344.39 475.79 348.43 477.54 C 350.12 478.28 352.08 479.83 351.38 481.94 C 349.16 485.24 344.69 485.73 341.04 485.87 C 337.23 485.79 332.51 485.39 330.19 481.93 C 329.36 478.76 333.13 477.28 335.54 476.64 Z" />
</g>
<g id="#f7e7c6ff">
<path fill="#f7e7c6" opacity="1.00" d=" M 198.93 196.11 C 205.01 186.69 213.96 179.54 223.51 173.87 C 222.02 180.51 220.75 187.86 223.80 194.27 C 225.48 197.80 228.96 200.05 232.67 201.00 C 225.17 211.57 217.30 221.87 209.78 232.43 C 204.25 231.82 198.63 228.96 196.17 223.75 C 192.60 216.12 193.90 207.14 197.06 199.59 C 202.02 204.36 206.75 209.35 211.82 214.01 C 207.56 208.01 203.15 202.13 198.93 196.11 Z" />
</g>
<g id="#7404a3ff">
<path fill="#7404a3" opacity="1.00" d=" M 323.82 215.82 C 326.37 213.24 328.33 210.14 329.70 206.79 C 332.10 207.65 334.56 208.39 337.03 209.05 C 357.82 214.82 377.22 224.64 395.40 236.10 C 380.15 255.38 364.35 274.24 348.89 293.36 C 332.34 279.45 315.55 265.82 298.88 252.05 C 297.62 245.89 296.53 239.70 295.64 233.48 C 305.90 229.22 316.03 223.90 323.82 215.82 Z" />
<path fill="#7404a3" opacity="1.00" d=" M 93.38 346.22 C 93.78 317.57 98.11 287.80 113.37 263.01 C 119.93 262.82 126.60 262.72 132.99 264.47 C 144.16 267.10 154.12 273.90 161.19 282.88 C 172.10 296.67 177.54 313.99 180.06 331.19 C 151.13 335.98 122.27 341.21 93.38 346.22 Z" />
<path fill="#7404a3" opacity="1.00" d=" M 253.17 273.10 C 257.39 269.36 263.44 267.68 268.99 268.55 C 273.45 269.35 276.64 273.00 278.40 276.97 C 280.88 274.93 285.58 273.40 287.07 277.34 C 284.19 277.69 281.31 278.03 278.44 278.41 C 268.88 279.67 259.31 280.89 249.74 282.07 C 249.92 278.82 250.57 275.33 253.17 273.10 Z" />
</g>
<g id="#ff618eff">
<path fill="#ff618e" opacity="1.00" d=" M 249.74 282.07 C 259.31 280.89 268.88 279.67 278.44 278.41 C 279.99 283.78 276.30 288.51 272.12 291.37 C 275.12 294.33 276.72 298.38 276.96 302.57 C 271.52 303.46 266.17 304.80 260.73 305.70 C 259.42 301.53 258.92 297.14 259.90 292.85 C 254.73 291.51 250.37 287.56 249.74 282.07 Z" />
</g>
<g id="#ad697eff">
<path fill="#ad697e" opacity="1.00" d=" M 305.07 388.90 C 306.08 389.75 306.43 390.81 306.13 392.09 C 304.77 391.39 304.41 390.33 305.07 388.90 Z" />
</g>
</svg>
