<?xml version="1.0" encoding="UTF-8" ?>
<!DOCTYPE svg PUBLIC "-//W3C//DTD SVG 1.1//EN" "http://www.w3.org/Graphics/SVG/1.1/DTD/svg11.dtd">
<svg width="512pt" height="512pt" viewBox="0 0 512 512" version="1.1" xmlns="http://www.w3.org/2000/svg">
<g id="#000e3fff">
<path fill="#000e3f" opacity="1.00" d=" M 153.40 46.62 C 185.76 37.88 220.26 37.27 252.94 44.71 C 257.29 45.62 261.52 47.33 266.03 47.23 C 334.36 47.16 402.70 47.23 471.03 47.19 C 477.53 47.02 484.13 48.10 489.99 50.99 C 502.26 56.69 510.62 69.18 512.00 82.54 L 512.00 410.36 C 510.83 421.29 505.27 431.77 496.32 438.26 C 490.31 442.89 482.89 445.16 475.44 446.01 C 475.19 453.34 477.08 461.59 472.43 467.97 C 470.84 467.84 469.96 468.56 469.81 470.15 C 466.53 472.10 462.71 472.65 458.95 472.49 C 452.11 472.35 444.28 473.61 438.73 468.58 C 438.65 468.50 438.50 468.34 438.43 468.25 C 433.70 461.74 435.72 453.40 435.30 445.95 C 430.65 445.92 426.00 445.87 421.35 446.06 C 420.96 453.55 423.45 462.64 417.48 468.57 C 411.84 474.28 403.18 472.04 396.01 472.47 C 389.33 473.05 382.53 468.34 381.50 461.58 C 380.89 456.39 381.35 451.15 381.21 445.94 C 376.59 445.92 371.96 445.91 367.34 445.98 C 366.97 453.32 368.87 461.48 364.36 467.94 C 362.69 467.82 361.85 468.55 361.87 470.15 C 359.08 471.44 356.15 472.59 353.02 472.46 C 346.08 472.29 338.69 473.52 332.30 470.11 C 331.97 468.80 331.14 468.04 329.82 467.83 C 325.86 461.17 327.46 453.28 327.16 445.94 C 306.77 445.91 286.38 445.96 265.99 445.91 C 261.60 445.83 257.46 447.39 253.23 448.31 C 222.98 455.25 191.18 455.26 160.93 448.36 C 156.94 447.52 153.08 445.94 148.96 445.93 C 115.31 445.93 81.65 445.95 47.99 445.92 C 38.64 446.06 29.25 442.88 22.13 436.78 C 13.41 429.52 8.22 418.30 8.35 406.95 C 8.33 373.65 8.34 340.35 8.35 307.06 C 8.31 304.37 7.55 301.77 6.84 299.20 C 2.69 284.03 0.72 268.35 0.00 252.66 L 0.00 238.59 C 0.97 223.59 2.79 208.58 6.80 194.06 C 7.52 191.43 8.31 188.78 8.35 186.04 C 8.35 152.68 8.32 119.32 8.35 85.96 C 8.29 75.83 12.41 65.78 19.59 58.63 C 26.71 51.39 36.78 47.18 46.94 47.21 C 78.29 47.18 109.64 47.21 140.98 47.20 C 145.12 47.13 149.33 47.58 153.40 46.62 M 181.78 46.43 C 180.83 45.07 177.09 45.03 177.38 47.11 C 174.54 47.20 171.74 47.80 168.96 48.36 C 167.48 47.17 166.57 47.41 166.24 49.09 C 165.66 49.15 164.51 49.27 163.94 49.32 C 162.45 48.20 161.54 48.47 161.23 50.12 L 159.79 49.95 C 158.32 49.21 157.51 49.60 157.35 51.13 L 155.86 50.99 C 154.37 50.17 153.53 50.56 153.33 52.14 C 150.28 52.31 147.42 53.51 144.52 54.38 C 135.31 57.45 126.17 60.90 117.61 65.49 C 117.56 65.52 117.46 65.57 117.41 65.60 C 116.17 66.24 114.92 66.88 113.67 67.51 C 113.62 67.54 113.52 67.59 113.46 67.62 L 111.68 68.55 C 111.63 68.58 111.52 68.64 111.46 68.67 C 109.83 69.58 108.21 70.50 106.59 71.41 C 106.54 71.44 106.45 71.49 106.41 71.52 L 104.72 72.49 C 104.67 72.52 104.57 72.58 104.52 72.61 C 101.86 74.20 99.23 75.83 96.63 77.51 C 96.59 77.54 96.51 77.59 96.46 77.62 C 95.75 78.10 94.31 79.05 93.60 79.53 C 93.56 79.56 93.47 79.62 93.43 79.64 C 73.74 93.11 56.44 110.05 42.56 129.46 C 42.53 129.50 42.48 129.58 42.45 129.62 C 39.71 133.48 37.11 137.44 34.63 141.47 C 34.60 141.51 34.54 141.61 34.51 141.66 C 33.55 143.25 32.60 144.86 31.66 146.47 C 31.63 146.51 31.58 146.60 31.55 146.65 C 23.68 160.65 16.64 175.42 13.06 191.14 L 12.16 191.31 L 11.74 192.30 L 12.23 193.08 C 12.19 193.60 12.10 194.65 12.05 195.17 L 11.16 195.29 L 10.69 196.24 L 11.13 197.05 L 11.11 198.25 C 9.41 198.63 9.18 199.55 10.42 201.01 C 9.80 203.39 9.17 205.80 9.11 208.28 C 7.40 208.60 7.15 209.51 8.36 210.99 C 4.61 232.46 4.06 254.54 7.46 276.07 C 6.06 276.76 6.18 280.08 8.08 279.65 C 8.11 280.23 8.16 281.39 8.18 281.97 L 7.70 282.76 L 8.14 283.74 L 9.02 283.89 C 8.94 286.64 9.76 289.33 10.40 291.99 C 9.16 293.44 9.40 294.35 11.10 294.73 L 11.11 295.99 L 10.69 296.80 L 11.20 297.74 L 12.10 297.82 C 12.09 298.50 12.07 299.87 12.06 300.55 L 12.69 300.11 C 13.27 304.88 14.91 309.42 16.48 313.94 C 32.03 357.50 62.93 395.39 102.53 419.33 C 102.57 419.35 102.65 419.40 102.69 419.42 C 120.52 430.11 139.81 438.69 160.26 442.84 C 160.67 444.57 161.61 444.79 163.06 443.50 C 165.74 444.16 168.45 444.91 171.23 444.89 C 171.58 446.58 172.49 446.83 173.96 445.62 C 193.51 448.80 213.60 449.18 233.23 446.56 C 234.16 447.91 237.87 447.98 237.63 445.92 C 238.23 445.85 239.43 445.70 240.03 445.63 C 241.49 446.83 242.41 446.59 242.78 444.91 C 250.32 444.22 257.59 441.76 264.95 440.11 C 310.39 426.54 350.50 396.20 376.34 356.47 C 376.37 356.43 376.42 356.36 376.44 356.32 C 406.88 309.67 416.73 250.07 402.39 196.21 C 403.48 194.14 404.59 192.09 405.77 190.07 C 405.99 190.58 406.44 191.60 406.67 192.11 C 418.35 234.57 415.90 280.79 399.79 321.78 C 385.71 357.91 361.17 389.83 330.02 412.90 C 322.61 418.63 314.38 423.15 306.62 428.32 C 297.48 432.48 288.51 437.17 279.08 440.73 C 341.70 440.73 404.32 440.72 466.95 440.73 C 473.15 440.82 479.56 440.79 485.40 438.41 C 494.50 434.90 502.02 427.18 504.96 417.86 L 505.85 417.68 L 506.24 416.67 L 505.71 415.89 C 507.54 408.05 506.87 399.98 506.98 392.01 C 506.98 294.69 506.98 197.37 506.98 100.06 C 506.90 92.41 507.48 84.65 505.69 77.14 L 506.23 76.36 L 505.85 75.35 L 504.96 75.16 C 501.42 64.10 491.53 55.41 480.17 53.12 C 474.83 52.15 469.40 52.41 464.01 52.39 C 402.45 52.39 340.88 52.40 279.31 52.39 C 288.41 56.08 297.32 60.21 306.06 64.66 C 317.93 71.60 329.56 79.08 339.98 88.11 C 367.46 111.13 388.83 141.38 401.22 175.04 C 400.17 176.98 399.08 178.92 397.96 180.83 C 385.68 145.38 363.43 113.48 334.27 89.87 C 328.88 85.55 323.31 81.45 317.55 77.64 C 317.51 77.61 317.42 77.56 317.38 77.53 C 314.78 75.86 312.16 74.21 309.51 72.63 C 309.47 72.60 309.38 72.55 309.34 72.52 C 307.08 71.22 304.81 69.95 302.54 68.68 C 302.48 68.65 302.37 68.59 302.32 68.56 L 300.58 67.64 C 300.51 67.61 300.39 67.55 300.33 67.52 L 298.62 66.65 C 298.55 66.61 298.43 66.55 298.36 66.52 L 296.59 65.60 C 296.54 65.57 296.43 65.51 296.38 65.49 C 283.82 59.14 270.52 53.77 256.65 51.16 C 256.52 49.58 255.70 49.18 254.20 49.95 L 252.73 50.11 C 252.43 48.45 251.53 48.18 250.05 49.28 C 249.48 49.23 248.34 49.14 247.77 49.09 C 247.44 47.42 246.53 47.16 245.05 48.32 C 244.45 48.26 243.25 48.15 242.65 48.10 C 243.14 46.23 239.84 46.04 239.11 47.38 C 238.49 47.30 237.26 47.16 236.64 47.08 C 236.85 45.05 233.16 45.11 232.18 46.42 C 227.83 45.74 223.39 45.48 219.00 45.04 C 206.59 44.87 194.08 44.48 181.78 46.43 M 37.27 53.15 L 37.11 54.04 C 26.90 56.84 18.58 65.29 15.27 75.29 C 13.30 80.64 13.68 86.43 13.62 92.03 C 13.73 118.48 13.42 144.93 13.77 171.36 C 16.32 166.85 17.89 161.87 20.27 157.27 C 21.93 153.43 24.34 149.96 25.89 146.08 C 33.11 133.89 41.04 122.06 50.41 111.40 C 66.56 92.50 86.34 76.94 107.90 64.67 C 116.43 60.22 125.28 56.43 134.04 52.47 C 106.69 52.29 79.33 52.46 51.98 52.38 C 47.66 52.34 43.31 52.49 39.05 53.26 L 38.27 52.75 L 37.27 53.15 M 13.73 321.80 C 13.48 348.19 13.70 374.60 13.62 400.99 C 13.65 406.84 13.31 412.91 15.50 418.46 C 18.96 428.08 27.13 436.47 37.15 438.93 L 37.25 439.82 L 38.21 440.29 L 39.02 439.83 C 43.62 440.65 48.31 440.89 52.97 440.79 C 80.34 440.78 107.70 440.77 135.07 440.80 C 125.77 437.24 116.82 432.80 107.91 428.44 C 99.64 423.31 91.12 418.52 83.47 412.46 C 59.88 395.04 40.44 372.33 25.88 346.93 C 23.94 342.44 21.22 338.30 19.31 333.77 C 17.28 329.86 16.11 325.53 13.73 321.80 M 332.17 445.94 C 332.43 451.82 331.43 457.86 333.05 463.62 L 333.50 463.33 C 334.78 465.75 337.30 467.36 340.07 467.39 C 344.68 467.56 349.29 467.50 353.91 467.43 C 358.08 467.58 362.03 464.14 362.24 459.94 C 362.51 455.28 362.27 450.60 362.33 445.94 C 359.38 445.92 356.44 445.92 353.50 445.95 C 346.39 445.92 339.28 445.93 332.17 445.94 M 386.21 445.98 C 386.55 451.71 385.45 457.61 387.06 463.21 C 388.69 465.01 390.48 467.03 393.08 467.27 C 398.03 467.67 403.03 467.44 408.00 467.43 C 412.20 467.58 416.15 464.11 416.33 459.88 C 416.58 455.23 416.35 450.58 416.42 445.94 C 413.32 445.93 410.23 445.92 407.14 445.94 C 400.16 445.95 393.18 445.88 386.21 445.98 M 440.22 447.59 C 440.55 452.66 439.81 457.81 440.91 462.83 C 442.55 464.78 444.35 466.98 447.09 467.26 C 452.02 467.69 456.99 467.44 461.94 467.43 C 466.15 467.62 470.18 464.22 470.41 459.96 C 470.67 455.80 470.44 451.63 470.50 447.48 C 466.89 447.46 463.29 447.45 459.69 447.47 C 453.20 447.52 446.71 447.33 440.22 447.59 Z" />
<path fill="#000e3f" opacity="1.00" d=" M 437.42 79.39 C 439.08 76.13 442.21 73.58 445.92 73.21 C 450.03 72.60 453.55 75.15 456.96 77.00 C 461.59 79.74 466.49 82.04 470.99 85.00 C 475.49 87.97 476.75 94.48 474.01 99.06 C 461.50 121.54 448.87 143.95 436.36 166.42 C 435.00 168.94 433.06 171.31 430.29 172.33 C 426.21 174.05 421.38 172.72 418.28 169.69 C 417.06 169.19 415.82 168.74 414.61 168.23 C 413.17 167.38 411.74 166.53 410.29 165.72 C 406.86 163.53 402.75 162.12 400.14 158.87 C 397.47 155.38 397.48 150.39 399.76 146.71 C 412.31 124.27 424.87 101.83 437.42 79.39 M 442.24 81.16 C 438.60 87.41 435.16 93.78 431.61 100.08 C 422.48 116.48 413.17 132.79 404.18 149.26 L 403.80 149.36 C 402.65 152.09 402.84 155.75 405.73 157.31 C 411.63 160.77 417.65 164.05 423.64 167.36 C 426.49 169.09 430.30 167.56 431.60 164.61 C 440.79 148.21 449.97 131.81 459.14 115.40 C 462.72 108.87 466.57 102.47 469.98 95.85 C 471.29 93.36 469.97 90.57 468.04 88.85 C 461.78 85.64 455.83 81.85 449.55 78.70 C 446.95 77.35 443.52 78.57 442.24 81.16 Z" />
<path fill="#000e3f" opacity="1.00" d=" M 161.40 90.49 C 168.11 88.51 175.70 93.90 175.86 100.94 C 176.56 108.67 167.95 115.26 160.67 112.37 C 154.21 110.36 150.88 102.17 154.21 96.26 C 155.74 93.50 158.38 91.39 161.40 90.49 Z" />
<path fill="#000e3f" opacity="1.00" d=" M 246.38 90.59 C 252.45 88.64 259.37 92.85 260.74 98.99 C 262.58 105.97 256.18 113.74 248.92 112.95 C 241.87 112.91 236.24 105.09 238.57 98.38 C 239.65 94.68 242.68 91.67 246.38 90.59 Z" />
<path fill="#000e3f" opacity="1.00" d=" M 188.43 102.52 C 190.19 101.29 192.55 102.96 192.23 105.03 C 192.47 111.31 195.10 118.05 200.81 121.25 C 206.25 124.43 213.71 122.51 217.38 117.52 C 220.59 113.74 221.42 108.73 221.92 103.97 C 222.13 101.76 225.58 101.54 226.39 103.44 C 227.89 114.79 219.27 127.83 207.06 127.81 C 196.38 128.20 188.43 118.01 187.47 108.09 C 187.45 106.30 186.64 103.70 188.43 102.52 Z" />
<path fill="#000e3f" opacity="1.00" d=" M 339.91 265.77 C 343.55 262.66 347.94 258.70 353.11 260.89 C 356.47 262.68 359.81 264.51 363.09 266.45 C 366.18 268.25 367.90 271.62 367.80 275.17 C 367.69 275.49 367.47 276.14 367.35 276.46 C 364.02 285.24 360.71 294.03 357.60 302.89 C 358.89 303.75 360.18 304.61 361.47 305.49 C 364.37 307.43 367.38 310.20 367.09 314.04 C 367.12 319.79 360.47 323.61 355.38 321.16 C 352.53 319.69 349.77 318.08 346.97 316.55 C 345.27 315.49 343.32 314.72 341.59 316.16 C 329.61 323.35 316.97 329.40 305.14 336.82 C 302.91 337.82 300.59 338.61 298.27 339.40 C 293.27 339.03 290.57 334.63 288.22 330.80 C 285.93 327.10 283.10 323.73 281.17 319.82 C 279.54 316.37 281.15 312.24 284.10 310.08 C 301.15 296.50 318.30 283.03 335.31 269.38 C 336.84 268.17 338.39 266.99 339.91 265.77 M 347.48 266.33 C 327.54 282.09 307.66 297.95 287.71 313.72 C 286.42 314.59 285.86 316.07 285.23 317.42 L 285.51 317.21 C 289.17 323.06 292.63 329.21 297.32 334.31 C 298.79 333.87 300.26 333.38 301.60 332.61 C 313.16 326.14 324.77 319.78 336.34 313.35 C 338.85 312.03 341.21 310.32 343.98 309.55 C 348.69 311.37 353.00 314.11 357.40 316.57 C 359.72 317.77 362.79 315.52 362.03 312.94 C 361.35 311.16 359.51 310.31 358.05 309.28 C 355.78 307.33 350.89 305.86 352.39 302.01 C 355.60 292.95 359.21 284.03 362.30 274.93 C 363.39 271.25 358.63 270.31 356.40 268.66 C 353.63 267.53 350.48 263.93 347.48 266.33 Z" />
</g>
<g id="#007af4ff">
<path fill="#007af4" opacity="1.00" d=" M 181.78 46.43 C 194.08 44.48 206.59 44.87 219.00 45.04 C 223.39 45.48 227.83 45.74 232.18 46.42 C 233.62 46.90 235.12 47.22 236.64 47.08 C 237.26 47.16 238.49 47.30 239.11 47.38 C 240.22 47.87 241.40 48.26 242.65 48.10 C 243.25 48.15 244.45 48.26 245.05 48.32 C 245.84 48.99 246.75 49.25 247.77 49.09 C 248.34 49.14 249.48 49.23 250.05 49.28 C 250.82 50.02 251.71 50.30 252.73 50.11 L 254.20 49.95 C 254.63 50.95 255.45 51.35 256.65 51.16 C 270.52 53.77 283.82 59.14 296.38 65.49 C 296.43 65.51 296.54 65.57 296.59 65.60 L 298.36 66.52 C 298.43 66.55 298.55 66.61 298.62 66.65 L 300.33 67.52 C 300.39 67.55 300.51 67.61 300.58 67.64 L 302.32 68.56 C 302.37 68.59 302.48 68.65 302.54 68.68 C 304.81 69.95 307.08 71.22 309.34 72.52 C 309.38 72.55 309.47 72.60 309.51 72.63 C 312.16 74.21 314.78 75.86 317.38 77.53 C 317.42 77.56 317.51 77.61 317.55 77.64 C 323.31 81.45 328.88 85.55 334.27 89.87 C 328.32 93.97 325.18 100.71 323.28 107.46 C 300.85 88.94 274.14 75.54 245.66 69.44 C 211.42 61.94 174.99 64.61 142.28 77.26 C 106.87 90.71 76.04 115.69 55.33 147.39 C 27.61 189.14 18.62 242.82 31.43 291.29 C 28.70 292.40 25.84 293.15 23.04 294.07 C 19.21 295.34 15.98 297.84 12.69 300.11 L 12.06 300.55 C 12.07 299.87 12.09 298.50 12.10 297.82 C 11.85 297.36 11.35 296.45 11.11 295.99 L 11.10 294.73 C 11.23 293.73 10.99 292.81 10.40 291.99 C 9.76 289.33 8.94 286.64 9.02 283.89 C 8.81 283.41 8.39 282.45 8.18 281.97 C 8.16 281.39 8.11 280.23 8.08 279.65 C 8.22 278.41 7.90 277.21 7.46 276.07 C 4.06 254.54 4.61 232.46 8.36 210.99 C 8.96 210.18 9.21 209.27 9.11 208.28 C 9.17 205.80 9.80 203.39 10.42 201.01 C 11.00 200.17 11.23 199.25 11.11 198.25 L 11.13 197.05 C 11.36 196.58 11.82 195.64 12.05 195.17 C 12.10 194.65 12.19 193.60 12.23 193.08 C 12.44 192.60 12.85 191.62 13.06 191.14 C 16.64 175.42 23.68 160.65 31.55 146.65 C 31.58 146.60 31.63 146.51 31.66 146.47 C 32.60 144.86 33.55 143.25 34.51 141.66 C 34.54 141.61 34.60 141.51 34.63 141.47 C 37.11 137.44 39.71 133.48 42.45 129.62 C 42.48 129.58 42.53 129.50 42.56 129.46 C 56.44 110.05 73.74 93.11 93.43 79.64 C 93.47 79.62 93.56 79.56 93.60 79.53 C 94.31 79.05 95.75 78.10 96.46 77.62 C 96.51 77.59 96.59 77.54 96.63 77.51 C 99.23 75.83 101.86 74.20 104.52 72.61 C 104.57 72.58 104.67 72.52 104.72 72.49 L 106.41 71.52 C 106.45 71.49 106.54 71.44 106.59 71.41 C 108.21 70.50 109.83 69.58 111.46 68.67 C 111.52 68.64 111.63 68.58 111.68 68.55 L 113.46 67.62 C 113.52 67.59 113.62 67.54 113.67 67.51 C 114.92 66.88 116.17 66.24 117.41 65.60 C 117.46 65.57 117.56 65.52 117.61 65.49 C 126.17 60.90 135.31 57.45 144.52 54.38 C 147.42 53.51 150.28 52.31 153.33 52.14 C 154.53 52.35 155.37 51.97 155.86 50.99 L 157.35 51.13 C 158.55 51.43 159.37 51.03 159.79 49.95 L 161.23 50.12 C 162.25 50.31 163.15 50.04 163.94 49.32 C 164.51 49.27 165.66 49.15 166.24 49.09 C 167.24 49.24 168.15 49.00 168.96 48.36 C 171.74 47.80 174.54 47.20 177.38 47.11 C 178.88 47.17 180.36 46.89 181.78 46.43 Z" />
<path fill="#007af4" opacity="1.00" d=" M 133.93 84.82 C 167.36 69.54 205.64 65.24 241.66 72.46 C 271.52 78.30 299.75 92.17 322.72 112.10 L 323.22 112.58 C 323.13 125.06 328.63 136.67 334.84 147.19 C 350.56 170.75 361.40 197.55 366.48 225.41 C 366.94 228.22 367.53 231.01 368.30 233.76 C 366.70 236.64 365.09 239.53 363.47 242.41 C 362.55 211.21 352.46 180.24 334.03 154.98 C 321.45 137.74 305.47 122.78 286.89 112.21 C 286.25 113.10 285.61 113.99 284.97 114.89 C 287.53 116.75 290.17 118.51 292.82 120.25 C 317.53 136.90 337.22 160.95 348.41 188.59 C 355.16 205.22 358.99 223.05 359.55 240.99 C 359.64 243.36 359.95 245.72 360.30 248.07 C 357.92 252.35 355.54 256.63 353.11 260.89 C 347.94 258.70 343.55 262.66 339.91 265.77 C 340.01 259.18 340.98 252.62 340.80 246.02 C 340.78 216.45 330.54 187.02 312.20 163.83 C 303.71 153.07 293.62 143.53 282.24 135.87 C 280.82 134.67 278.42 134.78 278.40 137.07 C 279.32 138.33 280.56 139.30 281.81 140.21 C 308.38 158.62 327.39 187.46 334.11 219.06 C 337.81 235.57 337.70 252.69 335.31 269.38 C 318.30 283.03 301.15 296.50 284.10 310.08 C 281.15 312.24 279.54 316.37 281.17 319.82 C 283.10 323.73 285.93 327.10 288.22 330.80 C 290.57 334.63 293.27 339.03 298.27 339.40 C 286.99 349.81 274.39 358.97 260.29 365.20 C 234.08 377.05 203.89 379.78 175.98 372.86 C 148.05 366.08 122.66 349.61 104.88 327.05 C 85.27 302.39 75.11 270.39 77.15 238.92 C 79.19 199.95 99.98 162.41 132.14 140.24 C 133.71 139.01 136.62 137.47 134.81 135.17 C 131.96 134.78 129.91 137.30 127.70 138.69 C 103.92 156.18 86.09 181.66 78.19 210.14 C 70.78 236.29 71.56 264.72 80.53 290.39 C 91.25 321.55 114.01 348.32 142.97 364.02 C 167.71 377.69 196.89 383.02 224.88 379.17 C 253.59 375.40 280.90 361.87 301.33 341.36 C 302.69 339.92 303.88 338.34 305.14 336.82 C 316.97 329.40 329.61 323.35 341.59 316.16 C 341.97 319.27 339.71 321.75 338.34 324.32 C 323.18 349.85 300.47 370.86 273.75 383.82 C 246.08 397.46 214.17 402.17 183.71 397.45 C 154.82 393.05 127.32 380.01 105.53 360.54 C 83.08 340.60 66.65 313.94 59.17 284.84 C 51.00 253.42 53.12 219.42 65.26 189.31 C 76.60 160.90 96.90 136.20 122.45 119.41 C 124.69 117.96 126.88 116.43 129.02 114.83 C 128.37 113.95 127.71 113.08 127.06 112.20 C 102.05 126.63 81.48 148.53 68.11 174.09 C 53.13 202.72 47.58 236.06 52.01 268.03 C 56.18 298.82 69.96 328.18 90.81 351.19 C 112.51 375.36 141.89 392.56 173.65 399.41 C 204.44 406.13 237.23 403.32 266.37 391.30 C 301.09 377.14 330.05 349.96 346.97 316.55 C 349.77 318.08 352.53 319.69 355.38 321.16 C 346.35 339.44 332.63 355.15 316.43 367.44 C 303.17 377.89 288.21 385.94 272.87 392.87 C 252.94 401.53 231.75 407.83 209.97 409.19 C 180.28 411.63 149.83 404.30 124.57 388.48 C 112.53 381.20 101.74 372.04 91.77 362.16 C 82.26 352.12 73.14 341.37 67.31 328.71 C 62.00 318.32 57.84 306.90 49.28 298.63 C 45.45 294.64 39.90 293.41 35.04 291.18 C 31.60 276.72 29.43 261.91 29.52 247.02 C 29.29 213.59 38.94 180.20 56.83 151.97 C 75.28 122.73 102.40 99.01 133.93 84.82 M 161.40 90.49 C 158.38 91.39 155.74 93.50 154.21 96.26 C 150.88 102.17 154.21 110.36 160.67 112.37 C 167.95 115.26 176.56 108.67 175.86 100.94 C 175.70 93.90 168.11 88.51 161.40 90.49 M 246.38 90.59 C 242.68 91.67 239.65 94.68 238.57 98.38 C 236.24 105.09 241.87 112.91 248.92 112.95 C 256.18 113.74 262.58 105.97 260.74 98.99 C 259.37 92.85 252.45 88.64 246.38 90.59 M 188.43 102.52 C 186.64 103.70 187.45 106.30 187.47 108.09 C 188.43 118.01 196.38 128.20 207.06 127.81 C 219.27 127.83 227.89 114.79 226.39 103.44 C 225.58 101.54 222.13 101.76 221.92 103.97 C 221.42 108.73 220.59 113.74 217.38 117.52 C 213.71 122.51 206.25 124.43 200.81 121.25 C 195.10 118.05 192.47 111.31 192.23 105.03 C 192.55 102.96 190.19 101.29 188.43 102.52 M 156.37 118.54 C 152.18 119.70 148.05 122.07 145.78 125.89 C 144.11 128.65 144.31 132.29 146.12 134.92 C 148.56 138.57 152.85 140.48 157.01 141.38 C 163.88 142.70 171.47 141.43 177.08 137.10 C 179.87 134.99 181.64 131.45 181.11 127.92 C 180.61 124.39 177.74 121.77 174.71 120.23 C 169.09 117.41 162.42 117.00 156.37 118.54 M 243.44 118.61 C 238.83 119.88 233.67 122.80 232.85 127.95 C 232.13 132.58 235.40 136.72 239.32 138.74 C 246.31 142.59 255.21 143.00 262.42 139.51 C 266.07 137.76 269.41 134.30 269.34 130.00 C 269.31 126.27 266.62 123.21 263.66 121.26 C 257.77 117.38 250.14 116.86 243.44 118.61 M 180.61 178.53 C 180.55 178.55 180.43 178.60 180.37 178.63 C 165.61 184.25 153.05 195.08 144.70 208.43 C 144.67 208.47 144.62 208.56 144.59 208.61 L 143.58 210.40 C 143.56 210.45 143.50 210.55 143.47 210.60 C 132.47 229.75 130.93 254.00 139.53 274.34 C 139.56 274.39 139.60 274.50 139.62 274.56 C 142.17 280.56 145.41 286.27 149.45 291.39 C 149.49 291.43 149.55 291.52 149.59 291.56 C 155.98 299.78 164.23 306.50 173.42 311.37 C 173.47 311.39 173.58 311.45 173.63 311.48 L 175.49 312.42 C 175.54 312.45 175.64 312.49 175.70 312.52 C 195.22 321.80 218.87 321.84 238.38 312.47 C 238.43 312.44 238.54 312.39 238.59 312.37 L 240.38 311.48 C 240.43 311.45 240.55 311.39 240.61 311.36 C 249.80 306.54 257.99 299.74 264.39 291.56 C 264.42 291.52 264.49 291.43 264.53 291.38 C 266.68 288.57 268.72 285.67 270.41 282.56 C 270.44 282.51 270.50 282.41 270.53 282.36 C 281.95 262.58 283.03 237.35 273.54 216.61 C 273.51 216.56 273.46 216.45 273.44 216.40 L 272.56 214.55 C 272.53 214.50 272.48 214.39 272.45 214.34 L 271.58 212.62 C 271.55 212.57 271.50 212.46 271.47 212.41 L 270.52 210.64 C 270.49 210.59 270.43 210.48 270.40 210.43 C 262.16 196.11 249.05 184.50 233.58 178.59 C 233.53 178.57 233.42 178.53 233.37 178.51 C 216.62 171.95 197.35 171.91 180.61 178.53 Z" />
<path fill="#007af4" opacity="1.00" d=" M 197.28 184.51 C 211.16 182.35 225.76 184.94 237.94 191.96 C 251.69 199.78 262.32 212.94 266.97 228.06 C 270.46 239.26 270.69 251.44 267.62 262.76 C 263.17 279.49 251.45 294.16 236.06 302.11 C 223.64 308.78 208.87 310.88 195.05 308.16 C 178.49 305.01 163.46 294.77 154.33 280.62 C 139.69 258.89 141.15 227.96 157.76 207.70 C 167.45 195.45 181.79 186.85 197.28 184.51 M 196.34 188.49 C 175.23 192.25 156.93 208.40 150.70 228.94 C 145.89 243.70 147.51 260.34 154.81 274.01 C 162.22 288.13 175.59 299.05 190.98 303.29 C 203.70 307.02 217.70 306.11 229.88 300.90 C 243.03 295.39 254.02 284.91 260.15 272.04 C 266.27 259.40 267.74 244.52 263.88 231.00 C 260.08 216.89 250.75 204.40 238.38 196.64 C 226.05 188.77 210.72 185.80 196.34 188.49 Z" />
<path fill="#007af4" opacity="1.00" d=" M 201.43 198.63 C 212.86 197.31 224.75 200.16 234.20 206.76 C 246.18 214.85 254.13 228.61 255.07 243.05 C 256.22 257.40 250.42 272.06 239.85 281.80 C 230.80 290.29 218.37 295.10 205.94 294.74 C 192.80 294.57 179.93 288.57 171.18 278.79 C 161.19 267.89 156.79 252.25 159.57 237.73 C 163.05 217.42 180.92 200.72 201.43 198.63 M 201.29 202.44 C 186.46 204.25 172.95 214.12 166.72 227.69 C 161.25 239.19 161.12 253.07 166.38 264.67 C 172.21 277.88 184.85 287.83 199.09 290.29 C 212.10 292.74 226.08 288.88 236.04 280.18 C 245.59 271.99 251.40 259.61 251.44 247.02 C 251.63 235.31 246.89 223.65 238.65 215.34 C 229.12 205.51 214.85 200.60 201.29 202.44 Z" />
<path fill="#007af4" opacity="1.00" d=" M 363.09 266.45 C 365.03 262.98 366.98 259.52 368.95 256.07 C 369.63 262.40 369.68 269.04 367.80 275.17 C 367.90 271.62 366.18 268.25 363.09 266.45 Z" />
<path fill="#007af4" opacity="1.00" d=" M 367.35 276.46 C 368.46 280.70 367.13 284.97 366.28 289.12 C 365.00 294.66 363.97 300.34 361.47 305.49 C 360.18 304.61 358.89 303.75 357.60 302.89 C 360.71 294.03 364.02 285.24 367.35 276.46 Z" />
</g>
<g id="#003070ce">
<path fill="#003070" opacity="0.81" d=" M 177.38 47.11 C 177.09 45.03 180.83 45.07 181.78 46.43 C 180.36 46.89 178.88 47.17 177.38 47.11 Z" />
</g>
<g id="#003071cd">
<path fill="#003071" opacity="0.80" d=" M 232.18 46.42 C 233.16 45.11 236.85 45.05 236.64 47.08 C 235.12 47.22 233.62 46.90 232.18 46.42 Z" />
</g>
<g id="#003172cb">
<path fill="#003172" opacity="0.80" d=" M 239.11 47.38 C 239.84 46.04 243.14 46.23 242.65 48.10 C 241.40 48.26 240.22 47.87 239.11 47.38 Z" />
</g>
<g id="#00306fc6">
<path fill="#00306f" opacity="0.78" d=" M 166.24 49.09 C 166.57 47.41 167.48 47.17 168.96 48.36 C 168.15 49.00 167.24 49.24 166.24 49.09 Z" />
</g>
<g id="#002f6ec5">
<path fill="#002f6e" opacity="0.77" d=" M 245.05 48.32 C 246.53 47.16 247.44 47.42 247.77 49.09 C 246.75 49.25 245.84 48.99 245.05 48.32 Z" />
</g>
<g id="#002861c1">
<path fill="#002861" opacity="0.76" d=" M 161.23 50.12 C 161.54 48.47 162.45 48.20 163.94 49.32 C 163.15 50.04 162.25 50.31 161.23 50.12 Z" />
</g>
<g id="#002c6acb">
<path fill="#002c6a" opacity="0.80" d=" M 250.05 49.28 C 251.53 48.18 252.43 48.45 252.73 50.11 C 251.71 50.30 250.82 50.02 250.05 49.28 Z" />
</g>
<g id="#003274ca">
<path fill="#003274" opacity="0.79" d=" M 157.35 51.13 C 157.51 49.60 158.32 49.21 159.79 49.95 C 159.37 51.03 158.55 51.43 157.35 51.13 Z" />
</g>
<g id="#003172c9">
<path fill="#003172" opacity="0.79" d=" M 254.20 49.95 C 255.70 49.18 256.52 49.58 256.65 51.16 C 255.45 51.35 254.63 50.95 254.20 49.95 Z" />
</g>
<g id="#002a66c3">
<path fill="#002a66" opacity="0.76" d=" M 153.33 52.14 C 153.53 50.56 154.37 50.17 155.86 50.99 C 155.37 51.97 154.53 52.35 153.33 52.14 Z" />
</g>
<g id="#004a6fc5">
<path fill="#004a6f" opacity="0.77" d=" M 37.27 53.15 L 38.27 52.75 L 39.05 53.26 C 38.57 53.45 37.60 53.85 37.11 54.04 L 37.27 53.15 Z" />
</g>
<g id="#00d5feff">
<path fill="#00d5fe" opacity="1.00" d=" M 39.05 53.26 C 43.31 52.49 47.66 52.34 51.98 52.38 C 79.33 52.46 106.69 52.29 134.04 52.47 C 125.28 56.43 116.43 60.22 107.90 64.67 C 87.29 64.86 66.68 64.62 46.08 64.78 C 35.05 64.90 25.50 75.01 25.88 86.01 C 25.86 106.03 25.85 126.06 25.89 146.08 C 24.34 149.96 21.93 153.43 20.27 157.27 C 17.89 161.87 16.32 166.85 13.77 171.36 C 13.42 144.93 13.73 118.48 13.62 92.03 C 13.68 86.43 13.30 80.64 15.27 75.29 C 18.58 65.29 26.90 56.84 37.11 54.04 C 37.60 53.85 38.57 53.45 39.05 53.26 Z" />
<path fill="#00d5fe" opacity="1.00" d=" M 279.31 52.39 C 340.88 52.40 402.45 52.39 464.01 52.39 C 469.40 52.41 474.83 52.15 480.17 53.12 C 491.53 55.41 501.42 64.10 504.96 75.16 C 505.15 75.65 505.51 76.64 505.69 77.14 C 507.48 84.65 506.90 92.41 506.98 100.06 C 506.98 197.37 506.98 294.69 506.98 392.01 C 506.87 399.98 507.54 408.05 505.71 415.89 C 505.52 416.38 505.15 417.37 504.96 417.86 C 502.02 427.18 494.50 434.90 485.40 438.41 C 479.56 440.79 473.15 440.82 466.95 440.73 C 404.32 440.72 341.70 440.73 279.08 440.73 C 288.51 437.17 297.48 432.48 306.62 428.32 C 362.08 428.49 417.53 428.37 472.99 428.39 C 484.50 428.82 494.89 418.53 494.46 407.00 C 494.48 299.99 494.49 192.99 494.46 85.98 C 494.82 74.88 485.09 64.76 473.97 64.77 C 418.00 64.64 362.03 64.85 306.06 64.66 C 297.32 60.21 288.41 56.08 279.31 52.39 Z" />
<path fill="#00d5fe" opacity="1.00" d=" M 180.61 178.53 C 197.35 171.91 216.62 171.95 233.37 178.51 C 233.42 178.53 233.53 178.57 233.58 178.59 C 249.05 184.50 262.16 196.11 270.40 210.43 C 270.43 210.48 270.49 210.59 270.52 210.64 L 271.47 212.41 C 271.50 212.46 271.55 212.57 271.58 212.62 L 272.45 214.34 C 272.48 214.39 272.53 214.50 272.56 214.55 L 273.44 216.40 C 273.46 216.45 273.51 216.56 273.54 216.61 C 283.03 237.35 281.95 262.58 270.53 282.36 C 270.50 282.41 270.44 282.51 270.41 282.56 C 268.72 285.67 266.68 288.57 264.53 291.38 C 264.49 291.43 264.42 291.52 264.39 291.56 C 257.99 299.74 249.80 306.54 240.61 311.36 C 240.55 311.39 240.43 311.45 240.38 311.48 L 238.59 312.37 C 238.54 312.39 238.43 312.44 238.38 312.47 C 218.87 321.84 195.22 321.80 175.70 312.52 C 175.64 312.49 175.54 312.45 175.49 312.42 L 173.63 311.48 C 173.58 311.45 173.47 311.39 173.42 311.37 C 164.23 306.50 155.98 299.78 149.59 291.56 C 149.55 291.52 149.49 291.43 149.45 291.39 C 145.41 286.27 142.17 280.56 139.62 274.56 C 139.60 274.50 139.56 274.39 139.53 274.34 C 130.93 254.00 132.47 229.75 143.47 210.60 C 143.50 210.55 143.56 210.45 143.58 210.40 L 144.59 208.61 C 144.62 208.56 144.67 208.47 144.70 208.43 C 153.05 195.08 165.61 184.25 180.37 178.63 C 180.43 178.60 180.55 178.55 180.61 178.53 M 197.28 184.51 C 181.79 186.85 167.45 195.45 157.76 207.70 C 141.15 227.96 139.69 258.89 154.33 280.62 C 163.46 294.77 178.49 305.01 195.05 308.16 C 208.87 310.88 223.64 308.78 236.06 302.11 C 251.45 294.16 263.17 279.49 267.62 262.76 C 270.69 251.44 270.46 239.26 266.97 228.06 C 262.32 212.94 251.69 199.78 237.94 191.96 C 225.76 184.94 211.16 182.35 197.28 184.51 Z" />
<path fill="#00d5fe" opacity="1.00" d=" M 196.34 188.49 C 210.72 185.80 226.05 188.77 238.38 196.64 C 250.75 204.40 260.08 216.89 263.88 231.00 C 267.74 244.52 266.27 259.40 260.15 272.04 C 254.02 284.91 243.03 295.39 229.88 300.90 C 217.70 306.11 203.70 307.02 190.98 303.29 C 175.59 299.05 162.22 288.13 154.81 274.01 C 147.51 260.34 145.89 243.70 150.70 228.94 C 156.93 208.40 175.23 192.25 196.34 188.49 M 201.43 198.63 C 180.92 200.72 163.05 217.42 159.57 237.73 C 156.79 252.25 161.19 267.89 171.18 278.79 C 179.93 288.57 192.80 294.57 205.94 294.74 C 218.37 295.10 230.80 290.29 239.85 281.80 C 250.42 272.06 256.22 257.40 255.07 243.05 C 254.13 228.61 246.18 214.85 234.20 206.76 C 224.75 200.16 212.86 197.31 201.43 198.63 Z" />
<path fill="#00d5fe" opacity="1.00" d=" M 201.29 202.44 C 214.85 200.60 229.12 205.51 238.65 215.34 C 246.89 223.65 251.63 235.31 251.44 247.02 C 251.40 259.61 245.59 271.99 236.04 280.18 C 226.08 288.88 212.10 292.74 199.09 290.29 C 184.85 287.83 172.21 277.88 166.38 264.67 C 161.12 253.07 161.25 239.19 166.72 227.69 C 172.95 214.12 186.46 204.25 201.29 202.44 M 201.47 222.57 C 189.43 225.11 180.65 237.66 182.63 249.86 C 184.05 262.81 197.14 272.90 210.04 270.93 C 223.65 269.62 234.06 255.41 231.14 242.03 C 229.03 228.68 214.57 219.18 201.47 222.57 Z" />
<path fill="#00d5fe" opacity="1.00" d=" M 13.73 321.80 C 16.11 325.53 17.28 329.86 19.31 333.77 C 21.22 338.30 23.94 342.44 25.88 346.93 C 25.87 366.95 25.85 386.97 25.88 406.98 C 25.68 415.23 30.80 423.25 38.37 426.52 C 43.24 428.85 48.77 428.37 54.01 428.41 C 71.98 428.42 89.95 428.35 107.91 428.44 C 116.82 432.80 125.77 437.24 135.07 440.80 C 107.70 440.77 80.34 440.78 52.97 440.79 C 48.31 440.89 43.62 440.65 39.02 439.83 C 38.56 439.60 37.62 439.15 37.15 438.93 C 27.13 436.47 18.96 428.08 15.50 418.46 C 13.31 412.91 13.65 406.84 13.62 400.99 C 13.70 374.60 13.48 348.19 13.73 321.80 Z" />
</g>
<g id="#ffcf00ff">
<path fill="#ffcf00" opacity="1.00" d=" M 25.88 86.01 C 25.50 75.01 35.05 64.90 46.08 64.78 C 66.68 64.62 87.29 64.86 107.90 64.67 C 86.34 76.94 66.56 92.50 50.41 111.40 C 41.04 122.06 33.11 133.89 25.89 146.08 C 25.85 126.06 25.86 106.03 25.88 86.01 Z" />
<path fill="#ffcf00" opacity="1.00" d=" M 306.06 64.66 C 362.03 64.85 418.00 64.64 473.97 64.77 C 485.09 64.76 494.82 74.88 494.46 85.98 C 494.49 192.99 494.48 299.99 494.46 407.00 C 494.89 418.53 484.50 428.82 472.99 428.39 C 417.53 428.37 362.08 428.49 306.62 428.32 C 314.38 423.15 322.61 418.63 330.02 412.90 C 361.17 389.83 385.71 357.91 399.79 321.78 C 415.90 280.79 418.35 234.57 406.67 192.11 C 406.44 191.60 405.99 190.58 405.77 190.07 C 409.42 183.90 412.69 177.51 416.42 171.38 C 415.82 170.32 415.22 169.27 414.61 168.23 C 415.82 168.74 417.06 169.19 418.28 169.69 C 421.38 172.72 426.21 174.05 430.29 172.33 C 433.06 171.31 435.00 168.94 436.36 166.42 C 448.87 143.95 461.50 121.54 474.01 99.06 C 476.75 94.48 475.49 87.97 470.99 85.00 C 466.49 82.04 461.59 79.74 456.96 77.00 C 453.55 75.15 450.03 72.60 445.92 73.21 C 442.21 73.58 439.08 76.13 437.42 79.39 C 424.87 101.83 412.31 124.27 399.76 146.71 C 397.48 150.39 397.47 155.38 400.14 158.87 C 402.75 162.12 406.86 163.53 410.29 165.72 C 409.27 165.19 408.25 164.67 407.23 164.16 C 405.23 167.79 403.19 171.39 401.22 175.04 C 388.83 141.38 367.46 111.13 339.98 88.11 C 329.56 79.08 317.93 71.60 306.06 64.66 M 436.60 232.49 C 427.76 236.29 421.43 245.33 421.12 254.97 C 420.92 262.38 421.12 269.80 421.03 277.21 C 420.99 281.88 421.01 286.55 421.01 291.22 L 421.02 291.81 C 421.01 310.77 421.02 329.73 421.02 348.69 C 421.01 353.45 420.99 358.21 421.03 362.98 C 421.50 372.35 419.56 382.24 423.61 391.09 C 428.66 401.34 440.77 407.55 452.02 405.12 C 462.08 403.31 470.46 394.99 472.51 385.00 C 473.52 377.71 472.79 370.31 473.00 362.98 C 473.01 358.18 473.00 353.39 473.01 348.59 C 473.02 329.61 473.02 310.62 473.00 291.64 C 473.01 286.81 473.01 281.98 473.00 277.16 C 473.00 270.12 473.03 263.07 473.00 256.03 C 473.10 246.88 467.79 237.86 459.69 233.60 L 459.69 233.40 C 452.57 229.85 443.93 229.15 436.60 232.49 Z" />
<path fill="#ffcf00" opacity="1.00" d=" M 25.88 346.93 C 40.44 372.33 59.88 395.04 83.47 412.46 C 91.12 418.52 99.64 423.31 107.91 428.44 C 89.95 428.35 71.98 428.42 54.01 428.41 C 48.77 428.37 43.24 428.85 38.37 426.52 C 30.80 423.25 25.68 415.23 25.88 406.98 C 25.85 386.97 25.87 366.95 25.88 346.93 Z" />
</g>
<g id="#436164ff">
<path fill="#436164" opacity="1.00" d=" M 117.41 65.60 C 117.46 65.57 117.56 65.52 117.61 65.49 C 117.56 65.52 117.46 65.57 117.41 65.60 Z" />
</g>
<g id="#004cb1ff">
<path fill="#004cb1" opacity="1.00" d=" M 142.28 77.26 C 174.99 64.61 211.42 61.94 245.66 69.44 C 274.14 75.54 300.85 88.94 323.28 107.46 L 323.20 107.86 C 323.02 109.27 322.86 110.69 322.72 112.10 C 299.75 92.17 271.52 78.30 241.66 72.46 C 205.64 65.24 167.36 69.54 133.93 84.82 C 102.40 99.01 75.28 122.73 56.83 151.97 C 38.94 180.20 29.29 213.59 29.52 247.02 C 29.43 261.91 31.60 276.72 35.04 291.18 L 35.22 291.89 C 34.33 291.93 32.53 292.03 31.63 292.07 C 31.58 291.88 31.48 291.49 31.43 291.29 C 18.62 242.82 27.61 189.14 55.33 147.39 C 76.04 115.69 106.87 90.71 142.28 77.26 Z" />
<path fill="#004cb1" opacity="1.00" d=" M 68.11 174.09 C 81.48 148.53 102.05 126.63 127.06 112.20 C 127.71 113.08 128.37 113.95 129.02 114.83 C 126.88 116.43 124.69 117.96 122.45 119.41 C 96.90 136.20 76.60 160.90 65.26 189.31 C 53.12 219.42 51.00 253.42 59.17 284.84 C 66.65 313.94 83.08 340.60 105.53 360.54 C 127.32 380.01 154.82 393.05 183.71 397.45 C 214.17 402.17 246.08 397.46 273.75 383.82 C 300.47 370.86 323.18 349.85 338.34 324.32 C 339.71 321.75 341.97 319.27 341.59 316.16 C 343.32 314.72 345.27 315.49 346.97 316.55 C 330.05 349.96 301.09 377.14 266.37 391.30 C 237.23 403.32 204.44 406.13 173.65 399.41 C 141.89 392.56 112.51 375.36 90.81 351.19 C 69.96 328.18 56.18 298.82 52.01 268.03 C 47.58 236.06 53.13 202.72 68.11 174.09 Z" />
<path fill="#004cb1" opacity="1.00" d=" M 284.97 114.89 C 285.61 113.99 286.25 113.10 286.89 112.21 C 305.47 122.78 321.45 137.74 334.03 154.98 C 352.46 180.24 362.55 211.21 363.47 242.41 C 362.41 244.29 361.35 246.18 360.30 248.07 C 359.95 245.72 359.64 243.36 359.55 240.99 C 358.99 223.05 355.16 205.22 348.41 188.59 C 337.22 160.95 317.53 136.90 292.82 120.25 C 290.17 118.51 287.53 116.75 284.97 114.89 Z" />
<path fill="#004cb1" opacity="1.00" d=" M 127.70 138.69 C 129.91 137.30 131.96 134.78 134.81 135.17 C 136.62 137.47 133.71 139.01 132.14 140.24 C 99.98 162.41 79.19 199.95 77.15 238.92 C 75.11 270.39 85.27 302.39 104.88 327.05 C 122.66 349.61 148.05 366.08 175.98 372.86 C 203.89 379.78 234.08 377.05 260.29 365.20 C 274.39 358.97 286.99 349.81 298.27 339.40 C 300.59 338.61 302.91 337.82 305.14 336.82 C 303.88 338.34 302.69 339.92 301.33 341.36 C 280.90 361.87 253.59 375.40 224.88 379.17 C 196.89 383.02 167.71 377.69 142.97 364.02 C 114.01 348.32 91.25 321.55 80.53 290.39 C 71.56 264.72 70.78 236.29 78.19 210.14 C 86.09 181.66 103.92 156.18 127.70 138.69 Z" />
<path fill="#004cb1" opacity="1.00" d=" M 278.40 137.07 C 278.42 134.78 280.82 134.67 282.24 135.87 C 293.62 143.53 303.71 153.07 312.20 163.83 C 330.54 187.02 340.78 216.45 340.80 246.02 C 340.98 252.62 340.01 259.18 339.91 265.77 C 338.39 266.99 336.84 268.17 335.31 269.38 C 337.70 252.69 337.81 235.57 334.11 219.06 C 327.39 187.46 308.38 158.62 281.81 140.21 C 280.56 139.30 279.32 138.33 278.40 137.07 Z" />
</g>
<g id="#456366ff">
<path fill="#456366" opacity="1.00" d=" M 296.38 65.49 C 296.43 65.51 296.54 65.57 296.59 65.60 C 296.54 65.57 296.43 65.51 296.38 65.49 Z" />
</g>
<g id="#456161ff">
<path fill="#456161" opacity="1.00" d=" M 298.36 66.52 C 298.43 66.55 298.55 66.61 298.62 66.65 C 298.55 66.61 298.43 66.55 298.36 66.52 Z" />
</g>
<g id="#405c60ff">
<path fill="#405c60" opacity="1.00" d=" M 113.46 67.62 C 113.52 67.59 113.62 67.54 113.67 67.51 C 113.62 67.54 113.52 67.59 113.46 67.62 Z" />
<path fill="#405c60" opacity="1.00" d=" M 300.33 67.52 C 300.39 67.55 300.51 67.61 300.58 67.64 C 300.51 67.61 300.39 67.55 300.33 67.52 Z" />
</g>
<g id="#405657ff">
<path fill="#405657" opacity="1.00" d=" M 111.46 68.67 C 111.52 68.64 111.63 68.58 111.68 68.55 C 111.63 68.58 111.52 68.64 111.46 68.67 Z" />
<path fill="#405657" opacity="1.00" d=" M 302.32 68.56 C 302.37 68.59 302.48 68.65 302.54 68.68 C 302.48 68.65 302.37 68.59 302.32 68.56 Z" />
</g>
<g id="#3f6c7eff">
<path fill="#3f6c7e" opacity="1.00" d=" M 106.41 71.52 C 106.45 71.49 106.54 71.44 106.59 71.41 C 106.54 71.44 106.45 71.49 106.41 71.52 Z" />
</g>
<g id="#3f5d62ff">
<path fill="#3f5d62" opacity="1.00" d=" M 104.52 72.61 C 104.57 72.58 104.67 72.52 104.72 72.49 C 104.67 72.52 104.57 72.58 104.52 72.61 Z" />
</g>
<g id="#3f5a5fff">
<path fill="#3f5a5f" opacity="1.00" d=" M 309.34 72.52 C 309.38 72.55 309.47 72.60 309.51 72.63 C 309.47 72.60 309.38 72.55 309.34 72.52 Z" />
</g>
<g id="#004063c5">
<path fill="#004063" opacity="0.77" d=" M 504.96 75.16 L 505.85 75.35 L 506.23 76.36 L 505.69 77.14 C 505.51 76.64 505.15 75.65 504.96 75.16 Z" />
</g>
<g id="#3f5d64ff">
<path fill="#3f5d64" opacity="1.00" d=" M 96.46 77.62 C 96.51 77.59 96.59 77.54 96.63 77.51 C 96.59 77.54 96.51 77.59 96.46 77.62 Z" />
<path fill="#3f5d64" opacity="1.00" d=" M 34.51 141.66 C 34.54 141.61 34.60 141.51 34.63 141.47 C 34.60 141.51 34.54 141.61 34.51 141.66 Z" />
</g>
<g id="#426063ff">
<path fill="#426063" opacity="1.00" d=" M 317.38 77.53 C 317.42 77.56 317.51 77.61 317.55 77.64 C 317.51 77.61 317.42 77.56 317.38 77.53 Z" />
</g>
<g id="#fc09b2ff">
<path fill="#fc09b2" opacity="1.00" d=" M 442.24 81.16 C 443.52 78.57 446.95 77.35 449.55 78.70 C 455.83 81.85 461.78 85.64 468.04 88.85 C 463.60 96.95 458.62 104.71 453.25 112.21 L 453.01 112.08 C 445.85 108.12 438.72 104.11 431.61 100.08 C 435.16 93.78 438.60 87.41 442.24 81.16 Z" />
<path fill="#fc09b2" opacity="1.00" d=" M 156.37 118.54 C 162.42 117.00 169.09 117.41 174.71 120.23 C 177.74 121.77 180.61 124.39 181.11 127.92 C 181.64 131.45 179.87 134.99 177.08 137.10 C 171.47 141.43 163.88 142.70 157.01 141.38 C 152.85 140.48 148.56 138.57 146.12 134.92 C 144.31 132.29 144.11 128.65 145.78 125.89 C 148.05 122.07 152.18 119.70 156.37 118.54 Z" />
<path fill="#fc09b2" opacity="1.00" d=" M 243.44 118.61 C 250.14 116.86 257.77 117.38 263.66 121.26 C 266.62 123.21 269.31 126.27 269.34 130.00 C 269.41 134.30 266.07 137.76 262.42 139.51 C 255.21 143.00 246.31 142.59 239.32 138.74 C 235.40 136.72 232.13 132.58 232.85 127.95 C 233.67 122.80 238.83 119.88 243.44 118.61 Z" />
<path fill="#fc09b2" opacity="1.00" d=" M 202.28 234.41 C 208.80 231.70 217.01 235.39 219.21 242.12 C 221.83 248.74 217.81 256.93 210.98 258.93 C 204.62 261.16 197.04 257.46 194.81 251.12 C 192.20 244.71 195.80 236.76 202.28 234.41 Z" />
<path fill="#fc09b2" opacity="1.00" d=" M 335.01 284.82 C 338.16 282.66 341.33 280.18 345.15 279.38 C 347.13 278.81 349.12 281.08 348.34 282.99 C 346.91 286.92 343.92 290.00 341.22 293.11 C 327.58 307.86 312.12 320.76 297.32 334.31 C 292.63 329.21 289.17 323.06 285.51 317.21 C 287.15 315.87 288.97 314.78 290.89 313.89 C 306.80 306.17 320.80 295.21 335.01 284.82 Z" />
<path fill="#fc09b2" opacity="1.00" d=" M 421.02 291.81 C 433.70 291.50 446.39 291.74 459.07 291.66 C 458.08 310.78 456.51 329.98 452.02 348.65 C 441.68 348.74 431.35 348.68 421.02 348.69 C 421.02 329.73 421.01 310.77 421.02 291.81 Z" />
<path fill="#fc09b2" opacity="1.00" d=" M 332.17 445.94 C 339.28 445.93 346.39 445.92 353.50 445.95 C 348.14 453.09 341.01 458.61 333.50 463.33 L 333.05 463.62 C 331.43 457.86 332.43 451.82 332.17 445.94 Z" />
<path fill="#fc09b2" opacity="1.00" d=" M 440.22 447.59 C 446.71 447.33 453.20 447.52 459.69 447.47 C 454.56 453.78 448.25 459.26 440.91 462.83 C 439.81 457.81 440.55 452.66 440.22 447.59 Z" />
</g>
<g id="#426064ff">
<path fill="#426064" opacity="1.00" d=" M 93.43 79.64 C 93.47 79.62 93.56 79.56 93.60 79.53 C 93.56 79.56 93.47 79.62 93.43 79.64 Z" />
</g>
<g id="#bd0b95ff">
<path fill="#bd0b95" opacity="1.00" d=" M 468.04 88.85 C 469.97 90.57 471.29 93.36 469.98 95.85 C 466.57 102.47 462.72 108.87 459.14 115.40 C 457.18 114.33 455.21 113.27 453.25 112.21 C 458.62 104.71 463.60 96.95 468.04 88.85 Z" />
<path fill="#bd0b95" opacity="1.00" d=" M 459.07 291.66 C 463.71 291.63 468.36 291.61 473.00 291.64 C 473.02 310.62 473.02 329.61 473.01 348.59 C 466.01 348.60 459.01 348.51 452.02 348.65 C 456.51 329.98 458.08 310.78 459.07 291.66 Z" />
<path fill="#bd0b95" opacity="1.00" d=" M 353.50 445.95 C 356.44 445.92 359.38 445.92 362.33 445.94 C 362.27 450.60 362.51 455.28 362.24 459.94 C 362.03 464.14 358.08 467.58 353.91 467.43 C 349.29 467.50 344.68 467.56 340.07 467.39 C 337.30 467.36 334.78 465.75 333.50 463.33 C 341.01 458.61 348.14 453.09 353.50 445.95 Z" />
<path fill="#bd0b95" opacity="1.00" d=" M 459.69 447.47 C 463.29 447.45 466.89 447.46 470.50 447.48 C 470.44 451.63 470.67 455.80 470.41 459.96 C 470.18 464.22 466.15 467.62 461.94 467.43 C 456.99 467.44 452.02 467.69 447.09 467.26 C 444.35 466.98 442.55 464.78 440.91 462.83 C 448.25 459.26 454.56 453.78 459.69 447.47 Z" />
</g>
<g id="#0068daff">
<path fill="#0068da" opacity="1.00" d=" M 334.27 89.87 C 363.43 113.48 385.68 145.38 397.96 180.83 C 393.23 189.13 388.64 197.51 383.93 205.83 C 382.62 201.81 381.53 197.73 380.37 193.67 C 370.84 162.07 352.25 133.38 327.68 111.39 C 326.23 110.16 324.71 109.01 323.20 107.86 L 323.28 107.46 C 325.18 100.71 328.32 93.97 334.27 89.87 Z" />
<path fill="#0068da" opacity="1.00" d=" M 323.22 112.58 C 348.25 134.05 366.89 162.82 376.63 194.30 C 378.35 199.71 379.44 205.30 381.21 210.70 C 376.92 218.39 372.63 226.09 368.30 233.76 C 367.53 231.01 366.94 228.22 366.48 225.41 C 361.40 197.55 350.56 170.75 334.84 147.19 C 328.63 136.67 323.13 125.06 323.22 112.58 Z" />
<path fill="#0068da" opacity="1.00" d=" M 386.65 224.38 C 391.88 214.98 397.17 205.61 402.39 196.21 C 416.73 250.07 406.88 309.67 376.44 356.32 C 376.42 356.36 376.37 356.43 376.34 356.47 C 350.50 396.20 310.39 426.54 264.95 440.11 C 257.59 441.76 250.32 444.22 242.78 444.91 C 241.77 444.77 240.85 445.01 240.03 445.63 C 239.43 445.70 238.23 445.85 237.63 445.92 C 236.13 445.79 234.65 446.10 233.23 446.56 C 213.60 449.18 193.51 448.80 173.96 445.62 C 173.15 445.00 172.24 444.76 171.23 444.89 C 168.45 444.91 165.74 444.16 163.06 443.50 C 162.19 442.99 161.25 442.77 160.26 442.84 C 139.81 438.69 120.52 430.11 102.69 419.42 C 102.65 419.40 102.57 419.35 102.53 419.33 C 62.93 395.39 32.03 357.50 16.48 313.94 C 14.91 309.42 13.27 304.88 12.69 300.11 C 15.98 297.84 19.21 295.34 23.04 294.07 C 25.84 293.15 28.70 292.40 31.43 291.29 C 31.48 291.49 31.58 291.88 31.63 292.07 C 39.83 324.71 57.79 354.73 82.20 377.84 C 103.60 398.37 130.21 413.38 158.78 421.29 C 194.75 431.28 233.84 429.75 268.91 416.91 C 318.42 399.09 359.12 358.59 377.10 309.12 C 384.80 288.35 388.55 266.14 388.22 243.99 C 388.09 237.43 387.87 230.84 386.65 224.38 Z" />
<path fill="#0068da" opacity="1.00" d=" M 368.95 256.07 C 373.80 247.25 378.75 238.50 383.66 229.72 C 386.10 255.48 382.93 281.78 374.16 306.15 C 363.90 334.95 345.98 360.95 322.83 380.92 C 303.72 397.38 281.13 409.85 256.89 416.89 C 222.27 427.10 184.50 426.35 150.33 414.72 C 116.29 403.32 85.99 381.20 64.60 352.39 C 51.02 334.35 41.30 313.59 35.22 291.89 L 35.04 291.18 C 39.90 293.41 45.45 294.64 49.28 298.63 C 57.84 306.90 62.00 318.32 67.31 328.71 C 73.14 341.37 82.26 352.12 91.77 362.16 C 101.74 372.04 112.53 381.20 124.57 388.48 C 149.83 404.30 180.28 411.63 209.97 409.19 C 231.75 407.83 252.94 401.53 272.87 392.87 C 288.21 385.94 303.17 377.89 316.43 367.44 C 332.63 355.15 346.35 339.44 355.38 321.16 C 360.47 323.61 367.12 319.79 367.09 314.04 C 367.38 310.20 364.37 307.43 361.47 305.49 C 363.97 300.34 365.00 294.66 366.28 289.12 C 367.13 284.97 368.46 280.70 367.35 276.46 C 367.47 276.14 367.69 275.49 367.80 275.17 C 369.68 269.04 369.63 262.40 368.95 256.07 Z" />
</g>
<g id="#ff8edeff">
<path fill="#ff8ede" opacity="1.00" d=" M 404.18 149.26 C 413.17 132.79 422.48 116.48 431.61 100.08 C 438.72 104.11 445.85 108.12 453.01 112.08 C 443.01 125.05 430.54 136.24 416.18 144.17 C 412.39 146.33 408.47 148.35 404.18 149.26 Z" />
<path fill="#ff8ede" opacity="1.00" d=" M 436.60 232.49 C 443.93 229.15 452.57 229.85 459.69 233.40 L 459.69 233.60 C 459.58 248.12 459.72 262.65 459.72 277.18 L 459.43 277.18 C 446.63 277.25 433.83 277.20 421.03 277.21 C 421.12 269.80 420.92 262.38 421.12 254.97 C 421.43 245.33 427.76 236.29 436.60 232.49 Z" />
<path fill="#ff8ede" opacity="1.00" d=" M 347.48 266.33 C 350.48 263.93 353.63 267.53 356.40 268.66 C 358.63 270.31 363.39 271.25 362.30 274.93 C 359.21 284.03 355.60 292.95 352.39 302.01 C 350.89 305.86 355.78 307.33 358.05 309.28 C 360.85 311.44 358.83 314.26 357.40 316.57 C 353.00 314.11 348.69 311.37 343.98 309.55 C 341.21 310.32 338.85 312.03 336.34 313.35 C 324.77 319.78 313.16 326.14 301.60 332.61 C 300.26 333.38 298.79 333.87 297.32 334.31 C 312.12 320.76 327.58 307.86 341.22 293.11 C 343.92 290.00 346.91 286.92 348.34 282.99 C 349.12 281.08 347.13 278.81 345.15 279.38 C 341.33 280.18 338.16 282.66 335.01 284.82 C 320.80 295.21 306.80 306.17 290.89 313.89 C 288.97 314.78 287.15 315.87 285.51 317.21 L 285.23 317.42 C 285.86 316.07 286.42 314.59 287.71 313.72 C 307.66 297.95 327.54 282.09 347.48 266.33 Z" />
<path fill="#ff8ede" opacity="1.00" d=" M 421.03 362.98 C 429.80 362.97 438.58 363.01 447.35 362.96 C 443.66 374.92 435.96 386.82 423.61 391.09 C 419.56 382.24 421.50 372.35 421.03 362.98 Z" />
<path fill="#ff8ede" opacity="1.00" d=" M 386.21 445.98 C 393.18 445.88 400.16 445.95 407.14 445.94 C 401.53 452.85 394.64 458.58 387.06 463.21 C 385.45 457.61 386.55 451.71 386.21 445.98 Z" />
</g>
<g id="#0046a8ff">
<path fill="#0046a8" opacity="1.00" d=" M 323.20 107.86 C 324.71 109.01 326.23 110.16 327.68 111.39 C 352.25 133.38 370.84 162.07 380.37 193.67 C 381.53 197.73 382.62 201.81 383.93 205.83 C 383.02 207.45 382.11 209.07 381.21 210.70 C 379.44 205.30 378.35 199.71 376.63 194.30 C 366.89 162.82 348.25 134.05 323.22 112.58 L 322.72 112.10 C 322.86 110.69 323.02 109.27 323.20 107.86 Z" />
<path fill="#0046a8" opacity="1.00" d=" M 383.66 229.72 C 384.65 227.93 385.64 226.15 386.65 224.38 C 387.87 230.84 388.09 237.43 388.22 243.99 C 388.55 266.14 384.80 288.35 377.10 309.12 C 359.12 358.59 318.42 399.09 268.91 416.91 C 233.84 429.75 194.75 431.28 158.78 421.29 C 130.21 413.38 103.60 398.37 82.20 377.84 C 57.79 354.73 39.83 324.71 31.63 292.07 C 32.53 292.03 34.33 291.93 35.22 291.89 C 41.30 313.59 51.02 334.35 64.60 352.39 C 85.99 381.20 116.29 403.32 150.33 414.72 C 184.50 426.35 222.27 427.10 256.89 416.89 C 281.13 409.85 303.72 397.38 322.83 380.92 C 345.98 360.95 363.90 334.95 374.16 306.15 C 382.93 281.78 386.10 255.48 383.66 229.72 Z" />
</g>
<g id="#fd4cc8ff">
<path fill="#fd4cc8" opacity="1.00" d=" M 453.01 112.08 L 453.25 112.21 C 455.21 113.27 457.18 114.33 459.14 115.40 C 449.97 131.81 440.79 148.21 431.60 164.61 C 430.30 167.56 426.49 169.09 423.64 167.36 C 417.65 164.05 411.63 160.77 405.73 157.31 C 402.84 155.75 402.65 152.09 403.80 149.36 L 404.18 149.26 C 408.47 148.35 412.39 146.33 416.18 144.17 C 430.54 136.24 443.01 125.05 453.01 112.08 Z" />
<path fill="#fd4cc8" opacity="1.00" d=" M 459.69 233.60 C 467.79 237.86 473.10 246.88 473.00 256.03 C 473.03 263.07 473.00 270.12 473.00 277.16 C 468.57 277.23 464.15 277.20 459.72 277.18 C 459.72 262.65 459.58 248.12 459.69 233.60 Z" />
<path fill="#fd4cc8" opacity="1.00" d=" M 447.35 362.96 L 447.87 362.96 C 456.25 362.98 464.62 363.00 473.00 362.98 C 472.79 370.31 473.52 377.71 472.51 385.00 C 470.46 394.99 462.08 403.31 452.02 405.12 C 440.77 407.55 428.66 401.34 423.61 391.09 C 435.96 386.82 443.66 374.92 447.35 362.96 Z" />
<path fill="#fd4cc8" opacity="1.00" d=" M 407.14 445.94 C 410.23 445.92 413.32 445.93 416.42 445.94 C 416.35 450.58 416.58 455.23 416.33 459.88 C 416.15 464.11 412.20 467.58 408.00 467.43 C 403.03 467.44 398.03 467.67 393.08 467.27 C 390.48 467.03 388.69 465.01 387.06 463.21 C 394.64 458.58 401.53 452.85 407.14 445.94 Z" />
</g>
<g id="#3d6575ff">
<path fill="#3d6575" opacity="1.00" d=" M 42.45 129.62 C 42.48 129.58 42.53 129.50 42.56 129.46 C 42.53 129.50 42.48 129.58 42.45 129.62 Z" />
</g>
<g id="#40595cff">
<path fill="#40595c" opacity="1.00" d=" M 31.55 146.65 C 31.58 146.60 31.63 146.51 31.66 146.47 C 31.63 146.51 31.58 146.60 31.55 146.65 Z" />
</g>
<g id="#ffffffff">
<path fill="#ffffff" opacity="1.00" d=" M 401.22 175.04 C 403.19 171.39 405.23 167.79 407.23 164.16 C 408.25 164.67 409.27 165.19 410.29 165.72 C 411.74 166.53 413.17 167.38 414.61 168.23 C 415.22 169.27 415.82 170.32 416.42 171.38 C 412.69 177.51 409.42 183.90 405.77 190.07 C 404.59 192.09 403.48 194.14 402.39 196.21 C 397.17 205.61 391.88 214.98 386.65 224.38 C 385.64 226.15 384.65 227.93 383.66 229.72 C 378.75 238.50 373.80 247.25 368.95 256.07 C 366.98 259.52 365.03 262.98 363.09 266.45 C 359.81 264.51 356.47 262.68 353.11 260.89 C 355.54 256.63 357.92 252.35 360.30 248.07 C 361.35 246.18 362.41 244.29 363.47 242.41 C 365.09 239.53 366.70 236.64 368.30 233.76 C 372.63 226.09 376.92 218.39 381.21 210.70 C 382.11 209.07 383.02 207.45 383.93 205.83 C 388.64 197.51 393.23 189.13 397.96 180.83 C 399.08 178.92 400.17 176.98 401.22 175.04 Z" />
<path fill="#ffffff" opacity="1.00" d=" M 201.47 222.57 C 214.57 219.18 229.03 228.68 231.14 242.03 C 234.06 255.41 223.65 269.62 210.04 270.93 C 197.14 272.90 184.05 262.81 182.63 249.86 C 180.65 237.66 189.43 225.11 201.47 222.57 M 202.28 234.41 C 195.80 236.76 192.20 244.71 194.81 251.12 C 197.04 257.46 204.62 261.16 210.98 258.93 C 217.81 256.93 221.83 248.74 219.21 242.12 C 217.01 235.39 208.80 231.70 202.28 234.41 Z" />
<path fill="#ffffff" opacity="1.00" d=" M 421.03 277.21 C 433.83 277.20 446.63 277.25 459.43 277.18 C 459.43 281.89 459.27 286.60 459.07 291.31 C 446.38 291.35 433.69 291.47 421.01 291.22 C 421.01 286.55 420.99 281.88 421.03 277.21 Z" />
<path fill="#ffffff" opacity="1.00" d=" M 421.02 348.69 C 431.35 348.68 441.68 348.74 452.02 348.65 C 450.79 353.46 449.23 358.18 447.87 362.96 L 447.35 362.96 C 438.58 363.01 429.80 362.97 421.03 362.98 C 420.99 358.21 421.01 353.45 421.02 348.69 Z" />
</g>
<g id="#47a7b3ff">
<path fill="#47a7b3" opacity="1.00" d=" M 180.37 178.63 C 180.43 178.60 180.55 178.55 180.61 178.53 C 180.55 178.55 180.43 178.60 180.37 178.63 Z" />
</g>
<g id="#3da8bdff">
<path fill="#3da8bd" opacity="1.00" d=" M 233.37 178.51 C 233.42 178.53 233.53 178.57 233.58 178.59 C 233.53 178.57 233.42 178.53 233.37 178.51 Z" />
</g>
<g id="#002860c2">
<path fill="#002860" opacity="0.76" d=" M 12.16 191.31 L 13.06 191.14 C 12.85 191.62 12.44 192.60 12.23 193.08 L 11.74 192.30 L 12.16 191.31 Z" />
</g>
<g id="#003274c6">
<path fill="#003274" opacity="0.78" d=" M 11.16 195.29 L 12.05 195.17 C 11.82 195.64 11.36 196.58 11.13 197.05 L 10.69 196.24 L 11.16 195.29 Z" />
</g>
<g id="#00245cc7">
<path fill="#00245c" opacity="0.78" d=" M 10.42 201.01 C 9.18 199.55 9.41 198.63 11.11 198.25 C 11.23 199.25 11.00 200.17 10.42 201.01 Z" />
</g>
<g id="#003173ca">
<path fill="#003173" opacity="0.79" d=" M 8.36 210.99 C 7.15 209.51 7.40 208.60 9.11 208.28 C 9.21 209.27 8.96 210.18 8.36 210.99 Z" />
</g>
<g id="#3b9abdff">
<path fill="#3b9abd" opacity="1.00" d=" M 144.59 208.61 C 144.62 208.56 144.67 208.47 144.70 208.43 C 144.67 208.47 144.62 208.56 144.59 208.61 Z" />
</g>
<g id="#3fa9baff">
<path fill="#3fa9ba" opacity="1.00" d=" M 143.47 210.60 C 143.50 210.55 143.56 210.45 143.58 210.40 C 143.56 210.45 143.50 210.55 143.47 210.60 Z" />
<path fill="#3fa9ba" opacity="1.00" d=" M 273.44 216.40 C 273.46 216.45 273.51 216.56 273.54 216.61 C 273.51 216.56 273.46 216.45 273.44 216.40 Z" />
</g>
<g id="#40a5b9ff">
<path fill="#40a5b9" opacity="1.00" d=" M 270.40 210.43 C 270.43 210.48 270.49 210.59 270.52 210.64 C 270.49 210.59 270.43 210.48 270.40 210.43 Z" />
</g>
<g id="#3eaebcff">
<path fill="#3eaebc" opacity="1.00" d=" M 271.47 212.41 C 271.50 212.46 271.55 212.57 271.58 212.62 C 271.55 212.57 271.50 212.46 271.47 212.41 Z" />
</g>
<g id="#3dafbeff">
<path fill="#3dafbe" opacity="1.00" d=" M 272.45 214.34 C 272.48 214.39 272.53 214.50 272.56 214.55 C 272.53 214.50 272.48 214.39 272.45 214.34 Z" />
</g>
<g id="#3fa5baff">
<path fill="#3fa5ba" opacity="1.00" d=" M 139.53 274.34 C 139.56 274.39 139.60 274.50 139.62 274.56 C 139.60 274.50 139.56 274.39 139.53 274.34 Z" />
</g>
<g id="#002b67ca">
<path fill="#002b67" opacity="0.79" d=" M 7.46 276.07 C 7.90 277.21 8.22 278.41 8.08 279.65 C 6.18 280.08 6.06 276.76 7.46 276.07 Z" />
</g>
<g id="#fd84d8ff">
<path fill="#fd84d8" opacity="1.00" d=" M 459.43 277.18 L 459.72 277.18 C 464.15 277.20 468.57 277.23 473.00 277.16 C 473.01 281.98 473.01 286.81 473.00 291.64 C 468.36 291.61 463.71 291.63 459.07 291.66 C 446.39 291.74 433.70 291.50 421.02 291.81 L 421.01 291.22 C 433.69 291.47 446.38 291.35 459.07 291.31 C 459.27 286.60 459.43 281.89 459.43 277.18 Z" />
<path fill="#fd84d8" opacity="1.00" d=" M 452.02 348.65 C 459.01 348.51 466.01 348.60 473.01 348.59 C 473.00 353.39 473.01 358.18 473.00 362.98 C 464.62 363.00 456.25 362.98 447.87 362.96 C 449.23 358.18 450.79 353.46 452.02 348.65 Z" />
</g>
<g id="#003e87ca">
<path fill="#003e87" opacity="0.79" d=" M 8.18 281.97 C 8.39 282.45 8.81 283.41 9.02 283.89 L 8.14 283.74 L 7.70 282.76 L 8.18 281.97 Z" />
</g>
<g id="#40a8baff">
<path fill="#40a8ba" opacity="1.00" d=" M 270.41 282.56 C 270.44 282.51 270.50 282.41 270.53 282.36 C 270.50 282.41 270.44 282.51 270.41 282.56 Z" />
</g>
<g id="#3faabaff">
<path fill="#3faaba" opacity="1.00" d=" M 149.45 291.39 C 149.49 291.43 149.55 291.52 149.59 291.56 C 149.55 291.52 149.49 291.43 149.45 291.39 Z" />
</g>
<g id="#40a6baff">
<path fill="#40a6ba" opacity="1.00" d=" M 264.39 291.56 C 264.42 291.52 264.49 291.43 264.53 291.38 C 264.49 291.43 264.42 291.52 264.39 291.56 Z" />
</g>
<g id="#002763ca">
<path fill="#002763" opacity="0.79" d=" M 10.40 291.99 C 10.99 292.81 11.23 293.73 11.10 294.73 C 9.40 294.35 9.16 293.44 10.40 291.99 Z" />
</g>
<g id="#003578c7">
<path fill="#003578" opacity="0.78" d=" M 11.11 295.99 C 11.35 296.45 11.85 297.36 12.10 297.82 L 11.20 297.74 L 10.69 296.80 L 11.11 295.99 Z" />
</g>
<g id="#9f6abaff">
<path fill="#9f6aba" opacity="1.00" d=" M 358.05 309.28 C 359.51 310.31 361.35 311.16 362.03 312.94 C 362.79 315.52 359.72 317.77 357.40 316.57 C 358.83 314.26 360.85 311.44 358.05 309.28 Z" />
</g>
<g id="#3d9dbbff">
<path fill="#3d9dbb" opacity="1.00" d=" M 173.42 311.37 C 173.47 311.39 173.58 311.45 173.63 311.48 C 173.58 311.45 173.47 311.39 173.42 311.37 Z" />
</g>
<g id="#3fa3baff">
<path fill="#3fa3ba" opacity="1.00" d=" M 240.38 311.48 C 240.43 311.45 240.55 311.39 240.61 311.36 C 240.55 311.39 240.43 311.45 240.38 311.48 Z" />
</g>
<g id="#3fa2baff">
<path fill="#3fa2ba" opacity="1.00" d=" M 175.49 312.42 C 175.54 312.45 175.64 312.49 175.70 312.52 C 175.64 312.49 175.54 312.45 175.49 312.42 Z" />
</g>
<g id="#3fa0baff">
<path fill="#3fa0ba" opacity="1.00" d=" M 238.38 312.47 C 238.43 312.44 238.54 312.39 238.59 312.37 C 238.54 312.39 238.43 312.44 238.38 312.47 Z" />
</g>
<g id="#384d53ff">
<path fill="#384d53" opacity="1.00" d=" M 376.34 356.47 C 376.37 356.43 376.42 356.36 376.44 356.32 C 376.42 356.36 376.37 356.43 376.34 356.47 Z" />
</g>
<g id="#004467c5">
<path fill="#004467" opacity="0.77" d=" M 504.96 417.86 C 505.15 417.37 505.52 416.38 505.71 415.89 L 506.24 416.67 L 505.85 417.68 L 504.96 417.86 Z" />
</g>
<g id="#3a494cff">
<path fill="#3a494c" opacity="1.00" d=" M 102.53 419.33 C 102.57 419.35 102.65 419.40 102.69 419.42 C 102.65 419.40 102.57 419.35 102.53 419.33 Z" />
</g>
<g id="#006083c9">
<path fill="#006083" opacity="0.79" d=" M 37.15 438.93 C 37.62 439.15 38.56 439.60 39.02 439.83 L 38.21 440.29 L 37.25 439.82 L 37.15 438.93 Z" />
</g>
<g id="#001c4fce">
<path fill="#001c4f" opacity="0.81" d=" M 160.26 442.84 C 161.25 442.77 162.19 442.99 163.06 443.50 C 161.61 444.79 160.67 444.57 160.26 442.84 Z" />
</g>
<g id="#002e6fcf">
<path fill="#002e6f" opacity="0.81" d=" M 171.23 444.89 C 172.24 444.76 173.15 445.00 173.96 445.62 C 172.49 446.83 171.58 446.58 171.23 444.89 Z" />
</g>
<g id="#002e6ece">
<path fill="#002e6e" opacity="0.81" d=" M 240.03 445.63 C 240.85 445.01 241.77 444.77 242.78 444.91 C 242.41 446.59 241.49 446.83 240.03 445.63 Z" />
</g>
<g id="#002b68cf">
<path fill="#002b68" opacity="0.81" d=" M 233.23 446.56 C 234.65 446.10 236.13 445.79 237.63 445.92 C 237.87 447.98 234.16 447.91 233.23 446.56 Z" />
</g>
<g id="#2b02223b">
<path fill="#2b0222" opacity="0.23" d=" M 329.82 467.83 C 331.14 468.04 331.97 468.80 332.30 470.11 C 330.78 470.09 329.95 469.33 329.82 467.83 Z" />
</g>
<g id="#3b0b51d9">
<path fill="#3b0b51" opacity="0.85" d=" M 361.87 470.15 C 361.85 468.55 362.69 467.82 364.36 467.94 C 363.90 469.10 363.07 469.83 361.87 470.15 Z" />
</g>
<g id="#3202273f">
<path fill="#320227" opacity="0.25" d=" M 438.43 468.25 C 438.50 468.34 438.65 468.50 438.73 468.58 C 438.65 468.50 438.50 468.34 438.43 468.25 Z" />
</g>
<g id="#320c50e8">
<path fill="#320c50" opacity="0.91" d=" M 469.81 470.15 C 469.96 468.56 470.84 467.84 472.43 467.97 C 471.95 469.17 471.08 469.90 469.81 470.15 Z" />
</g>
</svg>
